/* XPM */
static char *fd804ae61bd3468b89b9ff6908de00c8[] = {
/* columns rows colors chars-per-pixel */
"64 64 31 1 ",
"  c #BC6C3A",
". c #4B4E4E",
"X c #4F5252",
"o c #505353",
"O c #505454",
"+ c #545858",
"@ c #565B5B",
"# c #676B6B",
"$ c #676C6C",
"% c #686D6D",
"& c #6B7171",
"* c #6E7373",
"= c #727878",
"- c #757B7B",
"; c #147CA8",
": c #157CA8",
"> c #147DA8",
", c #157DA8",
"< c #1686B4",
"1 c #4999B8",
"2 c #1993C6",
"3 c #1A9BD1",
"4 c #1A9ED6",
"5 c #1EA7E1",
"6 c #1CA8E4",
"7 c #1DAEEC",
"8 c #939B9B",
"9 c #99A3A3",
"0 c #B1BCBC",
"q c #B5C1C1",
"w c #BAC6C6",
/* pixels */
"                                                                ",
"                                                                ",
"                                                                ",
"                                                                ",
"                                                                ",
"                                                                ",
"                                                                ",
"                                                                ",
"                                                                ",
"                                                                ",
"                                                                ",
"                                                                ",
"           ,,,,,,,,,,,,,,,,,,,,,,,,,,,,,,,,,,,,,,               ",
"          ,,,,,,,,,,,,,,,,,,,,,,,,,,,,,,,,,,,,,,,,              ",
"          ,,555555555555555555555555555555555555<,              ",
"          ,,5555555555555555555555555555555555554,,             ",
"          ,,5555555555555555555555555555555555557<,             ",
"          ,,55555555555555555555555555555555555574,,            ",
"          ,,55555555555555555555555555555555555577<,            ",
"          ,,555555555555555555555555555555555555774,,           ",
"          %%999999999999999999995555555555555555777<,           ",
"          %%9999999999999999999955555555555555557774,,          ",
"          %%9999999999999999999955555555555555557777,,          ",
"          %%9999999999999999999955555555555555557777,,          ",
"          ,,5555555555555555555555555555555555557777,,          ",
"          ,,5555555555555555555555555555555555557777,,          ",
"          ,,5555555555555555555555555555555555557777,,          ",
"          ,,5555555555555555555555555555555555557777,,          ",
"          ,,5555555555555555555555555555555555557777,,          ",
"          ,,5555555555555555555555555555555555557777,,          ",
"          ,,2222222222222222222222222222222222226777,,          ",
"          ,,2222222222222222222222222222222222223777,,          ",
"          ,,2222222222222222222222222222222222222677,,          ",
"          ,,2222222222222222222222222222222222222377,,          ",
"          ,,2222222222222222222222222222222222222267,,          ",
"          ,,2222222222222222222222222222222222222237,,          ",
"          ,,2222222222222222222222222222222222222226,,          ",
"          ,,2222222222222222222222222222222222222223,,          ",
"          %%9999999999999999999912222222222222222222,,          ",
"          %%9999999999999999999991222222222222222222,,          ",
"          %%9999999999999999999999122222222222222222,,          ",
"          %%9999999999999999999999912222222222222222,,          ",
"          %%9999999999999999999999999999999999999999%%          ",
"          %%9999999999999999999999999999999999999999%%          ",
"          %%9999999999999999999999999999999999999999%%          ",
"          %%9999999999999999999999999999999999999999%%          ",
"          #%OO@=------0ww0--=-0ww0--=-0ww0------=@OO%#          ",
"           $OOO@*--**-8qq8-&$-8qq8-&$-8qq8-**--*@OOO$           ",
"              XOOOOO@=----=@@=----=@@=----=@OOOOOX              ",
"               .OOOOO@*--*@OO@*--*@OO@*--*@OOOOO.               ",
"                    XOOOOOOooOOOOOOoooOOOOOX                    ",
"                     .OOOO.  .OOOO.  .OOOO.                     ",
"                                                                ",
"                                                                ",
"                                                                ",
"                                                                ",
"                                                                ",
"                                                                ",
"                                                                ",
"                                                                ",
"                                                                ",
"                                                                ",
"                                                                ",
"                                                                "
};
