/* XPM */
static char *anw9l_6lttt[] = {
/* columns rows colors chars-per-pixel */
"64 64 120 2 ",
"   c #BB6444",
".  c #5B6161",
"X  c #5C6262",
"o  c #5D6363",
"O  c #5F6565",
"+  c #606666",
"@  c #6B6966",
"#  c #646A6A",
"$  c #676C6C",
"%  c #6F6C69",
"&  c #686C6C",
"*  c #686D6D",
"=  c #696E6E",
"-  c #6A6F6F",
";  c #6A7070",
":  c #6B7070",
">  c #6C7171",
",  c #6D7272",
"<  c #6D7373",
"1  c #6E7474",
"2  c #6F7474",
"3  c #6F7575",
"4  c #727777",
"5  c #737878",
"6  c #737979",
"7  c #747979",
"8  c #757A7A",
"9  c #767B7B",
"0  c #777C7C",
"q  c #777D7D",
"w  c #787E7E",
"e  c #7A7F7F",
"r  c #864D37",
"t  c #8A4830",
"y  c #944E34",
"u  c #8F523B",
"i  c #D9744E",
"p  c #CF7654",
"a  c #D87A57",
"s  c #D77B58",
"d  c #D87B58",
"f  c #DB7D5A",
"g  c #E37951",
"h  c #E37952",
"j  c #D17F60",
"k  c #88827E",
"l  c #7B8080",
"z  c #7B8181",
"x  c #7C8282",
"c  c #7D8383",
"v  c #7E8484",
"b  c #7E8485",
"n  c #7E8585",
"m  c #7F8585",
"M  c #808585",
"N  c #808686",
"B  c #808787",
"V  c #818787",
"C  c #8B8581",
"Z  c #8C8581",
"A  c #8C8681",
"S  c #8D8985",
"D  c #808788",
"F  c #828888",
"G  c #828989",
"H  c #838989",
"J  c #838A8A",
"K  c #848A8A",
"L  c #858B8B",
"P  c #898F8F",
"I  c #8A9090",
"U  c #8A9191",
"Y  c #8C9393",
"T  c #8D9393",
"R  c #8D9494",
"E  c #8E9595",
"W  c #8F9696",
"Q  c #8F9797",
"!  c #909797",
"~  c #919898",
"^  c #919999",
"/  c #939A9A",
"(  c #939B9B",
")  c #949B9B",
"_  c #949C9C",
"`  c #949D9D",
"'  c #959D9D",
"]  c #959E9E",
"[  c #959F9F",
"{  c #969E9E",
"}  c #969F9F",
"|  c #979F9F",
" . c #989F9E",
".. c #A19D99",
"X. c #A09E9A",
"o. c #A09E9B",
"O. c #98A09F",
"+. c #96A0A0",
"@. c #97A0A0",
"#. c #98A0A0",
"$. c #98A1A1",
"%. c #99A1A1",
"&. c #98A2A2",
"*. c #99A2A2",
"=. c #98A3A3",
"-. c #99A3A3",
";. c #9AA2A2",
":. c #9BA3A3",
">. c #9BA4A4",
",. c #9BA5A5",
"<. c #A1ACAC",
"1. c #A1ADAD",
"2. c #A4AFAF",
"3. c #A5B0B0",
"4. c #A5B1B1",
"5. c #A6B2B2",
"6. c #A7B2B2",
"7. c #A8B4B4",
"8. c #A8B5B5",
"9. c #A9B5B5",
/* pixels */
"                                                                                                                                ",
"                                                                                                                                ",
"                                                                                                                                ",
"                                                                                                                                ",
"                          & $ $ $ $ & & & & &                                     & & & & & & & $ & &                           ",
"                        & & 2 2 2 2 2 2 2 2 & &                                 & & 2 2 2 2 2 2 2 2 & &                         ",
"                        & 2 ,.<.<.<.<.<.<.,.2 &                                 & 2 ,.<.<.<.<.<.<.,.2 &                         ",
"                        & 2 <.7.7.7.7.7.7.<.2 &                                 $ 2 <.7.7.7.7.7.7.<.2 $                         ",
"                  & & & $ 2 <.7.7.7.7.7.7.<.2 $ & & & & & & & & & & & & & & & & $ 2 <.7.7.7.7.7.7.<.2 $ & & &                   ",
"                & & < < < 6 <.7.7.7.7.7.7.<.6 < < < < < < < < < < < < < < < < < < 6 <.7.7.7.7.7.7.<.6 < < < & &                 ",
"              & & c U U U E 4.7.7.7.7.7.7.4.E U U U U U U U U U U U U U U U U U U E 4.7.7.7.7.7.7.4.E U U U c & $               ",
"            & & v | ! E E / 4.7.7.7.7.7.7.4./ E E E E E E E E E E E E E E E E E E / 4.7.7.7.7.7.7.4./ E E ! | v & &             ",
"          & & v | %.E E E / 4.7.7.7.7.7.7.4./ E E E E E E E E E E E E E E E E E E / 4.7.7.7.7.7.7.4./ E E E %.| v & &           ",
"        & & v | %.%.E E E / 4.7.7.7.7.7.7.4./ E E E E E E E E E E E E E E E E E E / 4.7.7.7.7.7.7.4./ E E E %.%.| v & &         ",
"        & < / %.%.%.E E E / 4.7.7.7.7.7.7.4./ E E E | %.%.| E E E E E E E E E E E / 4.7.7.7.7.7.7.4./ E E E | %.%./ < &         ",
"        & < ) %.%.%.E E E / 4.7.7.7.7.7.7.4./ E E E %.%.%.%.E E E E E E E E E E E / 4.7.7.7.7.7.7.4./ E E E  .%.%.) < &         ",
"        & < ) %.%. .E E E / 4.7.7.7.7.7.7.4./ E E E %.%.%.%.E E E E E E E E E E E / 4.7.7.7.7.7.7.4./ E E E %.%.%.) < &         ",
"        & < ) %.%.| E E E / 4.7.7.7.7.7.7.4./ E E E |  .%.| E E E E E E E E E E E / 4.7.7.7.7.7.7.4./ E E E %.%.%.) < &         ",
"        & < ) %.%.%.E E E / 4.7.7.7.7.7.7.4./ E E E E E E E E E E E E E E E E E E / 4.7.7.7.7.7.7.4./ E E E %.%.%.) < &         ",
"        & < ) %.%.%.E E E / 4.7.7.7.7.7.7.4./ E E E E E E E E E E E E E E E E E E / 4.7.7.7.7.7.7.4./ E E E %.%.%.) < &         ",
"        & < ) %.%.%.E E E / 4.7.7.7.7.7.7.4./ E E E E E E E E E E E E E E E E E E / 4.7.7.7.7.7.7.4./ E E E %.%.%.) < &         ",
"        & < ) %.%.%.E E E / 4.7.7.7.7.7.7.4./ E E E E E E E E E E E E E E E E E E / 4.7.7.7.7.7.7.4./ E E E %.%.%.) < &         ",
"        & < ) %.%. .E E E / 4.7.7.7.7.7.7.4./ E E E | %.%.| E E E E E E E E E E E / 4.7.7.7.7.7.7.4./ E E E %.%.%.) < &         ",
"        & < ) %.%. .E E E / 4.7.7.7.7.7.7.4./ E E E %.%.%.%.E E E E E E E E E E E / 4.7.7.7.7.7.7.4./ E E E %.%.%.) < &         ",
"        & < ) %.%.%.E E E / 4.7.7.7.7.7.7.4./ E E E %.%.%.%.E E E E E E E E E E E / 4.7.7.7.7.7.7.4./ E E E  .%.%.) < &         ",
"        & < ) %.%.%.E E E / 4.7.7.7.7.7.7.4./ E E E %.%.%.%.E E E E E E E E E E E / 4.7.7.7.7.7.7.4./ E E E | %.%.) < &         ",
"        & < ) %.%.%.E E E / 4.7.7.7.7.7.7.4./ E E E %.%.%.%.E E E E E E E E E E E / 4.7.7.7.7.7.7.4./ E E E | %.%.) < &         ",
"        & < ) %.%. .E E E / 4.7.7.7.7.7.7.4./ E E E %.%.%.%.E E E E E E E E E E E / 4.7.7.7.7.7.7.4./ E E E %.%.%.) < &         ",
"        & < ) %.%.%.E E E / 4.7.7.7.7.7.7.4./ E E E %.%.%.%.E E E E E E E E E E E / 4.7.7.7.7.7.7.4./ E E E %.%.%.) < &         ",
"        & < ) %.%.%.E E E / 2.4.4.4.4.4.4.2./ E E E | %.%.| E E E E E E E E E E E / <.4.4.4.4.4.4.2./ E E E %.%.%.) < &         ",
"        & < ) %.%.%.E E E E %.,.,.,.%.%.%.%.E E E E E E E E E E E E E E E E E E E E %.%.,.,.,.,.,.%.E E E E %.%.%.) < &         ",
"        & < ) %.%.%.E E E E %.%.%.%.%.%.%.%.E E E E E E E E E E E E E E E E E E E E @.%.%.%.%.%.%.%.E E E E %.%.%.) < &         ",
"        & < ) %.%.%.E E E E %.%.%.%.%.%.%.%.E E E E E E E E E E E E E E E E E E E E %.%.%.%.%.%.%.%.E E E E %.%.%.) < &         ",
"        & < ) %.%.| E Y Y E %.%.%.%.%.%.%.%.E E E E E E Y Y Y Y Y Y E E Y Y Y Y Y E %.%.%.%.%.%.%.%.E Y E E | %.%.) < &         ",
"        & < ) %.%.E G G G K @.%.%.%.%.%.%.@.L G G G G G G G G G G G G G G G G G G K | %.%.%.%.%.%.| K G G G E %.%.) < &         ",
"        & < | %.E G V V V K | %.%.%.%.%.%.@.G V V V V V V V V V V V V V V V V V V K | %.%.%.%.%.%.| G V V V G E %.) < &         ",
"        & < / E G V V V V K | %.%.%.%.%.%.| K V V V V V V V V V V V V V V V V V V K @.%.%.%.%.%.%.| K V V V V G E / < &         ",
"        & < P G V V V V V K | %.%.%.%.%.%.| K V V V V V V V V V V V V V V V V V V K @.%.%.%.%.%.%.@.K V V V V V G P < &         ",
"        & : v V V V V V V K @.%.%.%.%.%.%.@.K V V V V V V V V V V V V V V V V V V K | %.%.%.%.%.%.| K V V V V V V v : &         ",
"        & : v V V V V V V K | %.%.%.%.%.%.@.K V V V V V V V V V V V V V V V V V V K | %.%.%.%.%.%.| K V V V V V V v : &         ",
"        & : v D V V V V V G | %.%.%.%.%.%.| K V V V V V V V V V V V V V V V V V V K @.%.%.%.%.%.%.| G V V V V V D v : &         ",
"        @ % k Z Z Z Z Z C S | %.%.%.%.%.%.| K V V V c c c c c c c c V V V V V V V K @.%.%.%.%.%.%.O.S C Z Z C Z Z k % @         ",
"        r u p d s s s s a j o.%.%.%.%.%.%.@.K V V c # + + + + + + # c V V V V V V K | %.%.%.%.%.%.o.j a s s s s d p u r         ",
"        t y i h h h h h h f o.%.%.%.%.%.%.@.K V V c + . . . . o . + c V V V V V V K | %.%.%.%.%.%.o.f h h h h h h i y t         ",
"        t y i h h h h h h f o.%.%.%.%.%.%.| G V V c + o o o o o o + c V V V V V V K @.%.%.%.%.%.%.o.f h h h h h h i y t         ",
"        r u p d s s s s a j o.%.%.%.%.%.%.| K V V c + o o o o o o + c V V V V V V K @.%.%.%.%.%.%.o.j a s s s s d p u r         ",
"        @ % k Z Z C Z Z C S O.%.%.%.%.%.%.@.G V V c + o o o . . o + c V V V V V V K | %.%.%.%.%.%.| S C Z Z Z Z Z k % @         ",
"        $ : v D V V V V V G | %.%.%.%.%.%.@.K V V c + o o . . . o + c V V V V V V K | %.%.%.%.%.%.| G V V V V V D v : &         ",
"        & : v V V V V V V K @.%.%.%.%.%.%.@.K V V c + . o o o o o + c V V V V V V K | %.%.%.%.%.%.| K V V V V V V v : &         ",
"        & : c V V V V V V G | %.%.%.%.%.%.@.G V V c + o o o o o o + c V V V V V v G | %.%.%.%.%.%.| G V V V V v V c : &         ",
"        & & 9 q q q q q q l | %.%.%.%.%.%.| l q w 9 O o o o o o o O 9 q q q q q q l | %.%.%.%.%.%.| l q q q q q w 9 & &         ",
"        & & 9 9 9 9 9 9 9 w | %.%.%.%.%.%.| w 9 9 6 O o o o o o o O 6 9 9 9 9 9 9 w | %.%.%.%.%.%.| l 9 9 9 9 9 9 9 & &         ",
"        & & 9 9 9 9 9 9 9 w | %.%.%.%.%.%.| w 9 9 6 O o o o o o o O 6 9 9 9 9 9 9 w | %.%.%.%.%.%.| w 9 9 9 9 9 9 9 & &         ",
"        & & 6 9 9 9 9 9 9 w | %.%.%.%.%.%.| w 9 9 4 + o o o o o o + 4 9 9 9 9 9 9 w | %.%.%.%.%.%.| w 9 9 9 9 9 9 6 & &         ",
"        & & & & & & & & & 2 | %.%.%.%.%.%.| 2 & & & $ $ $ $ $ $ $ $ & & & & & & & 2 | %.%.%.%.%.%.| 2 & & & & & & & & &         ",
"          & & & & & & & $ < | %.%.%.%.%.%./ < $ & & & & & & & & & & & & & & & & $ < | %.%.%.%.%.%.| < $ & & & & & & &           ",
"                        & < | %.%.%.%.,.%.| < &                                 & < | %.%.%.%.%.%.| < &                         ",
"                        & < E | | | | | | E < &                                 & < E | ) | | | | E < &                         ",
"                        & & < < < < < < < < & &                                 & & < < < < < < < < & &                         ",
"                          & & & $ $ $ $ & & &                                     & & & & & & & $ $ &                           ",
"                                                                                                                                ",
"                                                                                                                                ",
"                                                                                                                                ",
"                                                                                                                                "
};
