/* XPM */
static char *d018e9d9c06c4f078ce8a30006138b9e[] = {
/* columns rows colors chars-per-pixel */
"128 128 15 1 ",
"  c None",
". c #5C6262",
"X c #676C6C",
"o c #686C6C",
"O c #686D6D",
"+ c #767B7B",
"@ c #8A4931",
"# c #E27952",
"$ c #7A8080",
"% c #818787",
"& c #8E9595",
"* c #909797",
"= c #99A1A1",
"- c #99A3A3",
"; c #A8B4B4",
/* pixels */
"                                                                                                                                ",
"                                                                                                                                ",
"                                                                                                                                ",
"                                                                                                                                ",
"                                                                                                                                ",
"                                                                                                                                ",
"                                                                                                                                ",
"                                                                                                                                ",
"                          OOOOOOOOOOOOOOOOOOOO                                    OOOOOOOOOOOOOOOOOOOO                          ",
"                         OOOOOOOOOOOOOOOOOOOOOO                                  OOOOOOOOOOOOOOOOOOOOOO                         ",
"                        XOOOOOOOOOOOOOOOOOOOOOOX                                XOOOOOOOOOOOOOOOOOOOOOOX                        ",
"                        OOOOOOOOOOOOOOOOOOOOOOOO                                OOOOOOOOOOOOOOOOOOOOOOOO                        ",
"                        OOOO;;;;;;;;;;;;;;;;OOOO                                OOOO;;;;;;;;;;;;;;;;OOOO                        ",
"                        OOOO;;;;;;;;;;;;;;;;OOOO                                OOOO;;;;;;;;;;;;;;;;OOOO                        ",
"                        OOOO;;;;;;;;;;;;;;;;OOOO                                OOOO;;;;;;;;;;;;;;;;OOOO                        ",
"                        OOOO;;;;;;;;;;;;;;;;OOOO                                OOOO;;;;;;;;;;;;;;;;OOOO                        ",
"                  OOOOOOOOOO;;;;;;;;;;;;;;;;OOOOOOOOOOOOOOOOOOOOOOOOOOOOOOOOOOOOOOOO;;;;;;;;;;;;;;;;OOOOOOOOOO                  ",
"                 OOOOOOOOOOO;;;;;;;;;;;;;;;;OOOOOOOOOOOOOOOOOOOOOOOOOOOOOOOOOOOOOOOO;;;;;;;;;;;;;;;;OOOOOOOOOOO                 ",
"                XOOOOOOOOOOO;;;;;;;;;;;;;;;;OOOOOOOOOOOOOOOOOOOOOOOOOOOOOOOOOOOOOOOO;;;;;;;;;;;;;;;;OOOOOOOOOOOX                ",
"               XOOOOOOOOOOOO;;;;;;;;;;;;;;;;OOOOOOOOOOOOOOOOOOOOOOOOOOOOOOOOOOOOOOOO;;;;;;;;;;;;;;;;OOOOOOOOOOOOX               ",
"              XOOOO$&&&&&&&&;;;;;;;;;;;;;;;;&&&&&&&&&&&&&&&&&&&&&&&&&&&&&&&&&&&&&&&&;;;;;;;;;;;;;;;;&&&&&&&&$OOOOX              ",
"             XOOOO$=&&&&&&&&;;;;;;;;;;;;;;;;&&&&&&&&&&&&&&&&&&&&&&&&&&&&&&&&&&&&&&&&;;;;;;;;;;;;;;;;&&&&&&&&=$OOOOX             ",
"            XOOOO$==&&&&&&&&;;;;;;;;;;;;;;;;&&&&&&&&&&&&&&&&&&&&&&&&&&&&&&&&&&&&&&&&;;;;;;;;;;;;;;;;&&&&&&&&==$OOOOX            ",
"           XOOOO$===&&&&&&&&;;;;;;;;;;;;;;;;&&&&&&&&&&&&&&&&&&&&&&&&&&&&&&&&&&&&&&&&;;;;;;;;;;;;;;;;&&&&&&&&===$OOOOX           ",
"          XOOOO$====&&&&&&&&;;;;;;;;;;;;;;;;&&&&&&&&&&&&&&&&&&&&&&&&&&&&&&&&&&&&&&&&;;;;;;;;;;;;;;;;&&&&&&&&====$OOOOX          ",
"         XOOOO$=====&&&&&&&&;;;;;;;;;;;;;;;;&&&&&&&&&&&&&&&&&&&&&&&&&&&&&&&&&&&&&&&&;;;;;;;;;;;;;;;;&&&&&&&&=====$OOOOX         ",
"        XOOOO$======&&&&&&&&;;;;;;;;;;;;;;;;&&&&&&&&&&&&&&&&&&&&&&&&&&&&&&&&&&&&&&&&;;;;;;;;;;;;;;;;&&&&&&&&======$OOOOX        ",
"        OOOO$=======&&&&&&&&;;;;;;;;;;;;;;;;&&&&&&&&&&&&&&&&&&&&&&&&&&&&&&&&&&&&&&&&;;;;;;;;;;;;;;;;&&&&&&&&=======$OOOO        ",
"        OOOO========&&&&&&&&;;;;;;;;;;;;;;;;&&&&&&&&========&&&&&&&&&&&&&&&&&&&&&&&&;;;;;;;;;;;;;;;;&&&&&&&&========OOOO        ",
"        OOOO========&&&&&&&&;;;;;;;;;;;;;;;;&&&&&&&&========&&&&&&&&&&&&&&&&&&&&&&&&;;;;;;;;;;;;;;;;&&&&&&&&========OOOO        ",
"        OOOO========&&&&&&&&;;;;;;;;;;;;;;;;&&&&&&&&========&&&&&&&&&&&&&&&&&&&&&&&&;;;;;;;;;;;;;;;;&&&&&&&&========OOOO        ",
"        OOOO========&&&&&&&&;;;;;;;;;;;;;;;;&&&&&&&&========&&&&&&&&&&&&&&&&&&&&&&&&;;;;;;;;;;;;;;;;&&&&&&&&========OOOO        ",
"        OOOO========&&&&&&&&;;;;;;;;;;;;;;;;&&&&&&&&========&&&&&&&&&&&&&&&&&&&&&&&&;;;;;;;;;;;;;;;;&&&&&&&&========OOOO        ",
"        OOOO========&&&&&&&&;;;;;;;;;;;;;;;;&&&&&&&&========&&&&&&&&&&&&&&&&&&&&&&&&;;;;;;;;;;;;;;;;&&&&&&&&========OOOO        ",
"        OOOO========&&&&&&&&;;;;;;;;;;;;;;;;&&&&&&&&========&&&&&&&&&&&&&&&&&&&&&&&&;;;;;;;;;;;;;;;;&&&&&&&&========OOOO        ",
"        OOOO========&&&&&&&&;;;;;;;;;;;;;;;;&&&&&&&&========&&&&&&&&&&&&&&&&&&&&&&&&;;;;;;;;;;;;;;;;&&&&&&&&========OOOO        ",
"        OOOO========&&&&&&&&;;;;;;;;;;;;;;;;&&&&&&&&&&&&&&&&&&&&&&&&&&&&&&&&&&&&&&&&;;;;;;;;;;;;;;;;&&&&&&&&========OOOO        ",
"        OOOO========&&&&&&&&;;;;;;;;;;;;;;;;&&&&&&&&&&&&&&&&&&&&&&&&&&&&&&&&&&&&&&&&;;;;;;;;;;;;;;;;&&&&&&&&========OOOO        ",
"        OOOO========&&&&&&&&;;;;;;;;;;;;;;;;&&&&&&&&&&&&&&&&&&&&&&&&&&&&&&&&&&&&&&&&;;;;;;;;;;;;;;;;&&&&&&&&========OOOO        ",
"        OOOO========&&&&&&&&;;;;;;;;;;;;;;;;&&&&&&&&&&&&&&&&&&&&&&&&&&&&&&&&&&&&&&&&;;;;;;;;;;;;;;;;&&&&&&&&========OOOO        ",
"        OOOO========&&&&&&&&;;;;;;;;;;;;;;;;&&&&&&&&&&&&&&&&&&&&&&&&&&&&&&&&&&&&&&&&;;;;;;;;;;;;;;;;&&&&&&&&========OOOO        ",
"        OOOO========&&&&&&&&;;;;;;;;;;;;;;;;&&&&&&&&&&&&&&&&&&&&&&&&&&&&&&&&&&&&&&&&;;;;;;;;;;;;;;;;&&&&&&&&========OOOO        ",
"        OOOO========&&&&&&&&;;;;;;;;;;;;;;;;&&&&&&&&&&&&&&&&&&&&&&&&&&&&&&&&&&&&&&&&;;;;;;;;;;;;;;;;&&&&&&&&========OOOO        ",
"        OOOO========&&&&&&&&;;;;;;;;;;;;;;;;&&&&&&&&&&&&&&&&&&&&&&&&&&&&&&&&&&&&&&&&;;;;;;;;;;;;;;;;&&&&&&&&========OOOO        ",
"        OOOO========&&&&&&&&;;;;;;;;;;;;;;;;&&&&&&&&========&&&&&&&&&&&&&&&&&&&&&&&&;;;;;;;;;;;;;;;;&&&&&&&&========OOOO        ",
"        OOOO========&&&&&&&&;;;;;;;;;;;;;;;;&&&&&&&&========&&&&&&&&&&&&&&&&&&&&&&&&;;;;;;;;;;;;;;;;&&&&&&&&========OOOO        ",
"        OOOO========&&&&&&&&;;;;;;;;;;;;;;;;&&&&&&&&========&&&&&&&&&&&&&&&&&&&&&&&&;;;;;;;;;;;;;;;;&&&&&&&&========OOOO        ",
"        OOOO========&&&&&&&&;;;;;;;;;;;;;;;;&&&&&&&&========&&&&&&&&&&&&&&&&&&&&&&&&;;;;;;;;;;;;;;;;&&&&&&&&========OOOO        ",
"        OOOO========&&&&&&&&;;;;;;;;;;;;;;;;&&&&&&&&========&&&&&&&&&&&&&&&&&&&&&&&&;;;;;;;;;;;;;;;;&&&&&&&&========OOOO        ",
"        OOOO========&&&&&&&&;;;;;;;;;;;;;;;;&&&&&&&&========&&&&&&&&&&&&&&&&&&&&&&&&;;;;;;;;;;;;;;;;&&&&&&&&========OOOO        ",
"        OOOO========&&&&&&&&;;;;;;;;;;;;;;;;&&&&&&&&========&&&&&&&&&&&&&&&&&&&&&&&&;;;;;;;;;;;;;;;;&&&&&&&&========OOOO        ",
"        OOOO========&&&&&&&&;;;;;;;;;;;;;;;;&&&&&&&&========&&&&&&&&&&&&&&&&&&&&&&&&;;;;;;;;;;;;;;;;&&&&&&&&========OOOO        ",
"        OOOO========&&&&&&&&;;;;;;;;;;;;;;;;&&&&&&&&========&&&&&&&&&&&&&&&&&&&&&&&&;;;;;;;;;;;;;;;;&&&&&&&&========OOOO        ",
"        OOOO========&&&&&&&&;;;;;;;;;;;;;;;;&&&&&&&&========&&&&&&&&&&&&&&&&&&&&&&&&;;;;;;;;;;;;;;;;&&&&&&&&========OOOO        ",
"        OOOO========&&&&&&&&;;;;;;;;;;;;;;;;&&&&&&&&========&&&&&&&&&&&&&&&&&&&&&&&&;;;;;;;;;;;;;;;;&&&&&&&&========OOOO        ",
"        OOOO========&&&&&&&&;;;;;;;;;;;;;;;;&&&&&&&&========&&&&&&&&&&&&&&&&&&&&&&&&;;;;;;;;;;;;;;;;&&&&&&&&========OOOO        ",
"        OOOO========&&&&&&&&;;;;;;;;;;;;;;;;&&&&&&&&========&&&&&&&&&&&&&&&&&&&&&&&&;;;;;;;;;;;;;;;;&&&&&&&&========OOOO        ",
"        OOOO========&&&&&&&&;;;;;;;;;;;;;;;;&&&&&&&&========&&&&&&&&&&&&&&&&&&&&&&&&;;;;;;;;;;;;;;;;&&&&&&&&========OOOO        ",
"        OOOO========&&&&&&&&;;;;;;;;;;;;;;;;&&&&&&&&========&&&&&&&&&&&&&&&&&&&&&&&&;;;;;;;;;;;;;;;;&&&&&&&&========OOOO        ",
"        OOOO========&&&&&&&&;;;;;;;;;;;;;;;;&&&&&&&&========&&&&&&&&&&&&&&&&&&&&&&&&;;;;;;;;;;;;;;;;&&&&&&&&========OOOO        ",
"        OOOO========&&&&&&&&--------=======-&&&&&&&&&&&&&&&&&&&&&&&&&&&&&&&&&&&&&&&&====--------====&&&&&&&&========OOOO        ",
"        OOOO========&&&&&&&&==------========&&&&&&&&&&&&&&&&&&&&&&&&&&&&&&&&&&&&&&&&======------====&&&&&&&&========OOOO        ",
"        OOOO========&&&&&&&&====-=--========&&&&&&&&&&&&&&&&&&&&&&&&&&&&&&&&&&&&&&&&========-=--====&&&&&&&&========OOOO        ",
"        OOOO========&&&&&&&&======---=======&&&&&&&&&&&&&&&&&&&&&&&&&&&&&&&&&&&&&&&&-=========---===&&&&&&&&========OOOO        ",
"        OOOO========&&&&&&&&==========----==&&&&&&&&&&&&&&&&&&&&&&&&&&&&&&&&&&&&&&&&---===-------===&&&&&&&&========OOOO        ",
"        OOOO========&&&&&&&&=====-====----==&&&&&&&&&&&&&&&&&&&&&&&&&&&&&&&&&&&&&&&&--====--------==&&&&&&&&========OOOO        ",
"        OOOO========&&&&&&&&====----=---====&&&&&&&&&&&&&&&&&&&&&&&&&&&&&&&&&&&&&&&&----===-====----&&&&&&&&========OOOO        ",
"        OOOO========&&&&&&&&-===----=---====&&&&&&&&&&&&&&&&&&&&&&&&&&&&&&&&&&&&&&&&----===-====----&&&&&&&&========OOOO        ",
"        OOOO=======*%%%%%%%%----=-------=--=%%%%%%%%%%%%%%%%%%%%%%%%%%%%%%%%%%%%%%%%===-=======-===-%%%%%%%%*=======OOOO        ",
"        OOOO======*%%%%%%%%%----==----------%%%%%%%%%%%%%%%%%%%%%%%%%%%%%%%%%%%%%%%%==========--===-%%%%%%%%%*======OOOO        ",
"        OOOO=====*%%%%%%%%%%==--====--------%%%%%%%%%%%%%%%%%%%%%%%%%%%%%%%%%%%%%%%%======-=----====%%%%%%%%%%*=====OOOO        ",
"        OOOO====*%%%%%%%%%%%=---======------%%%%%%%%%%%%%%%%%%%%%%%%%%%%%%%%%%%%%%%%======------====%%%%%%%%%%%*====OOOO        ",
"        OOOO===*%%%%%%%%%%%%====------======%%%%%%%%%%%%%%%%%%%%%%%%%%%%%%%%%%%%%%%%------======---=%%%%%%%%%%%%*===OOOO        ",
"        OOOO==*%%%%%%%%%%%%%====----=-======%%%%%%%%%%%%%%%%%%%%%%%%%%%%%%%%%%%%%%%%--------====--==%%%%%%%%%%%%%*==OOOO        ",
"        OOOO=*%%%%%%%%%%%%%%-===--==========%%%%%%%%%%%%%%%%%%%%%%%%%%%%%%%%%%%%%%%%----------==----%%%%%%%%%%%%%%*=OOOO        ",
"        OOOO*%%%%%%%%%%%%%%%-===-=======-===%%%%%%%%%%%%%%%%%%%%%%%%%%%%%%%%%%%%%%%%=--=-------=----%%%%%%%%%%%%%%%*OOOO        ",
"        OOOO%%%%%%%%%%%%%%%%----====-===----%%%%%%%%%%%%%%%%%%%%%%%%%%%%%%%%%%%%%%%%====---=----===-%%%%%%%%%%%%%%%%OOOO        ",
"        OOOO%%%%%%%%%%%%%%%%----====-===----%%%%%%%%%%%%%%%%%%%%%%%%%%%%%%%%%%%%%%%%====---=----====%%%%%%%%%%%%%%%%OOOO        ",
"        OOOO%%%%%%%%%%%%%%%%==--------====--%%%%%%%%%%%%%%%%%%%%%%%%%%%%%%%%%%%%%%%%==----====-=====%%%%%%%%%%%%%%%%OOOO        ",
"        OOOO%%%%%%%%%%%%%%%%===-------===---%%%%%%%%%%%%%%%%%%%%%%%%%%%%%%%%%%%%%%%%==----==========%%%%%%%%%%%%%%%%OOOO        ",
"        OOOO%%%%%%%%%%%%%%%%==========----==%%%%%%%%%%%%%%%%%%%%%%%%%%%%%%%%%%%%%%%%---===-------===%%%%%%%%%%%%%%%%OOOO        ",
"        OOOO%%%%%%%%%%%%%%%%=====-====----==%%%%%%%%%%%%%%%%%%%%%%%%%%%%%%%%%%%%%%%%--====--------==%%%%%%%%%%%%%%%%OOOO        ",
"        OOOO%%%%%%%%%%%%%%%%====----=---====%%%%%%%%%%%%%%%%%%%%%%%%%%%%%%%%%%%%%%%%----===-====----%%%%%%%%%%%%%%%%OOOO        ",
"        OOOO%%%%%%%%%%%%%%%%-===----=---====%%%%%%%%%%%%%%%%%%%%%%%%%%%%%%%%%%%%%%%%----===-====----%%%%%%%%%%%%%%%%OOOO        ",
"        @@@@################----=-------=--=%%%%%%%%................%%%%%%%%%%%%%%%%===-=======-===-################@@@@        ",
"        @@@@################----==----------%%%%%%%%................%%%%%%%%%%%%%%%%==========--===-################@@@@        ",
"        @@@@################==--====--------%%%%%%%%................%%%%%%%%%%%%%%%%======-=----====################@@@@        ",
"        @@@@################=---======------%%%%%%%%................%%%%%%%%%%%%%%%%======------====################@@@@        ",
"        @@@@################====------======%%%%%%%%................%%%%%%%%%%%%%%%%------======---=################@@@@        ",
"        @@@@################====----=-======%%%%%%%%................%%%%%%%%%%%%%%%%--------====--==################@@@@        ",
"        @@@@################-===--==========%%%%%%%%................%%%%%%%%%%%%%%%%----------==----################@@@@        ",
"        @@@@################-===-=======-===%%%%%%%%................%%%%%%%%%%%%%%%%=--=-------=----################@@@@        ",
"        OOOO%%%%%%%%%%%%%%%%----====-===----%%%%%%%%................%%%%%%%%%%%%%%%%====---=----===-%%%%%%%%%%%%%%%%OOOO        ",
"        OOOO%%%%%%%%%%%%%%%%----====-===----%%%%%%%%................%%%%%%%%%%%%%%%%====---=----====%%%%%%%%%%%%%%%%OOOO        ",
"        OOOO%%%%%%%%%%%%%%%%==--------====--%%%%%%%%................%%%%%%%%%%%%%%%%==----====-=====%%%%%%%%%%%%%%%%OOOO        ",
"        OOOO%%%%%%%%%%%%%%%%===-------===---%%%%%%%%................%%%%%%%%%%%%%%%%==----==========%%%%%%%%%%%%%%%%OOOO        ",
"        OOOO%%%%%%%%%%%%%%%%---=========--==%%%%%%%%................%%%%%%%%%%%%%%%%==-----------===%%%%%%%%%%%%%%%%OOOO        ",
"        OOOO%%%%%%%%%%%%%%%%--==========----%%%%%%%%................%%%%%%%%%%%%%%%%====--------====%%%%%%%%%%%%%%%%OOOO        ",
"        OOOO%%%%%%%%%%%%%%%%------====------%%%%%%%%................%%%%%%%%%%%%%%%%======----==-===%%%%%%%%%%%%%%%%OOOO        ",
"        OOOO%%%%%%%%%%%%%%%%--------===-----%%%%%%%%................%%%%%%%%%%%%%%%%=======----=-===%%%%%%%%%%%%%%%%OOOO        ",
"        OOOO++++++++++++++++===---====--====++++++++................++++++++++++++++----==----==--==++++++++++++++++OOOO        ",
"        OOOO++++++++++++++++====--====--====++++++++................++++++++++++++++----==----==--==++++++++++++++++OOOO        ",
"        OOOO++++++++++++++++====--===---====++++++++................++++++++++++++++-=--==---===----++++++++++++++++OOOO        ",
"        OOOO++++++++++++++++====--==-----===++++++++................++++++++++++++++==--==---===----++++++++++++++++OOOO        ",
"        OOOO++++++++++++++++-======---==--==++++++++................++++++++++++++++===-----==--====++++++++++++++++OOOO        ",
"        OOOO++++++++++++++++-======---==--=-++++++++................++++++++++++++++====---===--====++++++++++++++++OOOO        ",
"        OOOO++++++++++++++++--====----==----++++++++................++++++++++++++++====--====--====++++++++++++++++OOOO        ",
"        OOOO++++++++++++++++--====----==----++++++++................++++++++++++++++====--====---===++++++++++++++++OOOO        ",
"        OOOOOOOOOOOOOOOOOOOO---==----=======OOOOOOOOOOOOOOOOOOOOOOOOOOOOOOOOOOOOOOOO-----===--------OOOOOOOOOOOOOOOOOOOO        ",
"        XOOOOOOOOOOOOOOOOOOO--====----======OOOOOOOOOOOOOOOOOOOOOOOOOOOOOOOOOOOOOOOO------====------OOOOOOOOOOOOOOOOOOOX        ",
"         OOOOOOOOOOOOOOOOOOO------------====OOOOOOOOOOOOOOOOOOOOOOOOOOOOOOOOOOOOOOOO----==========--OOOOOOOOOOOOOOOOOOO         ",
"          OOOOOOOOOOOOOOOOOO--------------==OOOOOOOOOOOOOOOOOOOOOOOOOOOOOOOOOOOOOOOO==--=========---OOOOOOOOOOOOOOOOOO          ",
"                        OOOO===--=------===-OOOO                                OOOO=======---====--OOOO                        ",
"                        OOOO========----====OOOO                                OOOO========--=-==--OOOO                        ",
"                        OOOO==========--====OOOO                                OOOO========----===-OOOO                        ",
"                        OOOO==========--====OOOO                                OOOO-=======----===-OOOO                        ",
"                        OOOOOOOOOOOOOOOOOOOOOOOO                                OOOOOOOOOOOOOOOOOOOOOOOO                        ",
"                        XOOOOOOOOOOOOOOOOOOOOOOX                                XOOOOOOOOOOOOOOOOOOOOOOX                        ",
"                         OOOOOOOOOOOOOOOOOOOOOO                                  OOOOOOOOOOOOOOOOOOOOOO                         ",
"                          OOOOOOOOOOOOOOOOOOOO                                    OOOOOOOOOOOOOOOOOOOO                          ",
"                                                                                                                                ",
"                                                                                                                                ",
"                                                                                                                                ",
"                                                                                                                                ",
"                                                                                                                                ",
"                                                                                                                                ",
"                                                                                                                                ",
"                                                                                                                                "
};
