/* XPM */
static char *a8ro3_w6r91[] = {
/* columns rows colors chars-per-pixel */
"64 64 251 2 ",
"   c #BC6C3A",
".  c #0F5E30",
"X  c #0F5F30",
"o  c #105F31",
"O  c #106031",
"+  c #106232",
"@  c #116233",
"#  c #116333",
"$  c #106434",
"%  c #116434",
"&  c #196037",
"*  c #1B643A",
"=  c #1B663B",
"-  c #147A3F",
";  c #157A40",
":  c #147D41",
">  c #167C41",
",  c #157E41",
"<  c #167E42",
"1  c #237E4A",
"2  c #4E5252",
"3  c #4F5252",
"4  c #4F5353",
"5  c #505353",
"6  c #505454",
"7  c #515555",
"8  c #515656",
"9  c #525656",
"0  c #535757",
"q  c #535858",
"w  c #545858",
"e  c #545959",
"r  c #555959",
"t  c #565A5A",
"y  c #565B5B",
"u  c #575B5B",
"i  c #575C5C",
"p  c #585C5C",
"a  c #585D5D",
"s  c #595D5D",
"d  c #595E5E",
"f  c #5A5E5E",
"g  c #5A5F5F",
"h  c #5C6161",
"j  c #5D6161",
"k  c #5E6363",
"l  c #5F6464",
"z  c #5E6B66",
"x  c #606565",
"c  c #636868",
"v  c #646969",
"b  c #656A6A",
"n  c #666B6B",
"m  c #676C6C",
"M  c #686C6C",
"N  c #686C6D",
"B  c #686D6D",
"V  c #686E6E",
"C  c #696E6E",
"Z  c #696F6F",
"A  c #6A6F6F",
"S  c #63716C",
"D  c #65736E",
"F  c #6A7070",
"G  c #6B7070",
"H  c #6B7171",
"J  c #6C7171",
"K  c #6C7272",
"L  c #6D7272",
"P  c #6D7373",
"I  c #6E7373",
"U  c #6E7474",
"Y  c #6F7474",
"T  c #6F7575",
"R  c #707575",
"E  c #707676",
"W  c #717676",
"Q  c #717777",
"!  c #727878",
"~  c #737979",
"^  c #747979",
"/  c #747A7A",
"(  c #757A7A",
")  c #757B7B",
"_  c #757C7C",
"`  c #767C7C",
"'  c #767D7D",
"]  c #777D7D",
"[  c #787E7E",
"{  c #787F7F",
"}  c #797F7F",
"|  c #168042",
" . c #178043",
".. c #198747",
"X. c #198A49",
"o. c #198B49",
"O. c #1A8C4A",
"+. c #198F4B",
"@. c #1A8F4C",
"#. c #1B8F4C",
"$. c #1A914C",
"%. c #1B914D",
"&. c #1B924D",
"*. c #23824C",
"=. c #24824C",
"-. c #24824D",
";. c #25844E",
":. c #298F55",
">. c #318656",
",. c #2A9357",
"<. c #2B9558",
"1. c #2B9559",
"2. c #798080",
"3. c #7A8080",
"4. c #7A8181",
"5. c #7B8181",
"6. c #7B8282",
"7. c #7C8282",
"8. c #7C8383",
"9. c #7D8484",
"0. c #7E8484",
"q. c #7E8585",
"w. c #7F8686",
"e. c #808787",
"r. c #818888",
"t. c #828989",
"y. c #828A8A",
"u. c #848B8B",
"i. c #858C8C",
"p. c #858D8D",
"a. c #868D8D",
"s. c #868E8E",
"d. c #878E8E",
"f. c #878F8F",
"g. c #888F8F",
"h. c #889090",
"j. c #899191",
"k. c #8A9191",
"l. c #8A9292",
"z. c #8B9292",
"x. c #8B9393",
"c. c #8C9494",
"v. c #8D9494",
"b. c #8C9595",
"n. c #8D9595",
"m. c #8D9696",
"M. c #8E9696",
"N. c #8F9696",
"B. c #8E9797",
"V. c #8F9797",
"C. c #869993",
"Z. c #8F9898",
"A. c #8B9F98",
"S. c #8B9F99",
"D. c #8C9F9A",
"F. c #909898",
"G. c #909999",
"H. c #919999",
"J. c #919A9A",
"K. c #919B9B",
"L. c #929A9A",
"P. c #929B9B",
"I. c #939B9B",
"U. c #929C9C",
"Y. c #939C9C",
"T. c #949D9D",
"R. c #959D9E",
"E. c #949E9E",
"W. c #959E9E",
"Q. c #959F9F",
"!. c #969F9F",
"~. c #8DA19A",
"^. c #96A0A0",
"/. c #97A0A0",
"(. c #97A1A1",
"). c #98A1A1",
"_. c #98A2A2",
"`. c #99A2A2",
"'. c #98A3A2",
"]. c #99A3A3",
"[. c #9AA3A3",
"{. c #9AA3A4",
"}. c #9AA4A4",
"|. c #9AA5A5",
" X c #9BA5A5",
".X c #9CA5A6",
"XX c #9CA6A6",
"oX c #9DA6A6",
"OX c #9CA7A7",
"+X c #9DA7A7",
"@X c #95AAA3",
"#X c #9EA8A8",
"$X c #9EA9A9",
"%X c #9FA9A9",
"&X c #9FAAAA",
"*X c #9AB0A9",
"=X c #9BB2AB",
"-X c #9CB2AB",
";X c #A0AAAA",
":X c #A1ABAB",
">X c #A1ACAC",
",X c #A2ACAC",
"<X c #A3ACAC",
"1X c #A2ADAD",
"2X c #A3ADAD",
"3X c #A3AEAE",
"4X c #A4AEAE",
"5X c #A5AEAF",
"6X c #A4AFAF",
"7X c #A5AFAF",
"8X c #A5B0B0",
"9X c #A6B1B1",
"0X c #A7B1B1",
"qX c #A7B2B2",
"wX c #A8B3B3",
"eX c #A9B3B3",
"rX c #A9B4B4",
"tX c #AAB4B5",
"yX c #AAB5B5",
"uX c #ABB5B5",
"iX c #AAB6B6",
"pX c #ABB6B6",
"aX c #ABB7B7",
"sX c #ACB6B6",
"dX c #ACB6B7",
"fX c #ACB7B7",
"gX c #ADB7B7",
"hX c #ADB8B8",
"jX c #ADB9B9",
"kX c #AEB9B9",
"lX c #AFB9B9",
"zX c #AEBABA",
"xX c #AFBABA",
"cX c #B0BBBB",
"vX c #B0BCBC",
"bX c #B1BCBC",
"nX c #B1BDBD",
"mX c #B2BDBD",
"MX c #B2BEBE",
"NX c #B3BFBF",
"BX c #B4C0C0",
"VX c #B5C0C0",
"CX c #B5C1C1",
"ZX c #B6C2C2",
"AX c #B6C3C3",
"SX c #B9C4C4",
"DX c #B9C5C5",
"FX c #BAC6C6",
"GX c #BAC7C7",
"HX c #BBC7C7",
"JX c #BBC8C8",
/* pixels */
"                                                                                                                                ",
"                                                                                                                                ",
"                                                                                                                                ",
"                                                                                                                                ",
"                                                                                                                                ",
"                                                                                                                                ",
"                                                                                                                                ",
"                                                                                                                                ",
"                                                                                                                                ",
"                                                                                                                                ",
"                                                                                                                                ",
"                                                                                                                                ",
"                          o o o o o o o X & z M m m m m m m M M M M M                                                           ",
"                        o O % % % % % % % = D R T T T T T T P P P P M M                                                         ",
"                        o % ..O.O.O.O.O.o.:.@X4X4X4X4X4X4X>XXXE.E.E.k.M m                                                       ",
"                        o % O.&.&.&.&.&.&.1.-XfXiXiXfXfXfXfXiX>X}.XXxXB.M m                                                     ",
"                        o % O.&.&.&.&.&.&.1.=XfXiXiXiXiXiXiXiXiX>XXXbXbXB.F M           M M M M                                 ",
"                        o % O.&.&.&.&.&.&.1.=XfXiXiXiXiXiXiXiXiXiX4XbXBXbXB.M M     M m F P P M m M                             ",
"                        o % O.&.&.&.&.&.&.1.=XfXiXiXiXiXiXiXiXiXiX9XXXbXBXiXR M   M M 9.}.4X%XY.{ M M                           ",
"                        o % O.&.&.&.&.&.&.1.=XfXiXiXiXiXiXiXiXiXiX4X9./.BXxXR M M m 8.xXBXBXxXfX;X] m M                         ",
"                        o % O.&.&.&.&.&.&.1.=XfXiXiXiXiXiXiXiXiXiX9X4.{ ].iXR m m F }.BXBXbXfXiXfXY.M M                         ",
"                        o % O.&.&.&.&.&.&.1.=XfXiXiXiXiXiXiXiXiXiX9X4.) { Z.T M T ] fXBXbXiXiXiXfX>XT M                         ",
"                        o % O.&.&.&.&.&.&.1.=XfXiXiXiXiXiXiXiXiXiX9X4.) ) ~ x P XX9XbXBXcXfXiXiXiX4XT m                         ",
"                        o % O.&.&.&.&.&.&.1.=XfXiXiXiXiXiXiXiXiXiX9X4.) ) R t b 4XxXBXBXBXcXfXiXfX4XT m                         ",
"                        o % O.&.&.&.&.&.&.1.=XfXiXiXiXiXiXiXiXiXfX9X4.) ) R q a >XxXBXBXBXBXcXiXfX4XT m                         ",
"                        o % O.&.&.&.&.&.&.1.=XfXiXiXiXiXiXiXiXiXfX9X8.) ) R q a ;XfXBXBXBXBXBXcXfX4XT m                         ",
"                        o % O.&.&.&.&.&.&.1.=XfXiXiXiXiXiXiXiXiXiX4XH.] ) R q a Y.%XbXBXBXBXBXbXfX4XT m                         ",
"                        o % O.&.&.&.&.&.&.1.=XfXiXiXiXiXiXiXiXiX>X%XxXY.] R t a H.XXbXBXBXBXbXfXiX4XT m                         ",
"                        o % O.&.&.&.&.&.&.1.-XfXiXiXiXiXiXiXiX>X}.XXbXbXY.~ q a H.XXbXBXBXbXiXiXfX4XT m                         ",
"                        o % o.@.@.@.@.@.O.,.=XiXiXiXiXiXiXiX>X}.].XXbXBXbXB.t i B.].bXBXbXiXiXiXfX4XT m                         ",
"                        o O , | | | | | | ;.~.XX}.}.}.}.}.}.}.].].}.eXBXBXiXc t M ] xXBXcXiXiXiXfX4XT m                         ",
"                        o O ; , , , , , , =.A.{.].].].].].].].].].].}.eXBXxXT k b R xXBXBXcXiXiXfX4XT m                         ",
"                        X O - , , , , , , *.A.{.].].E.Y.H.H.H.H.H.E.].}.iXfXR m m R xXBXBXBXbXiXiX4XT m                         ",
"                        & * 1 =.=.=.=.=.*.>.D.{./.H.Z.B.B.B.B.B.B.H.H./.}.;XR M m R xXBXBXBXBXcXfX4XT m                         ",
"                        z S C.A.A.A.A.A.A.D.]./.H.B.B.B.B.B.B.B.B.B.B.H./.E.P M m R xXBXBXBXBXbXfX4XT m                         ",
"                        M P E.}.{.{.{.{.{.{.].H.B.B.B.k.i.i.i.i.k.B.B.B.H.Y.P M M R xXBXBXBXbXfXiX4XT m                         ",
"                        M P E.].].].].].].].E.B.B.i.9.{ ] ] ] ] { e.k.B.B.Z.P M m R xXBXBXbXfXiXfX4XT m                         ",
"                        M P E.].].].].].].].H.B.e.] ) ) ) ) ) ) ) ) { u.B.B.P M T ] xXBXbXfXiXiXfX4XT m                         ",
"                        M P E.].].].].].].].H.u.] ) ) ) ) ] ] ) ) ) ) ] i.k.P T XX9XbXBXbXiXiXiXiX4XT m                         ",
"                        M P E.}.].].].].].].k.{ ) ) ) t.].;X%XE.9.) ) ) { i.P T 4XxXBXBXBXcXiXiXfX4XT m                         ",
"                        M P E./.H.H.H.H./.].t.) ] ) i.xXSXJXSXSXeXt.) ) ) 9.P T 4XxXBXBXBXBXfXiXiX4XT M                         ",
"                        b F B.H.B.B.B.B.H.H.4.) ) { >XJXSXSXSXSXSX>X{ ) ) ] M P >XiXBXBXBXbXiXiXfX4XT M                         ",
"                        9 t 9.g.9.4.4.9.k.8.~ ) ) 8.bXSXSXSXSXSXSXbX8.) ) ~ t a Y.%XbXxX>X%XXX%X9X4XT M                         ",
"                        4 t e.{ ) 4.4.) 4.e.) ) ) 8.xXSXSXSXSXSXSXxX4.) ) R 9 a H.XXiXXX]././.].XX;XR M                         ",
"                        9 t ] ) B.iXiXk.) 4.R ) ) ] ].SXSXSXSXSXSXE.) ) ] F 9 x E.XX%X].B.9.9.B.].].T M                         ",
"                        9 t R 4.fXSXJXeX4.~ b ) ) ) 8.}.NXSXSXBX].{ ) ) ) l 4 P Y.E.]./.8.) ) 8./.E.P M                         ",
"                        4 9 T 4.xXSXSXxX4.T a P ] ) ) ] i.H.H.i.] ) ) ] F 9 9 b P ~ Y./.4.) ) 4./.H.P m                         ",
"                        4 9 M ] B.xXxXB.] M 9 a R ) ) ) ) ~ ) ) ) ) ) T a 4 i m m M k.}.B.4.4.B.}.i.M m                         ",
"                        4 5 a T ] 4.4.] P a 4 4 a F ) ) ) ) ) ) ) ) m t 9 5     b m ] Y.]././.].H.~ m                           ",
"                          5 9 a M R R M t 9 4 4 5 9 k M R R R R M k 9 4 4         m M ~ k.E.E.k.R M b                           ",
"                            9 9 9 t t 9 9 5     4 9 4 9 t t t t 9 4 4 4             m M F P P M m m                             ",
"                              5 4 9 9 4 4             4 4 9 9 5 4                     m m M M m b                               ",
"                                                                                                                                ",
"                                                                                                                                ",
"                                                                                                                                ",
"                                                                                                                                ",
"                                                                                                                                ",
"                                                                                                                                ",
"                                                                                                                                ",
"                                                                                                                                ",
"                                                                                                                                ",
"                                                                                                                                ",
"                                                                                                                                ",
"                                                                                                                                "
};
