/* XPM */
static char *_b1a5576c42c490e817412897769bb43[] = {
/* columns rows colors chars-per-pixel */
"64 64 3 1 ",
"  c #B46041",
". c #BB6444",
"X c #C26746",
/* pixels */
"................................................................",
"................................................................",
"................................................................",
"................................................................",
"............................................................    ",
"............................................................    ",
"............................................................    ",
"............................................................    ",
"............................XXXX................................",
"............................XXXX................................",
"............................XXXX................................",
"............................XXXX................................",
"........    ............................................XXXX....",
"........    ............................................XXXX....",
"........    ............................................XXXX....",
"........    ............................................XXXX....",
"................XXXXXXXX........................................",
"................XXXXXXXX........................................",
"................XXXXXXXX........................................",
"................XXXXXXXX........................................",
"................XXXXXXXX........    ............................",
"................XXXXXXXX........    ............................",
"................XXXXXXXX........    ............................",
"................XXXXXXXX........    ............................",
"................................................................",
"................................................................",
"................................................................",
"................................................................",
"............XXXX................................................",
"............XXXX................................................",
"............XXXX................................................",
"............XXXX................................................",
"................................................................",
"................................................................",
"................................................................",
"................................................................",
"................................    ............................",
"................................    ............................",
"................................    ............................",
"................................    ............................",
"................................................................",
"................................................................",
"................................................................",
"................................................................",
"........................    ............XXXX....................",
"........................    ............XXXX....................",
"........................    ............XXXX....................",
"........................    ............XXXX....................",
"....XXXX........................................        ........",
"....XXXX........................................        ........",
"....XXXX........................................        ........",
"....XXXX........................................        ........",
"................................................        ........",
"................................................        ........",
"................................................        ........",
"................................................        ........",
"................................................................",
"................................................................",
"................................................................",
"................................................................",
"....................................    ........................",
"....................................    ........................",
"....................................    ........................",
"....................................    ........................"
};
