/* XPM */
static char *_0b7c5da559f4a8fbb8fee312125daf0[] = {
/* columns rows colors chars-per-pixel */
"64 64 3 1 ",
"  c #B46041",
". c #BB6444",
"X c #C26746",
/* pixels */
"................................................................",
"................................................................",
"................................................................",
"................................................................",
"............XXXX................................................",
"............XXXX................................................",
"............XXXX................................................",
"............XXXX................................................",
"............................................    ................",
"............................................    ................",
"............................................    ................",
"............................................    ................",
"    ........................................................    ",
"    ........................................................    ",
"    ........................................................    ",
"    ........................................................    ",
"    ............................................XXXX........    ",
"    ............................................XXXX........    ",
"    ............................................XXXX........    ",
"    ............................................XXXX........    ",
"................................................................",
"................................................................",
"................................................................",
"................................................................",
"........    ................    ................................",
"........    ................    ................................",
"........    ................    ................................",
"........    ................    ................................",
"........................................XXXXXXXX................",
"........................................XXXXXXXX................",
"........................................XXXXXXXX................",
"........................................XXXXXXXX................",
"........................................XXXXXXXX................",
"........................................XXXXXXXX................",
"........................................XXXXXXXX................",
"........................................XXXXXXXX................",
"................................................................",
"................................................................",
"................................................................",
"................................................................",
"....................................    ........................",
"....................................    ........................",
"....................................    ........................",
"....................................    ........................",
"................XXXX............................................",
"................XXXX............................................",
"................XXXX............................................",
"................XXXX............................................",
"....................................................XXXX........",
"....................................................XXXX........",
"....................................................XXXX........",
"....................................................XXXX........",
"........XXXX....................................................",
"........XXXX....................................................",
"........XXXX....................................................",
"........XXXX....................................................",
"........................    ....................................",
"........................    ....................................",
"........................    ....................................",
"........................    ....................................",
"................................................................",
"................................................................",
"................................................................",
"................................................................"
};
