/* XPM */
static char *avuf6_q4ajh[] = {
/* columns rows colors chars-per-pixel */
"64 64 204 2 ",
"   c #BC6C3A",
".  c #BF6C34",
"X  c #DB5B0B",
"o  c #DC600F",
"O  c #DB6B0C",
"+  c #CF6B1E",
"@  c #D46415",
"#  c #DD6512",
"$  c #D46D15",
"%  c #DA6B12",
"&  c #D26A18",
"*  c #D67015",
"=  c #DD7612",
"-  c #DC7E1B",
";  c #DE7B17",
":  c #E16E08",
">  c #E2740B",
",  c #E57B0D",
"<  c #E06E17",
"1  c #E06E18",
"2  c #E47D11",
"3  c #E2751C",
"4  c #CD6E21",
"5  c #C56E2C",
"6  c #C86E28",
"7  c #C66D27",
"8  c #CB742D",
"9  c #CE7E2D",
"0  c #D17027",
"q  c #D47F24",
"w  c #C0673E",
"e  c #C46B39",
"r  c #C26D35",
"t  c #C17335",
"y  c #C2753C",
"u  c #C57D39",
"i  c #E47C21",
"p  c #BB6444",
"a  c #BB6A45",
"s  c #B7674A",
"d  c #B86648",
"f  c #B66A4C",
"g  c #B96B4A",
"h  c #B57445",
"j  c #BD7543",
"k  c #B4724D",
"l  c #BD734C",
"z  c #BE7B43",
"x  c #AD6F5A",
"c  c #AF6D56",
"v  c #B26D53",
"b  c #AE7554",
"n  c #AD735C",
"m  c #AC795C",
"M  c #AB7855",
"N  c #B47354",
"B  c #BA7651",
"V  c #B47C53",
"C  c #BA7B53",
"Z  c #B07258",
"A  c #B27A5B",
"S  c #9B7E77",
"D  c #A67464",
"F  c #A97361",
"G  c #AC7C61",
"H  c #A3776A",
"J  c #A1796D",
"K  c #A77B64",
"L  c #C37143",
"P  c #CF7D41",
"I  c #C27B45",
"U  c #DB811D",
"Y  c #E78214",
"T  c #E88614",
"R  c #E98917",
"E  c #E88719",
"W  c #E78A18",
"Q  c #E98B1C",
"!  c #E28319",
"~  c #EB951D",
"^  c #ED991F",
"/  c #CF822C",
"(  c #D58226",
")  c #DC8523",
"_  c #D8882E",
"`  c #CB8332",
"'  c #C4803C",
"]  c #D7873A",
"[  c #DB953C",
"{  c #E78527",
"}  c #E98D21",
"|  c #E6882A",
" . c #E98D2B",
".. c #E68D25",
"X. c #EA9126",
"o. c #ED9C23",
"O. c #EB942C",
"+. c #EC982E",
"@. c #EB9430",
"#. c #EE9D34",
"$. c #ED9F39",
"%. c #E0923E",
"&. c #EFA327",
"*. c #EEA62A",
"=. c #EFAA2C",
"-. c #F0AB2D",
";. c #F0B02F",
":. c #EEA037",
">. c #EFA23A",
",. c #EEAB3D",
"<. c #F0AF30",
"1. c #F0A43A",
"2. c #F1AA3D",
"3. c #F1B332",
"4. c #F2B936",
"5. c #F3BD3B",
"6. c #F2B43B",
"7. c #F4C23C",
"8. c #BD8045",
"9. c #BA844A",
"0. c #AD815B",
"q. c #B6835E",
"w. c #B9865D",
"e. c #BC895C",
"r. c #BF8556",
"t. c #9F8771",
"y. c #AC8568",
"u. c #B38663",
"i. c #B58963",
"p. c #B08C69",
"a. c #BA8E61",
"s. c #AD926E",
"d. c #BB9564",
"f. c #BD9A65",
"g. c #B2966E",
"h. c #BFA16B",
"j. c #C38442",
"k. c #C5804D",
"l. c #C9834B",
"z. c #CF8F4D",
"x. c #CC8044",
"c. c #D18343",
"v. c #DD9C45",
"b. c #D4984C",
"n. c #DB9E4B",
"m. c #D79448",
"M. c #C28453",
"N. c #C28D59",
"B. c #C48955",
"V. c #C69056",
"C. c #CC9453",
"Z. c #CD9B56",
"A. c #C5945A",
"S. c #C5995D",
"D. c #CA9C5B",
"F. c #D39D52",
"G. c #E49E43",
"H. c #DCA14C",
"J. c #C7A45F",
"K. c #CEA45C",
"L. c #D6A354",
"P. c #D0A158",
"I. c #D8A756",
"U. c #D9B556",
"Y. c #E5A244",
"T. c #E9A340",
"R. c #E6A847",
"E. c #EDA940",
"W. c #E3A349",
"Q. c #E2A94E",
"!. c #F2AE41",
"~. c #EDB941",
"^. c #EBB74F",
"/. c #EFBC4F",
"(. c #E8B744",
"). c #F3B445",
"_. c #F5BC4A",
"`. c #F3B847",
"'. c #E5B553",
"]. c #E7B855",
"[. c #C09F68",
"{. c #C39860",
"}. c #CEA860",
"|. c #CBB762",
" X c #DDB961",
".X c #ECC246",
"XX c #F6C34F",
"oX c #EFC155",
"OX c #E7C55E",
"+X c #F4C552",
"@X c #F8C752",
"#X c #F7CA54",
"$X c #F8CD55",
"%X c #F4CC59",
"&X c #F4D25E",
"*X c #F9D45A",
"=X c #FBDA5E",
"-X c #DDC166",
";X c #EDD264",
":X c #FCDE61",
">X c #F2D562",
",X c #FDE465",
"<X c #FEE768",
"1X c #FEE969",
/* pixels */
"p p p p p p p p p p p p p p p p p p p p p p p p p p p p p p p p p p p p p p p p p p p p p p p p p p p p p p p p p p p p p p p p ",
"p p p p p p p p p p p p p p p p p p p p p p p p p p p p p p p p p p p p p p p p p p p p p p p p p p p p p p p p p p p p p p p p ",
"p p p p p p p p p p p p p p p p p p p p p p p p p p p p p p p p p p p N I {.L.Q.W.W.v.Z.a.l N p p p p p p p p p p p p p p p p p ",
"p p p p p p p p p p p p p p p p p p p p p p p p p p p p p p p p s N A. X%X$X+X_.`.).!.2.>.W.D.p.v p p p p p p p p p p p p p p p ",
"p p p p p p p p p p p p p p p p p p p p p p p p p p p p p p p f g. X&X#X`.2.>.>.>.>.>.>.>.1.1.Y.Z.l p p p p p p p p p p p p p p ",
"p p p p p p p p p p p p p p p p p p p p p p p p p p p p p p v [.;X*X).>.>.:.#.O.X.X.+.$.>.>.>.1.>.v.L p p p p p p p p p p p p p ",
"p p p p p p p p p p p p p p p p p p p p p p p p p p p p p p h.>X@X2.>.$.X.T Y 2 2 2 2 Y Q O.:.>.>.$.) j p p p p p p p p p p p p ",
"p p p p p p p p p p p p p p p p p p p p p p p p p p p p d N.&X@X1.>.O.Y 2 q 8.V e e V u q 2 E #.>.O., ` N p p p p p p p p p p p ",
"p p p p p p p p p p p p p p p p p p p p p p p p p p p p A -X$X1.>.X.2 - u N p p p p p p k 8 = Y Q Y , , j.s p p p p p p p p p p ",
"p p p p p p p p p p p p p p p p p p p p p p p p p p p p [.*X).>.O., - y p p p p p p p p p p r = , , , , U m p p p p p p p p p p ",
"p p p p p p p p p p p p p p p p p p p p p p p p p p p N '.$X1.$.E 2 9.f p p p p p p p p p p f t > , , , 2 8.p p p p p p p p p p ",
"p p p p p p p p p p p p p p p p p p p p p p p p p p p u.OX_.>.+., q m p p p p p p p p p p p p k % , Y Y , 9 v p p p p p p p p p ",
"p p p p p p p p p p p p p p p p p p p p p p p p p p p l.+X).>.} , 8 p p p p p p p p p p p p p p + 2 3.3.T ` K p p p p p p p p p ",
"p p p p p p p p p p p p p p p p p p p p p p p p p p p c.`.!.>.} , t p p p p p p p p p p p p p p 5 E 5.7.^ / m p p p p p p p p p ",
"p p p p p p p p p p p p p p p p p p p p p p p p p p p x.E.2.>.} > 6 p p p p p p p p p p p p p s 4 Q 7.7.o./ K p p p p p p p p p ",
"p p p p p p p p p p p p p p p p p p p p p p p p p p d C Y.1.>.X., & s p p p p p p p p p p p p m * ~ 7.7.~ 9 n p p p p p p p p p ",
"p p p p p p p p p p p p p p p p p p p p p p p p p p H m [ 1.>.+., O   s p p p p p p p p p p d 5 > *.7.4.W u p p p p p p p p p p ",
"p p p p p p p p p p p p p p p p p p p p p p p p p p p p j.$.>.$.Y > @ M v p p p p p p p p v k O T 4.7.-.U 0.p p p p p p p p p p ",
"p p p p p p p p p p p p p p p p p p p p p p p p p p v D N _ $.>.X., : & k f s p p p p s s h * , *.7.5.~ ` f p p p p p p p p p p ",
"p p p p p p p p p p p p p p p p p p p p p p p p p p p d s I ..$.$.E , > O 7   a b b   . 4 > R =.7.7.&.( V p p p p p p p p p p p ",
"p p p p p p p p p p p p p p p p p p p p p p p p p p f n p a / Q $.#.Y , , > : % $ * - Q o.=.4.7.7.-.! j s p p p p p p p p p p p ",
"p p p p p p p p p p p p p p p p p p p p p p p p p p D v p q.v.E Y X.O.Y , , , , , R 4.7.7.7.7.5.&.) z p p p p p p p p p p p p p ",
"p p p p p p p p p p p p p p p p p p p p p p p p p F J p B H.#X`.Q 2 Y 2 , , , , , Y o.-.3.;.&.Q ( y v p p p p p p p p p p p p p ",
"p p p p p p p p p p p p p p p p p p p p p p p p p p p A K.$X1X,XXX#.E 2 , , , , , , , , , 2 ( 9.k p p p p p p p p p p p p p p p ",
"p p p p p p p p p p p p p p p p p p p p p p p p p p g C.+X,X1X1X,X`.$.[ 8.' 0 - U - ; q ' y b s p p p p p p p p p p p p p p p p ",
"p p p p p p p p p p p p p p p p p p p p p p p p p v d./.,X1X1X1X$X1.H.l f J p N t.m w a f p p p p p p p p p p p p p p p p p p p ",
"p p p p p p p p p p p p p p p p p p p p p p p p p e.'.:X1X1X1X*X2.Y.M.d p H S d p p p p p p p p p p p p p p p p p p p p p p p p ",
"p p p p p p p p p p p p p p p p p p p p p p p f i.Q.*X1X1X1X=X!.T.d.d p p p n s p p p p p p p p p p p p p p p p p p p p p p p p ",
"p p p p p p p p p p p p p p p p p p p p p C s.w.L.).,X1X1X:X).>.V.f p p p p p p p p p p p p p p p p p p p p p p p p p p p p p p ",
"p p p p p p p p p p p p p p p p p p p p m U..X~.2.>.+X:X=X`.>.D.g s p p p p p p p p p p p p p p p p p p p p p p p p p p p p p p ",
"p p p p p p p p p p p p p p p p p p p p G U.7.7.7.6.2.2.2.1.n.C d H d p p p p p p p p p p p p p p p p p p p p p p p p p p p p p ",
"p p p p p p p p p p p p p p p p p p p p N J.6.7.7.7.5.2.1.H.l F J p p p p p p p p p p p p p p p p p p p p p p p p p p p p p p p ",
"p p p p p p p p p p p p p p p p p p p p N.Y.1.2.5.7.7.7.~.f.s x s p p p p p p p p p p p p p p p p p p p p p p p p p p p p p p p ",
"p p p p p p p p p p p p p p p p p p f e.Y.!.1.>.2.6.7.7.7.|.k p p p p p p p p p p p p p p p p p p p p p p p p p p p p p p p p p ",
"p p p p p p p p p p p p p p p p p p q.U.*X,X*X!.>.>.,.(.~.D.d p p p p p p p p p p p p p p p p p p p p p p p p p p p p p p p p p ",
"p p p p p p p p p p p p p p p p p A I.*X1X1X1X_.>.>.D.l u.a p p p p p p p p p p p p p p p p p p p p p p p p p p p p p p p p p p ",
"p p p p p p p p p p p p p p p p a F.*X1X1X1X,X`.>.F.A p c p p p p p p p p p p p p p p p p p p p p p p p p p p p p p p p p p p p ",
"p p p p p p p p p p p p p p p v Z.+X1X1X1X,X_.1.n.l p p p p p p p p p p p p p p p p p p p p p p p p p p p p p p p p p p p p p p ",
"p p p p p p p p p p p p p p p A.+X,X1X1X1X@X1.H.u.p p p p p p p p p p p p p p p p p p p p p p p p p p p p p p p p p p p p p p p ",
"p p p p p p p p p p p p p s e.^.,X1X1X1X*X2.Y.k.p p p p p p p p p p p p p p p p p p p p p p p p p p p p p p p p p p p p p p p p ",
"p p p p p p p p p p p p p q.'.:X1X1X1X*X!.>.d.d p p p p p p p p p p p p p p p p p p p p p p p p p p p p p p p p p p p p p p p p ",
"p p p p p p p p p p p p C Q.=X1X1X1X:X).>.S.d p p p p p J p p p p p p p p p p p p p p p p p p p p p p p p p p p p p p p p p p p ",
"p p p p p p p p p p p G }.*X1X1X1X,X`.>.| h n p p p p p p p p p p p p p p p p p p p p p p p p p p p p p p p p p p p p p p p p p ",
"p p p p p p p p p p f Z.#X1X1X1X,X_.>. .X # b.M.f p p p v F p p p p p p p p p p p p p p p p p p p p p p p p p p p p p p p p p p ",
"p p p p p p p p p N f.+X,X1X1X,X+X1.@.o # @.1.>.D.C p p d s p p p p p p p p p p p p p p p p p p p p p p p p p p p p p p p p p p ",
"p p p p p p p p d N./.,X1X1X1X#X1.#.# X O.>.>.>.>.W.l.N p p p p p p p p p p p p p p p p p p p p p p p p p p p p p p p p p p p p ",
"p p p p p p p p w.'.:X1X1X1X*X2.$.3 X  .>.>.>.>.>.1.>.Z.g p p p p p p p p p p p p p p p p p p p p p p p p p p p p p p p p p p p ",
"p p p p p p p B Q.=X1X1X1X=X!.>.i X { >.>.>.>.>.>.>.>.>.L p p p p p p p p p p p p p p p p p p p p p p p p p p p p p p p p p p p ",
"p p p p p p A I.*X1X1X1X:X).>.{ X i >.>.>.>.1.>.>.>.>.>.] p p p p p p p p p p p p p p p p p p p p p p p p p p p p p p p p p p p ",
"p p p p p g F.$X1X1X1X,X`.>. .X 3 $.>.>.L.C.Y.1.>.>.>.1.m.p p p p p p p p p p p p p p p p p p p p p p p p p p p p p p p p p p p ",
"p p p p Z S.+X,X1X1X,XXX>.@.o 1 $.>.>.v.C d w.P.>.>.>.H.i.p p p p p p p p p p p p p p p p p p p p p p p p p p p p p p p p p p p ",
"p p p p N.oX,X1X1X1X#X1.#.# # #.>.>.>.D.f p p N e.A.N.B d p p p p p p p p p p p p p p p p p p p p p p p p p p p p p p p p p p p ",
"p p p p.^.,X1X1X1X$X1.#.< o @.>.>.>.>.T.z.L p p H f p F v p p p p p p p p p p p p p p p p p p p p p p p p p p p p p p p p p p p ",
"p p p A.#X1X1X1X*X2.>.] @  .>.>.>.>.>.>.1.%.p p d p p d p p p p p p p p p p p p p p p p p p p p p p p p p p p p p p p p p p p p ",
"p p p A.`.:X<X=X).>.S.d C H.>.1.>.>.>.>.>.>.P p D s p p p p p p p p p p p p p p p p p p p p p p p p p p p p p p p p p p p p p p ",
"p p p B H.!.`.2.>.Z.N p d l z.Y.1.>.>.>.>.1.G.y.v p p p p p p p p p p p p p p p p p p p p p p p p p p p p p p p p p p p p p p p ",
"p p p d u.z.n.F.V.l p p p p d i.m.$.1.>.>.1.H.N p p p p p p p p p p p p p p p p p p p p p p p p p p p p p p p p p p p p p p p p ",
"p p p p p p Z n p p p p p p p p p B.G.>.T.H.r.p p p p p p p p p p p p p p p p p p p p p p p p p p p p p p p p p p p p p p p p p ",
"p p p p p p p p p p p p p p p p p p l l.k.A s D p p p p p p p p p p p p p p p p p p p p p p p p p p p p p p p p p p p p p p p p ",
"p p p p p p p p p p p p p p p p p p p p p p p f p p p p p p p p p p p p p p p p p p p p p p p p p p p p p p p p p p p p p p p p ",
"p p p p p p p p p p p p p p p p p p p p p p p p p p p p p p p p p p p p p p p p p p p p p p p p p p p p p p p p p p p p p p p p ",
"p p p p p p p p p p p p p p p p p p p p p p p p p p p p p p p p p p p p p p p p p p p p p p p p p p p p p p p p p p p p p p p p ",
"p p p p p p p p p p p p p p p p p p p p p p p p p p p p p p p p p p p p p p p p p p p p p p p p p p p p p p p p p p p p p p p p ",
"p p p p p p p p p p p p p p p p p p p p p p p p p p p p p p p p p p p p p p p p p p p p p p p p p p p p p p p p p p p p p p p p "
};
