/* XPM */
static char *e0eea7b1091946c3817341622a7f4727[] = {
/* columns rows colors chars-per-pixel */
"128 128 79 1 ",
"  c None",
". c #494C4C",
"X c #4B4E4E",
"o c #4D4F4F",
"O c #4E5252",
"+ c #505353",
"@ c #505454",
"# c #525656",
"$ c #565B5B",
"% c #595D5D",
"& c #7B6258",
"* c #5C6060",
"= c #5D6262",
"- c #626666",
"; c #656A6A",
": c #676B6B",
"> c #676C6C",
", c #686C6C",
"< c #686D6D",
"1 c #696E6E",
"2 c #6B7171",
"3 c #6E7373",
"4 c #707676",
"5 c #757B7B",
"6 c #767C7C",
"7 c #787E7E",
"8 c #797F7F",
"9 c #9C5137",
"0 c #9C5236",
"q c #9C5237",
"w c #885C4B",
"e c #BB6C4F",
"r c #B86F54",
"t c #B1755E",
"y c #AE7863",
"u c #C26745",
"i c #D9744E",
"p c #E27952",
"a c #EE7F56",
"s c #A48072",
"d c #A08377",
"f c #D4937A",
"g c #7B8181",
"h c #7C8383",
"j c #7D8484",
"k c #7E8484",
"l c #7F8686",
"z c #818888",
"x c #818989",
"c c #828989",
"v c #858C8C",
"b c #878E8E",
"n c #968C86",
"m c #9A8981",
"M c #889090",
"N c #8B9393",
"B c #8D9595",
"V c #8E9696",
"C c #8E9797",
"Z c #8F9797",
"A c #909290",
"S c #909898",
"D c #919A9A",
"F c #929B9B",
"G c #949D9D",
"H c #959E9E",
"J c #969F9F",
"K c #96A0A0",
"L c #97A1A1",
"P c #99A3A3",
"I c #A4AEAE",
"U c #A8B3B3",
"Y c #ABB6B6",
"T c #ADB7B7",
"R c #B1BCBC",
"E c #C4A192",
"W c #B5C1C1",
"Q c #B8C4C4",
"! c #BAC6C6",
/* pixels */
"                                                                                                                                ",
"                                                                                                                                ",
"                                                                                                                                ",
"                                                                                                                                ",
"                                                                                                                                ",
"                                                                                                                                ",
"                                                                                                                                ",
"                                                                                                                                ",
"                                                                                                                                ",
"                                                                                                                                ",
"                                                                                                                                ",
"                                                                                                                                ",
"                                                                                                                                ",
"                                                                                                                                ",
"                                                                                                                                ",
"                                                                                                                                ",
"                                                                                                                                ",
"                                                                                                                                ",
"                                                                                                                                ",
"                                                                                                                                ",
"                                                                                                                                ",
"                                                                                                                                ",
"                                                                                                                                ",
"                                                                                                                                ",
"                                                  <<<<<<<<<<<<<<<<<<<<<<<<<<<<<<<<<<<<                                          ",
"                                                 <<<<<<<<<<<<<<<<<<<<<<<<<<<<<<<<<<<<<<                                         ",
"                                                ><<<<<<<<<<<<<<<<<<<<<<<<<<<<<<<<<<<<<<>                                        ",
"                                                <<<<<<<<<<<<<<<<<<<<<<<<<<<<<<<<<<<<<<<<>                                       ",
"                                                <<<<YYYYYYYYYYYYYYYYYYYYYYYYYYYYYYYYc<<<<>                                      ",
"                                                <<<<YYYYYYYYYYYYYYYYYYYYYYYYYYYYYYYYYc<<<<>                                     ",
"                                                <<<<YYYYYYYYYYYYYYYYYYYYYYYYYYYYYYYYYYc<<<<>                                    ",
"                                                <<<<YYYYYYYYYYYYYYYYYYYYYYYYYYYYYYYYYYYc<<<<>                                   ",
"                                                9999ppppppppppppppppYYYYYYYYYYYYYYYYEYYYc<<<<>                                  ",
"                                                9999ppppppppppppppppYYYYYYYYYYYYYYYYaEYYYc<<<<>                                 ",
"                                                9999ppppppppppppppppYYYYYYYYYYYYYYYYaaEYYYc<<<<>                                ",
"                                                9999ppppppppppppppppYYYYYYYYYYYYYYYYaaaEYYYc<<<<                                ",
"                                                9999ppppppppppppppppYYYYYYYYYYYYYYYYaaaaEYYY<<<<                                ",
"                                                9999ppppppppppppppppYYYYYYYYYYYYYYYYaaaaaEYY<<<<                                ",
"                                                9999ppppppppppppppppYYYYYYYYYYYYYYYYaaaaaaEY<<<<                                ",
"                                                9999ppppppppppppppppYYYYYYYYYYYYYYYYaaaaaaaE<<<<                                ",
"                                  999999999999999999ppppppppppppppppYYYYYYYYYYYYYYYYaaaaaaaa&<<<                                ",
"                                 9999999999999999999ppppppppppppppppYYYYYYYYYYYYYYYYaaaaaaaa9&<<                                ",
"                                99999999999999999999ppppppppppppppppYYYYYYYYYYYYYYYYaaaaaaaa99&<                                ",
"                                99999999999999999999ppppppppppppppppYYYYYYYYYYYYYYYYaaaaaaaa999&                                ",
"                                9999ppppppppiiiiiiiippppppppppppppppYYYYYYYYYYYYYYYYaaaaaaaa9999                                ",
"                                9999ppppppppiiiiiiiippppppppppppppppYYYYYYYYYYYYYYYYaaaaaaaa9999                                ",
"                                9999ppppppppiiiiiiiippppppppppppppppYYYYYYYYYYYYYYYYaaaaaaaa9999                                ",
"                                9999ppppppppiiiiiiiippppppppppppppppYYYYYYYYYYYYYYYYaaaaaaaa9999                                ",
"                                9999ppppppppiiiiiiiippppppppppppppppYYYYYYYYYYYYYYYYaaaaaaaa9999                                ",
"                                9999ppppppppiiiiiiiippppppppppppppppYYYYYYYYYYYYYYYYaaaaaaaa9999                                ",
"                                9999ppppppppiiiiiiiippppppppppppppppYYYYYYYYYYYYYYYYaaaaaaaa9999                                ",
"                                9999ppppppppiiiiiiiippppppppppppppppYYYYYYYYYYYYYYYYaaaaaaaf9999                                ",
"                                9999ppppppppiiiiiiiippppppppppppppppYYYYYYYYYYYYYYYYaaaaaaaa9999                                ",
"                                9999ppppppppiiiiiiiippppppppppppppppYYYYYYYYYYYYYYYYaaaaaaaa9999                                ",
"                                9999ppppppppiiiiiiiippppppppppppppppYYYYYYYYYYYYYYYYaaaaaaaa9999                                ",
"                                9999ppppppppiiiiiiiippppppppppppppppYYYYYYYYYYYYYYYYaaaaaaaa9999                                ",
"                                9999ppppppppiiiiiiiiYYYYYYYYYYYYYYYYYYYYYYYYYYYYYYYYfaaaaaaa9999                                ",
"                                9999ppppppppiiiiiiiiYYYYYYYYYYYYYYYYYYYYYYYYYYYYYYYYYfaaaaaa9999                                ",
"                                9999ppppppppiiiiiiiiYYYYYYYYYYYYYYYYYYYYYYYYYYYYYYYYYYfaaaaa9999                                ",
"                                9999ppppppppiiiiiiiiYYYYYYYYYYYYYYYYYYYYYYYYYYYYYYYYYYYfaaaa9999                                ",
"                                9999ppppppppiiiiiiiiuuuuuuuuuuuuuuuu!!WW!!!!!!!!!!!!IYYYfaaa9999                                ",
"                                9999ppppppppiiiiiiiiuuuuuuuuuuuuuuuu!!!W!!!!!!!!!!!!PIYYYfaa9999                                ",
"                                9999ppppppppiiiiiiiiuuuuuuuuuuuuuuuu!!WW!!!!W!WW!!!!PPIYYYfa9999                                ",
"                                9999ppppppppiiiiiiiiuuuuuuuuuuuuuuuu!!WWW!!!WWWWW!!!PPPIYYYf9999                                ",
"                                9999ppppppppiiiiiiiiuuuuuuuuuuuuuuuu!!!!WWW!!!WWW!!!PPPPIYYYw999                                ",
"                                9999ppppppppiiiiiiiiuuuuuuuuuuuuuuuu!!!!WW!!!!WWWW!!PPPPPIYY<w99                                ",
"                                9999ppppppppiiiiiiiiuuuuuuuuuuuuuuuu!!!!!W!!!!!!!!!!PPPPPPIY<<w9                                ",
"                                9999ppppppppiiiiiiiiuuuuuuuuuuuuuuuuW!!!!!!!!!!!!!!!PPPPPPPI<<<w                                ",
"                                9999ppppppppiiiiiiiiuuuuuuuuuuuuuuuuWWWW!!!!!!!!!!!!PPPPPPPP<<<<                                ",
"                                9999ppppppppiiiiiiiiuuuuuuuuuuuuuuuuWW!W!!!!!!!!W!!!PPPPPPPP<<<<                                ",
"                                9999ppppppppiiiiiiiiuuuuuuuuuuuuuuuu!!!!W!WW!!!!WWW!PPPPPPPP<<<<                                ",
"                                9999ppppppppiiiiiiiiuuuuuuuuuuuuuuuu!!!!WWWWW!!!WWW!PPPPPPPP<<<<                                ",
"                                9999ppppppppiiiiiiiiuuuuuuuuuuuuuuuuPPPPPPPPPPPPPPPPPPPPPPPP<<<<                                ",
"                                9999ppppppppiiiiiiiiuuuuuuuuuuuuuuuuPPPPPPPPPPPPPPPPPPPPPPPP<<<<                                ",
"                                9999ppppppppiiiiiiiiuuuuuuuuuuuuuuuuPPPPPPPPPPPPPPPPPPPPPPPP<<<<                                ",
"                                9999ppppppppiiiiiiiiuuuuuuuuuuuuuuuuPPPPPPPPPPPPPPPPPPPPPPPP<<<<                                ",
"                                9999uuuuuuuuuuuuuuuuuuuuuuuuuuuuuuuuPPPPPPPPPPPPPPPPPPPPPPPP<<<<                                ",
"                                9999uuuuuuuuuuuuuuuuuuuuuuuuuuuuuuuuPPPPPPPPPPPPPPPPPPPPPPPP<<<<                                ",
"                                9999uuuuuuuuuuuuuuuuuuuuuuuuuuuuuuuuPPPPPPPPPPPPPPPPPPPPPPPP<<<<                                ",
"                                9999uuuuuuuuuuuuuuuuuuuuuuuuuuuuuuuuPPPPPPPPPPPPPPPPPPPPPPPP<<<<                                ",
"                                9999uuuuuuuuuuuurysmmsteuuuuuuuuuuuuPPPPPPPPPPPPLGDDDDGLPPPP<<<<                                ",
"                                9999uuuuuuuuuuusBBBBBBBAyuuuuuuuuuuuPPPPPPPPPPPDBBBBBBBBGPPP<<<<                                ",
"                                9999uuuuuuuuuunBBBBBBBBBBduuuuuuuuuuPPPPPPPPPPBBBBBBBBBBBDPP<<<<                                ",
"                                9999uuuuuuuuusBBBBBBBBBBBByuuuuuuuuuPPPPPPPPPDBBBBBBBBBBBBGP<<<<                                ",
"                                <<<<PPPPPPPPGBBBvhg88gkNBBBLPPPPPPPPPPPPPPPPGBBBvhg88gkNBBBL<<<<                                ",
"                                <<<<PPPPPPPPDBN855555555hNBGPPPPPPPPPPPPPPPPDBN855555555hNBG<<<<                                ",
"                                <<<<PPPPPPPPBB85555555555kBDPPPPPPPPPPPPPPPPBB85555555555kBD<<<<                                ",
"                                <<<<PPPPPPPPBk555555555555vBPPPPPPPPPPPPPPPPBk555555555555vB<<<<                                ",
"                                <<<<PPPPPPPPv5555cITTIc5556NPPPPPPPPPPPPPPPPv5555cITTIc5556N<<<<                                ",
"                                <<<<PPPPPPPPk555kR!!!!R5555cPPPPPPPPPPPPPPPPk555kR!!!!R5555c<<<<                                ",
"                                <<<<PPPPPPPP6555I!!!!!!B555gPPPPPPPPPPPPPPPP6555I!!!!!!B555g<<<<                                ",
"                                <<<<PPPPPPPP5555R!!!!!!W5555PPPPPPPPPPPPPPPP5555R!!!!!!W5555<<<<                                ",
"                                <<<<<<<<-@@@5555!!!!!!!!5555@@@-<<<<<<<<-@@@5555!!!!!!!!5555====                                ",
"                                :<<<<<<<-@@@3555U!!!!!!U5554@@@-<<<<<<<<-@@@3555U!!!!!!U5554@@@@                                ",
"                                 <<<<<<<-@@@>555cW!!!!Wc555>@@@-<<<<<<<<-@@@>555cW!!!!Wc555>@@@O                                ",
"                                  :<<<<<-@@@%5555kT!!Tk5555%@@@-<<<<<<<<-@@@%5555kT!!Tk5555%@@@o                                ",
"                                         @@@@<555555555555>@@@@          @@@@<555555555555>@@@@                                 ",
"                                         X@@@@35555555555>@@@@X          X@@@@35555555555>@@@@O                                 ",
"                                          @@@@@>55555555=@@@@@            @@@@@>55555555=@@@@@                                  ",
"                                           @@@@@%255552$@@@@@              @@@@@%255552$@@@@@X                                  ",
"                                           X@@@@@@@@@@@@@@@@X              X@@@@@@@@@@@@@@@@X                                   ",
"                                             @@@@@@@@@@@@@+                  @@@@@@@@@@@@@+                                     ",
"                                              +@@@@@@@@@@O                    +@@@@@@@@@@O                                      ",
"                                                O@@@@@@o                        O@@@@@@o                                        ",
"                                                                                                                                ",
"                                                                                                                                ",
"                                                                                                                                ",
"                                                                                                                                ",
"                                                                                                                                ",
"                                                                                                                                ",
"                                                                                                                                ",
"                                                                                                                                ",
"                                                                                                                                ",
"                                                                                                                                ",
"                                                                                                                                ",
"                                                                                                                                ",
"                                                                                                                                ",
"                                                                                                                                ",
"                                                                                                                                ",
"                                                                                                                                ",
"                                                                                                                                ",
"                                                                                                                                ",
"                                                                                                                                ",
"                                                                                                                                ",
"                                                                                                                                ",
"                                                                                                                                ",
"                                                                                                                                ",
"                                                                                                                                "
};
