/* XPM */
static char *_1b2f31092af4a7ab6a97b0d1ed1d61f[] = {
/* columns rows colors chars-per-pixel */
"64 64 54 1 ",
"  c #BB6444",
". c #894630",
"X c #894730",
"o c #8A4630",
"O c #8A4730",
"+ c #8D4831",
"@ c #8E4931",
"# c #904A32",
"$ c #934C33",
"% c #9C5137",
"& c #9E5237",
"* c #9F5238",
"= c #A25439",
"- c #A8573B",
"; c #AB593D",
": c #AC5A3D",
"> c #AE5B3E",
", c #B15C3F",
"< c #B76041",
"1 c #BB6242",
"2 c #BB6243",
"3 c #BC6243",
"4 c #BC6343",
"5 c #BD6343",
"6 c #BE6444",
"7 c #B86949",
"8 c #B67050",
"9 c #B37757",
"0 c #B17F5E",
"q c #C06545",
"w c #C26545",
"e c #C26645",
"r c #C46746",
"t c #C56846",
"y c #C66847",
"u c #C86947",
"i c #CA6A48",
"p c #CB6B49",
"a c #CD6C49",
"s c #D16E4B",
"d c #D5704C",
"f c #D9734E",
"g c #C47855",
"h c #AE8665",
"j c #AC8D6B",
"k c #B6936F",
"l c #9DB994",
"z c #A4A380",
"x c #A2AB87",
"c c #A8AE89",
"v c #9AC19B",
"b c #98C8A2",
"n c #95CFA9",
"m c #93D7B0",
/* pixels */
"                                                                ",
"                                                                ",
"                                                                ",
"                                                                ",
"                                                                ",
"                                                                ",
"                                                                ",
"                                                                ",
"                                                                ",
"                                                                ",
"                                                                ",
"                                                                ",
"                                                                ",
"                                                                ",
"                                                                ",
"                                 OOOO                           ",
"                               OOOOOOOO                         ",
"                             OOO$1ff1$OOO                       ",
"                            OO$1ffffff1$OO                      ",
"                            O$ffffffffff$O                      ",
"                           OO:ffffffffff:OO                     ",
"                          OOO3affffffffa3OOO                    ",
"                        OOO$<116pdffdp611<$OOO                  ",
"                       OO$1fp11113pp31xx1pf1$OO                 ",
"                       O$fffq1111qppq0mm0qfff$O                 ",
"                       O:ffft1111uppu1jj1tfff:OO                ",
"                      OOtfffft113pppp311tfffftOO                ",
"                      O+fffffft1qppppq1tffffff+O                ",
"                      O%udffffftupppputfffffdu%OO               ",
"                     OO;11rsffffffffffffffsr11;OO               ",
"                     O+118116affffffffffa611111+O               ",
"                     O%1xn71113pdffffdp38111111%OO              ",
"                    OO:7vm9111113pppp319nx17h11:OO              ",
"                    O#117h111111qppppq1jmv8vmj11#O              ",
"                   OO*1111111111uppppu11h7lmmm01*OO             ",
"                  OOO,1111111113pppppp31119nmx11,OO             ",
"                OOO$1ffa6111111qppppppq11119z111-OO             ",
"               OO$1ffffffa61111uppppgpu11111111-OO              ",
"               O$ffffffffff6113ppppkmkp3111111-OOO              ",
"               O:ffffffffffu11qppppcmcpq11111-OOO               ",
"              OO3affffffffaq11upppppkppu1111-OOO                ",
"              O$116pdffdp61113pppppppppp311-OOO                 ",
"             OO=11113pp317x71qppppppppppq1-OOO                  ",
"             OO,1111qppq1lml1uppppppppppu-OOO                   ",
"             OO-1111uppu19b9-OOOOOOOOOOOOOOO                    ",
"              OO-113pppp311-OOOOOOOOOOOOOOO                     ",
"              OOO-1qppppq1-OO                                   ",
"               OOO-uppppu-OO                                    ",
"                OOOOOOOOOOOO                                    ",
"                 OOOOOOOOOO                                     ",
"                                                                ",
"                                                                ",
"                                                                ",
"                                                                ",
"                                                                ",
"                                                                ",
"                                                                ",
"                                                                ",
"                                                                ",
"                                                                ",
"                                                                ",
"                                                                ",
"                                                                ",
"                                                                "
};
