/* XPM */
static char *aigir_uzcqq[] = {
/* columns rows colors chars-per-pixel */
"64 64 120 2 ",
"   c #BC6C3A",
".  c #4F5353",
"X  c #505454",
"o  c #555959",
"O  c #595D5D",
"+  c #606565",
"@  c #6D6967",
"#  c #676C6C",
"$  c #686D6D",
"%  c #736F6C",
"&  c #75726F",
"*  c #6E7474",
"=  c #707575",
"-  c #757B7B",
";  c #797F7F",
":  c #9C5137",
">  c #96543D",
",  c #9A533A",
"<  c #A3553A",
"1  c #AA593C",
"2  c #9E5940",
"3  c #815F51",
"4  c #8C6657",
"5  c #886558",
"6  c #BE6443",
"7  c #BD6D4E",
"8  c #BB6E51",
"9  c #B67157",
"0  c #BF7051",
"q  c #B5735A",
"w  c #BA7358",
"e  c #BF795E",
"r  c #C26745",
"t  c #C46846",
"y  c #D5724D",
"u  c #DA744E",
"i  c #C06F50",
"p  c #C17152",
"a  c #DD7750",
"s  c #D47B59",
"d  c #DC7F5C",
"f  c #E27952",
"g  c #EF7F56",
"h  c #E17D58",
"j  c #A38173",
"k  c #DC805D",
"l  c #EC8159",
"z  c #D78667",
"x  c #C6937E",
"c  c #E78560",
"v  c #E48865",
"b  c #7B8282",
"n  c #808787",
"m  c #878E8E",
"M  c #998A83",
"N  c #958E89",
"B  c #8C9494",
"V  c #8F9898",
"C  c #949693",
"Z  c #989793",
"A  c #939C9C",
"S  c #9D9D99",
"D  c #A1A09C",
"F  c #97A1A1",
"G  c #99A4A4",
"H  c #9DA7A8",
"J  c #9DA8A8",
"K  c #AAA8A4",
"L  c #A4AEAE",
"P  c #ADAEAB",
"I  c #B4A8A1",
"U  c #B1AFAB",
"Y  c #B1B0AC",
"T  c #A5B1B1",
"R  c #AAB1B0",
"E  c #A8B2B2",
"W  c #ADB3B1",
"Q  c #AEB3B1",
"!  c #ADB4B3",
"~  c #ABB6B6",
"^  c #AAB6B7",
"/  c #ABB6B7",
"(  c #ABB7B7",
")  c #ACB5B5",
"_  c #ACB6B5",
"`  c #ACB7B6",
"'  c #ADB7B6",
"]  c #ACB7B7",
"[  c #AAB5B5",
"{  c #ACB8B8",
"}  c #ADB8B8",
"|  c #AEB9B9",
" . c #B7B8B4",
".. c #B8B8B5",
"X. c #B9BBB7",
"o. c #BABAB7",
"O. c #B1BDBD",
"+. c #B3BFBF",
"@. c #B4BFBF",
"#. c #BBBBB8",
"$. c #BBBCB8",
"%. c #C29582",
"&. c #CF9882",
"*. c #CF9883",
"=. c #CB9D8A",
"-. c #CA9E8B",
";. c #D09882",
":. c #C3A394",
">. c #B5C1C1",
",. c #B6C2C2",
"<. c #B7C3C3",
"1. c #B6C3C4",
"2. c #B7C4C4",
"3. c #B8C4C4",
"4. c #B9C4C4",
"5. c #B9C5C5",
"6. c #B9C6C6",
"7. c #BAC6C6",
"8. c #BBC7C7",
"9. c #BBC8C8",
/* pixels */
"                                                                                                                                ",
"                                                                                                                                ",
"                                                                                                                                ",
"                                                                                                                                ",
"                                                                                                                                ",
"                                                                                                                                ",
"                                                                                                                                ",
"                                                                                                                                ",
"                                                                                                                                ",
"                                                                                                                                ",
"                                                                                                                                ",
"                                                                                                                                ",
"                                                  # # # # # # # # # # # # # # # # # #                                           ",
"                                                # # * * * * * * * * * * * * * * * * # #                                         ",
"                                                # * H L L L L L L L L L L L L L L L m # #                                       ",
"                                                @ & K Y Y Y Y Y Y Y ` ` ` ` ` ` ` ` E m # #                                     ",
"                                                > 2 s k k k k k d z Y ~ ~ ~ ~ ~ ~ Y :.E m # #                                   ",
"                                                : < u f f f f f f d U ~ ~ ~ ~ ~ ~ Y v =.E m # #                                 ",
"                                                : < u f f f f f f k U ~ ~ ~ ~ ~ ~ Y c l =.L * #                                 ",
"                                                : < u f f f f f f k U ~ ~ ~ ~ ~ ~ Y c g l %.= #                                 ",
"                                  : : : : : : : : < u f f f f f f k U ~ ~ ~ ~ ~ ~ Y c g g h 5 #                                 ",
"                                : : < < < < < < < 1 u f f f f f f k U ~ ~ ~ ~ ~ ~ Y c g g f < 3                                 ",
"                                : < y u u u y y y y f f f f f f f k U ~ ~ ~ ~ ~ ~ Y c g g f < :                                 ",
"                                : < u f f f u u u u f f f f f f f k U ~ ~ ~ ~ ~ ~ Y c g g f < :                                 ",
"                                : < u f f f u u u u f f f f f f f k U ~ ~ ~ ~ ~ ~ Y c g l f < :                                 ",
"                                : < u f f f u u u u f f f f f f f k U ~ ~ ~ ~ ~ ~ Y c g g h < :                                 ",
"                                : < u f f f u u u u f f f f f f f d U ~ ~ ~ ~ ~ ~ Y c g g f < :                                 ",
"                                : < u f f f u u u a d k k k k k d z Y ~ ~ ~ ~ ~ ~ Y c g g f < :                                 ",
"                                : < u f f f u u u s I Y Y Y Y Y Y Y ~ ~ ~ ~ ~ ~ ~ ! *.l g f < :                                 ",
"                                : < u f f f u u u s I P P P P P P P ` ` ` | | | | | Q *.l f < :                                 ",
"                                : < u f f f u u u y p 0 0 8 8 0 8 e o.,.7.7.7.7.7.,.T Q ;.f < :                                 ",
"                                : < u f f f u u u y t r r r r r r p o.,.7.7.,.,.7.,.H L Q x < :                                 ",
"                                : < u f f f u u u y t r r r r r r p $.7.,.7.7.,.,.,.H G L L 4 :                                 ",
"                                : < u f f f u u u y t r r r r r r p o.7.7.7.7.7.7.,.H F G G = 3                                 ",
"                                : < u f f f u u u y t r r r r r r p o.2.7.7.7.7.7.,.H F F A * #                                 ",
"                                : < u f f f u u u y t r r r r r r p  .,.,.@.,.,.+.+.H F F A * #                                 ",
"                                : < u f f f u u u y t r r r r r r 8 D H H H H H H H G F F A * #                                 ",
"                                : < y a a a y y y y t r r r r r r 7 S F F F F F F F F F F A * #                                 ",
"                                : < r t t t t t t t r r r r r r r 7 S G F F F F G G F F G A * #                                 ",
"                                : < 6 r r r r r r 7 7 r r r r r r 7 S G F F F F F F F F G A * #                                 ",
"                                : < 6 r r r r 9 j M M j 8 r r r r 7 S G F F F F A A A A F A * #                                 ",
"                                > > 7 8 7 7 q N B B B V M 9 7 7 7 w S G F F F V V B B V A A * #                                 ",
"                                @ % Z S S S C m b ; ; b m C S S S S F F F F A m b b b b m V * #                                 ",
"                                # * A G G F B ; - b b - b B F G G G F F F F B ; - b b - ; m * #                                 ",
"                                # * A G G F b - V ~ ~ B - n F G G G G G F F b - V ~ ~ B - b * #                                 ",
"                                # * V A A V ; b ~ 7.8.E ; b V A A A A A A V ; b ` 7.9.E ; - # #                                 ",
"                                # # * * + O = b | 7.7.| b = O + * * * * + O = b | 7.7.| b = O O                                 ",
"                                  # # # O X # - V | | V - # X O # # # # O X # - V | | V - # X .                                 ",
"                                        X . O = - b b - * O X X         X . O = - b b - * O X .                                 ",
"                                          X X O # = = # o X X             X X O # = = # o X .                                   ",
"                                            X X X o o X X X                 X X X o o X X X                                     ",
"                                              X . X X . .                     X . X X . .                                       ",
"                                                                                                                                ",
"                                                                                                                                ",
"                                                                                                                                ",
"                                                                                                                                ",
"                                                                                                                                ",
"                                                                                                                                ",
"                                                                                                                                ",
"                                                                                                                                ",
"                                                                                                                                ",
"                                                                                                                                ",
"                                                                                                                                ",
"                                                                                                                                "
};
