/* XPM */
static char *cf1504227dd841f0b46777378fd40c39[] = {
/* columns rows colors chars-per-pixel */
"64 64 60 1 ",
"  c #BC6C3A",
". c #4B4E4E",
"X c #4F5252",
"o c #505353",
"O c #505454",
"+ c #545858",
"@ c #565A5A",
"# c #5D6262",
"$ c #626767",
"% c #666B6B",
"& c #676C6C",
"* c #676D6D",
"= c #6F6D6B",
"- c #686D6D",
"; c #7E6F67",
": c #776E69",
"> c #6B7171",
", c #6E7373",
"< c #727878",
"1 c #757B7B",
"2 c #777D7D",
"3 c #787E7E",
"4 c #9B5136",
"5 c #9C5236",
"6 c #9C5237",
"7 c #885C4B",
"8 c #BE694A",
"9 c #B86F54",
"0 c #AC735D",
"q c #BB755A",
"w c #C26745",
"e c #E27952",
"r c #A08377",
"t c #7B8181",
"y c #7B8282",
"u c #7E8484",
"i c #818888",
"p c #828A8A",
"a c #868D8D",
"s c #868E8E",
"d c #9A8981",
"f c #938F8B",
"g c #889090",
"h c #8B9393",
"j c #8D9595",
"k c #8E9696",
"l c #8E9797",
"z c #909898",
"x c #919A9A",
"c c #939B9B",
"v c #949E9E",
"b c #96A0A0",
"n c #98A2A2",
"m c #99A3A3",
"M c #A4AEAE",
"N c #A8B3B3",
"B c #ABB6B6",
"V c #B1BCBC",
"C c #B5C1C1",
"Z c #BAC6C6",
/* pixels */
"                                                                ",
"                                                                ",
"                                                                ",
"                                                                ",
"                                                                ",
"                                                                ",
"                                                                ",
"                                                                ",
"                                                                ",
"                                                                ",
"                                                                ",
"                                                                ",
"                                                                ",
"                       &----------------&                       ",
"                      -------------------&                      ",
"            555555557--iBBBBBBBBBBBBBBBB--5555                  ",
"           455555557--iBBBBBBBBBBBBBBBBB--55554                 ",
"           55eeeeeq--iBBBBBBBBBBBBBBBBBB----5555OOOOOOOOo       ",
"           55eeeee;-iBBBBBBBBBBBBBBBBBBB----5555OOOOOOOOOO      ",
"        &--55eeeee--mmmmmmmmBBBBBBBBBBBBmmmmeeee--------OO      ",
"       &---55eeeee--mmmmmmmmBBBBBBBBBBBBmmmmeeee--------OO      ",
"       --BBBBeeeee--mmmmmmmmBBBBBBBBBBBBmmmmeeee--------OO      ",
"       --BBBBeeeee--mmmmmmmmBBBBBBBBBBBBmmmmeeee--------OO      ",
"       --BBBBeeeee--BBBBBBBBBBBBBBBBBBBB----5555OOOOOOOOOo      ",
"       --BBBBeeeee--BBBBBBBBBBBBBBBBBBBB----5555OOOOOOOOo       ",
"       --BBBBeeeee--BBBBBBBBBBBBBBBBBBBB--eeeBBBB--             ",
"       --BBBBeeeee--BBBBBBBBBBBBBBBBBBBB--eeeBBBB--             ",
"       --BBBBeeeee--mmmmmmmmmmmmmmmmmmmm--eeeBBBB--             ",
"       --BBBBeeeee--mmmmmmmmmmmmmmmmmmmm--eeeBBBB--             ",
"       --BBBBeeeee--mmmmmmmmmmmmmmmmmmmm--eeeBBBB--             ",
"       --BBBBeeeee--mmmmmmmmmmmmmmmmmmmm--eeeBBBB--             ",
"       --BBBBeeeee:----------------------:eeeBBBB--             ",
"       --BBBBeeeee0=--------------------=0eeeBBBB--             ",
"       --BBBBwwwwwwwwwwwwwwwwwwwwwwwwwwwwwwwwBBBB--             ",
"       --BBBBwwwwwwwwwwwwwwwwwwwwwwwwwwwwwwwwBBBB--             ",
"       --BBBBwwwwwwwwwwwwwwwwwwwwwwwww9rddr9wBBBB--             ",
"       --BBBBwwwwwwwwwwwwwwwwwwwwwwww8fkkkkf8BBBB--             ",
"       --mmmmmmmmmmmmmmmmmmmmmmmmmmmmxguttugxmmma-&             ",
"       --mmmmmmmmmmmmmmmmmmmmmmmmmmmmg311113gmma--              ",
"       --mmmmmbxxxxbmmbxxxxbmmbxxxxbmt1aMNk1tma---              ",
"       --mmmmmkkkkkkmmkkkkkkmmkkkkkkm11CZZC11a---               ",
"       --mmmmxguttugxxguttugxxguttugx21VZZV11#%$                ",
"       --mmmmg311113gg311113gg311113gi1xCCx1>OX                 ",
"       --mmmmt1aMNk1tt1aMNk1tt1aMNk1tv21111<+O.                 ",
"       --mmmm11CZZC1111CZZC1111CZZC11mvt11,+Oo                  ",
"       &---+O<1VZZV11<1VZZV11<1VZZV11OOOOOOOX                   ",
"        &--+O&1xCCx1>&1xCCx1>&1xCCx1>OOOOOO.                    ",
"           .O+<1111<++<1111<++<1111<+O.                         ",
"            oO+,11,+OO+,11,+OO+,11,+Oo                          ",
"             XOOOOOOXXOOOOOOXXOOOOOOX                           ",
"              .oOOO.  .oOOO.  .oOOO.                            ",
"                                                                ",
"                                                                ",
"                                                                ",
"                                                                ",
"                                                                ",
"                                                                ",
"                                                                ",
"                                                                ",
"                                                                ",
"                                                                ",
"                                                                ",
"                                                                ",
"                                                                "
};
