/* XPM */
static char *f65516e83e63480da64851174bdeff61[] = {
/* columns rows colors chars-per-pixel */
"128 128 20 1 ",
"  c #BB6444",
". c #505353",
"X c #505454",
"o c #686D6D",
"O c #997F17",
"+ c #9A7F17",
"@ c #ffffff",
"# c #BF9B0F",
"$ c #B39212",
"% c #D7AD07",
"& c #D2AA0A",
"* c #D9AF09",
"= c #FFCC00",
"- c #147CA8",
"; c #157CA8",
": c #157DA8",
"> c #1993C6",
", c #1EA7E1",
"< c #99A3A3",
"1 c #FFD18B",
/* pixels */
"                                                                                                                                ",
"                                                                                                                                ",
"                                                                                                                                ",
"                                                                                                                                ",
"                                                                                                                                ",
"                                                                                                                                ",
"                                                                                                                                ",
"                                                                                                                                ",
"                                                                                                                                ",
"                                                                                                                                ",
"                                                                                                                                ",
"                                                                                                                                ",
"                                                                                                                                ",
"                                                                                                                                ",
"                                                                                                                                ",
"                                                                                                                                ",
"                                                                                                                                ",
"                                                                                                                                ",
"                                                                                                                                ",
"                                                                                                                                ",
"                                                                                                                                ",
"                                                                                                                                ",
"                                                                                                                                ",
"                                                                                                                                ",
"                                                                                                                                ",
"                                                                                                                                ",
"                                                                                                                                ",
"                                                                                                                                ",
"                                                                                                                                ",
"                                                                                                                                ",
"                                                                                                                                ",
"                                                                                                                                ",
"                                                                                                                                ",
"                                                                                                                                ",
"                                                                                                                                ",
"                                                                                                                                ",
"                                                                                                                                ",
"                                                                                                                                ",
"                                                                                                                                ",
"                                                                                                                                ",
"                                                          +@@@@@@@@@@+                                                          ",
"                                                         +@@@@@@@@@@@@@                                                         ",
"                                                        +@@@@@@@@@@@@@@+                                                        ",
"                                                       @@@@@@@@@@@@@@@@@+                                                       ",
"                                                      @@@@@#%%%%%%%%#@@@@+                                                      ",
"                                                     @@@@@#=%%%%%%%%=#@@@@+                                                     ",
"                                                    @@@@@&==%%%%%%%%==#@@@@@                                                    ",
"                                                    @@@@*===%%%%%%%%===#@@@@                                                    ",
"                                                    @@@$====11111111====@@@@                                                    ",
"                                                    @@@$====11111111====@@@@                                                    ",
"                                                    @@@$====11111111====@@@@                                                    ",
"                                                    @@@$====11111111====@@@@                                                    ",
"                                                  ::::::::::11111111::::::::::                                                  ",
"                                                 :::::::::::11111111:::::::::::                                                 ",
"                                                ::::::::::::11111111::::::::::::                                                ",
"                                                ::::::::::::11111111::::::::::::                                                ",
"                                                ::::,,,,,,,,,,,,,,,,,,,,,,,,::::                                                ",
"                                                ::::,,,,,,,,,,,,,,,,,,,,,,,,::::                                                ",
"                                                ::::,,,,,,,,,,,,,,,,,,,,,,,,::::                                                ",
"                                                ::::,,,,,,,,,,,,,,,,,,,,,,,,::::                                                ",
"                                                ::::>>>>>>>>,,,,,,,,>>>>>>>>::::                                                ",
"                                                ::::>>>>>>>>,,,,,,,,>>>>>>>>::::                                                ",
"                                                ::::>>>>>>>>,,,,,,,,>>>>>>>>::::                                                ",
"                                                ::::>>>>>>>>,,,,,,,,>>>>>>>>::::                                                ",
"                                                ::::>>>>,,,,,,,,,,,,,,,,>>>>::::                                                ",
"                                                ::::>>>>,,,,,,,,,,,,,,,,>>>>::::                                                ",
"                                                ::::>>>>,,,,,,,,,,,,,,,,>>>>::::                                                ",
"                                                ::::>>>>,,,,,,,,,,,,,,,,>>>>::::                                                ",
"                                                XXXXoooo<<<<<<<<<<<<<<<<ooooXXXX                                                ",
"                                                XXXXoooo<<<<<<<<<<<<<<<<ooooXXXX                                                ",
"                                                XXXXoooo<<<<<<<<<<<<<<<<ooooXXXX                                                ",
"                                                XXXXoooo<<<<<<<<<<<<<<<<ooooXXXX                                                ",
"                                                XXXXoooo,,,,,,,,,,,,,,,,ooooXXXX                                                ",
"                                                XXXXoooo,,,,,,,,,,,,,,,,ooooXXXX                                                ",
"                                                XXXXoooo,,,,,,,,,,,,,,,,ooooXXXX                                                ",
"                                                XXXXoooo,,,,,,,,,,,,,,,,ooooXXXX                                                ",
"                                                XXXXXXXX,,,,>>>>>>>>,,,,XXXXXXXX                                                ",
"                                                .XXXXXXX,,,,>>>>>>>>,,,,XXXXXXX.                                                ",
"                                                 XXXXXXX,,,,>>>>>>>>,,,,XXXXXXX                                                 ",
"                                                  .XXXXX,,,,>>>>>>>>,,,,XXXXX.                                                  ",
"                                                    XXXXooooXXXXXXXXooooXXXX                                                    ",
"                                                    XXXXooooXXXXXXXXooooXXXX                                                    ",
"                                                    XXXXooooXXXXXXXXooooXXXX                                                    ",
"                                                    XXXXooooXXXXXXXXooooXXXX                                                    ",
"                                                    XXXXXXXXXXXXXXXXXXXXXXXX                                                    ",
"                                                    XXXXXXXXXXXXXXXXXXXXXXX.                                                    ",
"                                                     XXXXXXXXXX  XXXXXXXXXX                                                     ",
"                                                      .XXXXXXX    .XXXXXX.                                                      ",
"                                                                                                                                ",
"                                                                                                                                ",
"                                                                                                                                ",
"                                                                                                                                ",
"                                                                                                                                ",
"                                                                                                                                ",
"                                                                                                                                ",
"                                                                                                                                ",
"                                                                                                                                ",
"                                                                                                                                ",
"                                                                                                                                ",
"                                                                                                                                ",
"                                                                                                                                ",
"                                                                                                                                ",
"                                                                                                                                ",
"                                                                                                                                ",
"                                                                                                                                ",
"                                                                                                                                ",
"                                                                                                                                ",
"                                                                                                                                ",
"                                                                                                                                ",
"                                                                                                                                ",
"                                                                                                                                ",
"                                                                                                                                ",
"                                                                                                                                ",
"                                                                                                                                ",
"                                                                                                                                ",
"                                                                                                                                ",
"                                                                                                                                ",
"                                                                                                                                ",
"                                                                                                                                ",
"                                                                                                                                ",
"                                                                                                                                ",
"                                                                                                                                ",
"                                                                                                                                ",
"                                                                                                                                ",
"                                                                                                                                ",
"                                                                                                                                ",
"                                                                                                                                ",
"                                                                                                                                "
};
