/* XPM */
static char *ahvig_e9b32[] = {
/* columns rows colors chars-per-pixel */
"64 64 181 2 ",
"   c #4F5454",
".  c #4E5455",
"X  c #505353",
"o  c #515353",
"O  c #555553",
"+  c #535655",
"@  c #525656",
"#  c #535656",
"$  c #525657",
"%  c #525757",
"&  c #5A5552",
"*  c #5B5652",
"=  c #5C5552",
"-  c #5E5652",
";  c #5F5652",
":  c #515758",
">  c #565A5A",
",  c #4A5B60",
"<  c #4B5B60",
"1  c #4B5C62",
"2  c #4C5E63",
"3  c #4D6066",
"4  c #5D6E74",
"5  c #5F7076",
"6  c #5E7177",
"7  c #646767",
"8  c #646867",
"9  c #666A69",
"0  c #666A6A",
"q  c #6D7373",
"w  c #627479",
"e  c #64777C",
"r  c #975F49",
"t  c #A66147",
"y  c #AF6246",
"u  c #AF6347",
"i  c #AB664D",
"p  c #A9674F",
"a  c #AA664E",
"s  c #B16245",
"d  c #B06246",
"f  c #B16246",
"g  c #B96140",
"h  c #BA6241",
"j  c #BA6341",
"k  c #BA6342",
"l  c #BA6343",
"z  c #BB6343",
"x  c #BC6443",
"c  c #BB6444",
"v  c #BC6444",
"b  c #BC6546",
"n  c #BC6C4A",
"m  c #BD6C4A",
"M  c #B87747",
"N  c #BD7E53",
"B  c #836C65",
"V  c #B27560",
"C  c #C17356",
"Z  c #C27356",
"A  c #C27558",
"S  c #C37559",
"D  c #C47558",
"F  c #DDBC0F",
"G  c #DFB411",
"H  c #DBB014",
"J  c #DCB61E",
"K  c #DBB621",
"L  c #F5C401",
"P  c #F6C400",
"I  c #F6C501",
"U  c #FFCD0A",
"Y  c #FFCD0C",
"T  c #E8C51E",
"R  c #E9C51F",
"E  c #FECF18",
"W  c #E6C82A",
"Q  c #C88B6B",
"!  c #CD9176",
"~  c #E7CB5D",
"^  c #EBCE5D",
"/  c #F0D258",
"(  c #FBCD6F",
")  c #FBCD7E",
"_  c #FCD07F",
"`  c #2D7695",
"'  c #277A9D",
"]  c #2D799A",
"[  c #2E7B9C",
"{  c #1B7BA3",
"}  c #127EAA",
"|  c #2C8495",
" . c #2D8598",
".. c #1380AF",
"X. c #1480AC",
"o. c #1480AD",
"O. c #1481AE",
"+. c #1581AE",
"@. c #1582AF",
"#. c #1380B0",
"$. c #1F8CB9",
"%. c #2B86A4",
"&. c #2B89AD",
"*. c #2D89AF",
"=. c #2E8AAE",
"-. c #2D89B0",
";. c #218CB9",
":. c #208EBC",
">. c #458E94",
",. c #1990C3",
"<. c #1891C3",
"1. c #1993C5",
"2. c #1993C6",
"3. c #1995C8",
"4. c #1995C9",
"5. c #1A95C9",
"6. c #1996CA",
"7. c #1A97CB",
"8. c #1A98CC",
"9. c #1C9ED5",
"0. c #2392C0",
"q. c #2B98C7",
"w. c #239FD3",
"e. c #259FD2",
"r. c #1DA1D9",
"t. c #1DA3DB",
"y. c #1CA3DC",
"u. c #1DA5DE",
"i. c #1DA5DF",
"p. c #1EA5DE",
"a. c #1EA5DF",
"s. c #32A0CE",
"d. c #25A0D4",
"f. c #2AA4D7",
"g. c #20A4DB",
"h. c #2BA7DA",
"j. c #2BA7DB",
"k. c #2CA7DB",
"l. c #34ABD8",
"z. c #37ACD8",
"x. c #1DA6E0",
"c. c #1CA7E1",
"v. c #1DA7E1",
"b. c #1EA7E1",
"n. c #1CA7E2",
"m. c #899DA3",
"M. c #889EA4",
"N. c #8DA3A9",
"B. c #8DA4AA",
"V. c #D29882",
"C. c #CBC78B",
"Z. c #D0C497",
"A. c #EAC98C",
"S. c #FFD28A",
"D. c #FFD18D",
"F. c #E8CD94",
"G. c #E6D591",
"H. c #E1CFB6",
"J. c #E1D3B7",
"K. c #E6D6C2",
"L. c #E6D9C3",
"P. c #E6DAC3",
"I. c #E6EDDE",
"U. c #F1E3DA",
"Y. c #DFE2E5",
"T. c #E0E3E8",
"R. c #F5E9E5",
"E. c #F8EFEC",
"W. c #FBF7E5",
"Q. c #FFFBE5",
"!. c #F9F0EE",
"~. c #F9F0EF",
"^. c #FAF0EE",
"/. c #FAF8EC",
"(. c #FBF9EC",
"). c #FCFAEF",
"_. c #FAF1F0",
"`. c #FAF4F3",
"'. c #FCFBF4",
"]. c #FCFBF5",
"[. c #FEFEF9",
/* pixels */
"c c c c c c c c c c c c c c c c c c c c c c c c c c c c c c c c c c c c c c c c c c c c c c c c c c c c c c c c c c c c c c c c ",
"c c c c c c c c c c c c c c c c c c c c c c c c c c c c c c c c c c c c c c c c c c c c c c c c c c c c c c c c c c c c c c c c ",
"c c c c c c c c c c c c c c c c c c c c c c c c c c c c c c c c c c c c c c c c c c c c c c c c c c c c c c c c c c c c c c c c ",
"c c c c c c c c c c c c c c c c c c c c c c c c c c c c c c c c c c c c c c c c c c c c c c c c c c c c c c c c c c c c c c c c ",
"c c c c c c c c c c c c c c c c c c c c c c c c c c c c c c c c c c c c c c c c c c c c c c c c c c c c c c c c c c c c c c c c ",
"c c c c c c c c c c c c c c c c c c c c c c c c c c c c c c c c c c c c c c c c c c c c c c c c c c c c c c c c c c c c c c c c ",
"c c c c c c c c c c c c c c c c c c c c c c c c c c c c c c c c c c c c c c c c c c c c c c c c c c c c c c c c c c c c c c c c ",
"c c c c c c c c c c c c c c c c c c c c c c c c c c c c c c c c c c c c c c c c c c c c c c c c c c c c c c c c c c c c c c c c ",
"c c c c c c c c c c c c c c c c c c c c c c c c c c c c c c c c c c c c c c c c c c c c c c c c c c c c c c c c c c c c c c c c ",
"c c c c c c c c c c c c c c c c c c c c c c c c c c c c c c c c c c c c c c c c c c c c c c c c c c c c c c c c c c c c c c c c ",
"c c c c c c c c c c c c c c c c c c c c c c c c c c c c c c c c c c c c c c c c c c c c c c c c c c c c c c c c c c c c c c c c ",
"c c c c c c c c c c c c c c c c c c c c c c c c c c c c c c c c c c c c c c c c c c c c c c c c c c c c c c c c c c c c c c c c ",
"c c c c c c c c c c c c c c c c c c c c c c c c c c c c c c c c c c c c c c c c c c c c c c c c c c c c c c c c c c c c c c c c ",
"c c c c c c c c c c c c c c c c c c c c c c c c c c c c c c c c c c c c c c c c c c c c c c c c c c c c c c c c c c c c c c c c ",
"c c c c c c c c c c c c c c c c c c c c c c c c c c c c c c c c c c c c c c c c c c c c c c c c c c c c c c c c c c c c c c c c ",
"c c c c c c c c c c c c c c c c c c c c c c c c c c c c c c c c c c c c c c c c c c c c c c c c c c c c c c c c c c c c c c c c ",
"c c c c c c c c c c c c c c c c c c c c c c c c c c c c c c c c c c c c c c c c c c c c c c c c c c c c c c c c c c c c c c c c ",
"c c c c c c c c c c c c c c c c c c c c c c c c c c c c c c c c c c c c c c c c c c c c c c c c c c c c c c c c c c c c c c c c ",
"c c c c c c c c c c c c c c c c c c c c c c c c c c c c c l l l l l l c c c c c c c c c c c c c c c c c c c c c c c c c c c c c ",
"c c c c c c c c c c c c c c c c c c c c c c c c c c c c l m A A A A m l c c c c c c c c c c c c c c c c c c c c c c c c c c c c ",
"c c c c c c c c c c c c c c c c c c c c c c c c c c c l M H.~.E.E.~.K.Q l c c c c c c c c c c c c c c c c c c c c c c c c c c c ",
"c c c c c c c c c c c c c c c c c c c c c c c c c c l ! L.].W.W.W.W.[.L.M l c c c c c c c c c c c c c c c c c c c c c c c c c c ",
"c c c c c c c c c c c c c c c c c c c c c c c c c c V.`.).~ J K K J ~ (.J.N v c c c c c c c c c c c c c c c c c c c c c c c c c ",
"c c c c c c c c c c c c c c c c c c c c c c c c l C R.(./ I G H H G I ^ '.U.C l c c c c c c c c c c c c c c c c c c c c c c c c ",
"c c c c c c c c c c c c c c c c c c c c c c c c l D _.G.I Y ( ) ) ( U E Q.~.D l c c c c c c c c c c c c c c c c c c c c c c c c ",
"c c c c c c c c c c c c c c c c c c c c c c c c l V T.C.F R _ D.D._ R W I.Y.V l c c c c c c c c c c c c c c c c c c c c c c c c ",
"c c c c c c c c c c c c c c c c c c c c c c c c B [ -.%.| >.A.S.S.A.>. .=.=.[ B c c c c c c c c c c c c c c c c c c c c c c c c ",
"c c c c c c c c c c c c c c c c c c c c c c x p ] } o.o.#.&.Z.F.F.Z.&...o.o.} ] p x c c c c c c c c c c c c c c c c c c c c c c ",
"c c c c c c c c c c c c c c c c c c c c c c x p ' o.9.t.t.g.l.z.z.l.g.t.t.9.o.' p x c c c c c c c c c c c c c c c c c c c c c c ",
"c c c c c c c c c c c c c c c c c c c c c c x p ' o.t.p.p.p.n.n.n.n.p.p.p.t.o.' p x c c c c c c c c c c c c c c c c c c c c c c ",
"c c c c c c c c c c c c c c c c c c c c c c x p ' o.2.7.7.7.p.n.n.p.7.7.7.2.o.' p x c c c c c c c c c c c c c c c c c c c c c c ",
"c c c c c c c c c c c c c c c c c c c c c c x p ' } ,.2.7.7.p.n.n.p.7.7.2.,.o.' p x c c c c c c c c c c c c c c c c c c c c c c ",
"c c c c c c c c c c c c c c c c c c c c c c x p ' o.,.7.y.p.n.n.n.n.p.y.7.,.o.' p x c c c c c c c c c c c c c c c c c c c c c c ",
"c c c c c c c c c c c c c c c c c c c c c c x p ` { ;.0.f.j.j.j.j.j.k.f.0.;.{ ` p x c c c c c c c c c c c c c c c c c c c c c c ",
"c c c c c c c c c c c c c c c c c c c c c c v y > , 4 e M.B.N.N.N.N.B.M.e 4 , > y v c c c c c c c c c c c c c c c c c c c c c c ",
"c c c c c c c c c c c c c c c c c c c c c c v y ; # 9 q m.B.N.N.N.N.B.m.q 9 # ; y v c c c c c c c c c c c c c c c c c c c c c c ",
"c c c c c c c c c c c c c c c c c c c c c c v y * # 9 w s.j.j.j.k.j.j.s.w 9 # * y v c c c c c c c c c c c c c c c c c c c c c c ",
"c c c c c c c c c c c c c c c c c c c c c c v y * # 7 6 d.n.p.p.p.p.n.d.6 7 # * y v c c c c c c c c c c c c c c c c c c c c c c ",
"c c c c c c c c c c c c c c c c c c c c c c v f ;   # 3 w.n.8.7.7.8.n.w.2 #   ; f v c c c c c c c c c c c c c c c c c c c c c c ",
"c c c c c c c c c c c c c c c c c c c c c c c c r ; X 1 q.e.:.$.$.:.e.q.1 X ; r c c c c c c c c c c c c c c c c c c c c c c c c ",
"c c c c c c c c c c c c c c c c c c c c c c c c c t * : 6 6 2 , , 2 6 6 : * t v c c c c c c c c c c c c c c c c c c c c c c c c ",
"c c c c c c c c c c c c c c c c c c c c c c c c v f * # 8 8 # X X # 8 8 # * f v c c c c c c c c c c c c c c c c c c c c c c c c ",
"c c c c c c c c c c c c c c c c c c c c c c c c v f ;   # #   O O   # #   ; f v c c c c c c c c c c c c c c c c c c c c c c c c ",
"c c c c c c c c c c c c c c c c c c c c c c c c c c r ; * * ; r r ; * * ; r c c c c c c c c c c c c c c c c c c c c c c c c c c ",
"c c c c c c c c c c c c c c c c c c c c c c c c c c c f y y f c c f y y f c c c c c c c c c c c c c c c c c c c c c c c c c c c ",
"c c c c c c c c c c c c c c c c c c c c c c c c c c c v v v v c c v v v v c c c c c c c c c c c c c c c c c c c c c c c c c c c ",
"c c c c c c c c c c c c c c c c c c c c c c c c c c c c c c c c c c c c c c c c c c c c c c c c c c c c c c c c c c c c c c c c ",
"c c c c c c c c c c c c c c c c c c c c c c c c c c c c c c c c c c c c c c c c c c c c c c c c c c c c c c c c c c c c c c c c ",
"c c c c c c c c c c c c c c c c c c c c c c c c c c c c c c c c c c c c c c c c c c c c c c c c c c c c c c c c c c c c c c c c ",
"c c c c c c c c c c c c c c c c c c c c c c c c c c c c c c c c c c c c c c c c c c c c c c c c c c c c c c c c c c c c c c c c ",
"c c c c c c c c c c c c c c c c c c c c c c c c c c c c c c c c c c c c c c c c c c c c c c c c c c c c c c c c c c c c c c c c ",
"c c c c c c c c c c c c c c c c c c c c c c c c c c c c c c c c c c c c c c c c c c c c c c c c c c c c c c c c c c c c c c c c ",
"c c c c c c c c c c c c c c c c c c c c c c c c c c c c c c c c c c c c c c c c c c c c c c c c c c c c c c c c c c c c c c c c ",
"c c c c c c c c c c c c c c c c c c c c c c c c c c c c c c c c c c c c c c c c c c c c c c c c c c c c c c c c c c c c c c c c ",
"c c c c c c c c c c c c c c c c c c c c c c c c c c c c c c c c c c c c c c c c c c c c c c c c c c c c c c c c c c c c c c c c ",
"c c c c c c c c c c c c c c c c c c c c c c c c c c c c c c c c c c c c c c c c c c c c c c c c c c c c c c c c c c c c c c c c ",
"c c c c c c c c c c c c c c c c c c c c c c c c c c c c c c c c c c c c c c c c c c c c c c c c c c c c c c c c c c c c c c c c ",
"c c c c c c c c c c c c c c c c c c c c c c c c c c c c c c c c c c c c c c c c c c c c c c c c c c c c c c c c c c c c c c c c ",
"c c c c c c c c c c c c c c c c c c c c c c c c c c c c c c c c c c c c c c c c c c c c c c c c c c c c c c c c c c c c c c c c ",
"c c c c c c c c c c c c c c c c c c c c c c c c c c c c c c c c c c c c c c c c c c c c c c c c c c c c c c c c c c c c c c c c ",
"c c c c c c c c c c c c c c c c c c c c c c c c c c c c c c c c c c c c c c c c c c c c c c c c c c c c c c c c c c c c c c c c ",
"c c c c c c c c c c c c c c c c c c c c c c c c c c c c c c c c c c c c c c c c c c c c c c c c c c c c c c c c c c c c c c c c ",
"c c c c c c c c c c c c c c c c c c c c c c c c c c c c c c c c c c c c c c c c c c c c c c c c c c c c c c c c c c c c c c c c ",
"c c c c c c c c c c c c c c c c c c c c c c c c c c c c c c c c c c c c c c c c c c c c c c c c c c c c c c c c c c c c c c c c "
};
