/* XPM */
static char *_f1e84805c854de583e5927231867df3[] = {
/* columns rows colors chars-per-pixel */
"64 64 134 2 ",
"   c #5C315F",
".  c #5E325F",
"X  c #6C3A57",
"o  c #67375A",
"O  c #60335C",
"+  c #62345C",
"@  c #64355D",
"#  c #65365E",
"$  c #653B5E",
"%  c #6A395B",
"&  c #6C3A5C",
"*  c #6E3A5C",
"=  c #743E51",
"-  c #773F52",
";  c #703C59",
":  c #723D5A",
">  c #572E61",
",  c #522C64",
"<  c #542D67",
"1  c #582F62",
"2  c #592F62",
"3  c #552D68",
"4  c #572E6A",
"5  c #592F6C",
"6  c #583162",
"7  c #5F3360",
"8  c #5F3660",
"9  c #59306D",
"0  c #5A306E",
"q  c #5B3170",
"w  c #5C3171",
"e  c #5E3273",
"r  c #5F3374",
"t  c #603360",
"y  c #683D61",
"u  c #693D62",
"i  c #603375",
"p  c #613477",
"a  c #633579",
"s  c #64367A",
"d  c #67377E",
"f  c #67387F",
"g  c #6C415C",
"h  c #7D4250",
"j  c #7F4351",
"k  c #7C4254",
"l  c #7E4355",
"z  c #7F4456",
"x  c #72465A",
"c  c #794158",
"v  c #7C4258",
"b  c #7F5056",
"n  c #A2563F",
"m  c #A8593D",
"M  c #A9593D",
"N  c #AA5A3D",
"B  c #AB5B3E",
"V  c #AC5B3E",
"C  c #AD5C3F",
"Z  c #AF5D3F",
"A  c #82454E",
"S  c #8D4A49",
"D  c #8E4B49",
"F  c #924D46",
"G  c #975044",
"H  c #9D5341",
"J  c #975048",
"K  c #9B5349",
"L  c #9A524E",
"P  c #9F544F",
"I  c #804451",
"U  c #834652",
"Y  c #864854",
"T  c #894950",
"R  c #8D4B52",
"E  c #934F50",
"W  c #865654",
"Q  c #985051",
"!  c #A15647",
"~  c #AD5C43",
"^  c #A0564C",
"/  c #A7594A",
"(  c #AD5D48",
")  c #B15E40",
"_  c #B35F41",
"`  c #9A654E",
"'  c #936050",
"]  c #97615F",
"[  c #A06B4C",
"{  c #B46041",
"}  c #B76142",
"|  c #B46046",
" . c #B86243",
".. c #B96343",
"X. c #BB6444",
"o. c #B47A46",
"O. c #AB7059",
"+. c #AF725D",
"@. c #804F60",
"#. c #C26746",
"$. c #BB8044",
"%. c #693881",
"&. c #6A3982",
"*. c #6B3A83",
"=. c #6C3A84",
"-. c #6D3B85",
";. c #6E3B87",
":. c #713D8B",
">. c #723D8B",
",. c #723D8C",
"<. c #743E8E",
"1. c #753F8F",
"2. c #764091",
"3. c #794194",
"4. c #7C4398",
"5. c #7C4399",
"6. c #7D449A",
"7. c #7E449B",
"8. c #7F449B",
"9. c #7F459C",
"0. c #80459C",
"q. c #80459D",
"w. c #81469E",
"e. c #82469F",
"r. c #8246A0",
"t. c #8347A1",
"y. c #8447A2",
"u. c #8548A3",
"i. c #8648A4",
"p. c #8749A5",
"a. c #8849A6",
"s. c #894AA7",
"d. c #8A4AA8",
"f. c #8B4BAA",
/* pixels */
"X.X.X.X.X.X.X./ ; & & z | X.X.X.X.X.X.X.X.X.X.X.X.X.X.X.X.| z & & z | X.X.X.X.X.X.X.X.X.X.X.X.X.X.X.X.X.X.X.X.X.X.X.X.X.X.X.X.X.",
"X.X.X.X.X.X.E , , , , , 2 / X.X.X.X.X.X.X.X.X.X.X.X.X.X.| @ , , , , @ | X.X.X.X.X.X.X.X.X.X.X.X.X.X.X./ ; & & z | X.X.X.X.X.X.X.",
"X.X.X.X.X.^ , , d 3.2.9 , 2 | X.X.X.X.X.X.X.X.X.X.X.X.X.& , w 4.4.w , & X.X.X.X.X.X.X.X.X.X.X.X.X.X.E , , , , , 2 / X.X.X.X.X.X.",
"X.X.X.X.X.& , d 4.4.4.3.4 , Y X.X.X.X.X.X.X.X.X.X.X.X.L , 4 p.f.f.p.4 , L X.X.X.X.X.X.X.X.X.X.X.X.^ , , d 3.2.9 , 2 | X.X.X.X.X.",
"X.X.X.X.( , 4 4.4.4.4.4.>., t #.X.X.X.X.X.X.X.X.X.X.X.@ , =.f.f.f.f.=., @ X.X.X.X.X.X.X.X.X.X.X.X.& , d 4.4.4.3.4 , Y X.X.X.X.X.",
"X.X.X.X.z , =.4.4.4.4.4.4.w , P X.X.X.X.X.X.X.X.X.X./ , , p.f.f.f.f.p., , / X.X.X.X.X.X.X.X.X.X.( , 4 4.4.4.4.4.>., 7 X.X.X.X.X.",
"X.X.X.X.7 < 4.4.4.4.4.4.4.=., v X.X.X.X.X.X.X.X.X.X.Y , a f.f.f.f.f.f.a , Y X.X.X.X.X.X.X.X.X.X.z , =.4.4.4.4.4.4.w , L X.X.X.X.",
"X.X.X./ , r 4.4.4.4.4.4.4.4.< 2 X.X.X.X.X.X.X.X.X.X.; , >.f.f.f.f.f.f.=., ; X.X.X.X.X.X.X.X.X.X.7 < 4.4.4.4.4.4.4.=., c X.X.X.X.",
"X.X.X.Y , %.4.4.4.4.4.4.4.4.r , ^ X.X.X.X.X.X.X.X.X.2 , q.f.f.f.f.f.f.4., 2 X.X.X.X.X.X.{ { { ! , r 4.4.4.4.4.4.4.4.< 2 X.X.X.X.",
"X.X.X.& , <.4.4.4.4.4.4.4.4.%., Y X.X.X.X.X.X.X.X.( , 4 f.f.f.f.f.f.f.f., , ( X.X.X.X.X.{ { { U , %.4.4.4.4.4.4.4.4.r , ^ X.X.X.",
"X.X.X.7 < 4.4.4.4.4.4.4.4.4.<., c X.X.X.X.X.X.X.X.^ , i f.f.f.f.f.f.f.f.5 , ^ X.X.X.X.X.{ { { % , <.4.4.4.4.4.4.4.4.%., Y X.X.X.",
"X.X.| , r y.q.7.4.4.4.4.9.q.u., @ X.X.X.X.X.X.X.X.Y , %.f.f.f.f.f.f.f.f.i , Y X.X.X.X.X.{ { {   < 4.4.4.4.4.4.4.4.4.<., c X.X.X.",
"{ { K , =.f.f.f.f.f.f.f.f.f.f.w , X.X.X.X.X.X.X.X.z , =.f.f.f.f.f.f.f.f.d , z X.X.X.X.X.X.X.| , r y.q.7.4.4.4.4.9.q.u., @ { { { ",
"{ { U , >.f.f.f.f.f.f.f.f.f.f.d , ^ X.X.X.X.X.X.X.& , 4.f.f.f.f.f.f.f.f.=., & X.X.X.X.X.X.X.^ , =.f.f.f.f.f.f.f.f.f.f.w , { { { ",
"{ { ; , 4.f.f.f.f.f.f.f.f.f.f.=., R X.X.X.X.X.X.X.& , 4.f.f.f.f.f.f.f.f.=., & X.X.X.X.X.X.X.Y , >.f.f.f.f.f.f.f.f.f.f.d , K { { ",
"{ { @ , f.f.f.f.f.f.f.f.f.f.f.3., z X.X.X.X.X.X.X.@ , q.f.f.f.f.f.f.f.f.3., @ X.X.X.X.X.X.X.; , 4.f.f.f.f.f.f.f.f.f.f.=., T { { ",
"{ { , 4 f.f.f.f.f.f.f.f.f.f.f.t., & X.X.X.X.X.X.X., , f.f.f.f.f.f.f.f.f.4., , X.X.X.X.X.X.X.@ , f.f.f.f.f.f.f.f.f.f.f.3., l { { ",
"{ ~ , w s.f.f.f.f.f.f.f.f.f.f.y., @ X.X.X.X.X.X.X., , f.f.f.f.f.f.f.f.f.3., , & z | X.X.X.X., 4 f.f.f.f.f.f.f.f.f.f.f.t., % { { ",
"{ K , p 4.q.p.f.f.f.f.f.f.u.7.4.4 , X.X.X.X.X.X.X., , f.f.f.f.f.f.f.f.<., , , , , 2 / X.X.| , w s.f.f.f.f.f.f.f.f.f.f.y., @ { { ",
"{ K , d 4.4.4.4.9.9.9.9.4.4.4.4.w , X.X.X.X.X.X.X., , f.f.f.f.f.f.f.4., , d 3.2.9 , 2 | X.^ , p 4.q.p.f.f.f.f.f.f.u.7.4.4 , { { ",
"X.Y , d 4.4.4.4.4.4.4.4.4.4.4.4.w , ^ | z & & z | , , f.f.f.f.f.f.f.i , d 4.4.4.3.4 , Y X.^ , d 4.4.4.4.9.9.9.9.4.4.4.4.w , X.X.",
"X.Y , =.4.4.4.4.4.4.4.4.4.4.4.4.d , L @ , , , , @ , , t.f.f.f.f.f.t., 4 4.4.4.4.4.>., 7 X.Y , d 4.4.4.4.4.4.4.4.4.4.4.4.w , ^ X.",
"X.Y , ,.4.4.4.4.4.4.4.4.4.4.4.4.f , 2 , w 4.4.w , , , =.f.f.f.f.f.%., =.4.4.4.4.4.4.w , L Y , =.4.4.4.4.4.4.4.4.4.4.4.4.d , ^ X.",
"X.z , 3.4.4.4.4.4.4.4.4.4.4.4.4.=., , 4 p.f.f.p.4 , , , q.f.f.f.f.5 < 4.4.4.4.4.4.4.=., c Y , ,.4.4.4.4.4.4.4.4.4.4.4.4.f , ^ X.",
"X.& , 4.p.7.4.4.4.4.4.4.4.4.9.s.=., , =.f.f.f.f.=., , , 5 3.f.f.q., r 4.4.4.4.4.4.4.4.< 2 z , 3.4.4.4.4.4.4.4.4.4.4.4.4.=., L X.",
"X.& , f.f.f.y.q.9.9.9.9.t.u.f.f.=., , p.f.f.f.f.p., , > , , ] +.@., %.4.4.4.4.4.4.4.4.r , , , 4.p.7.4.4.4.4.4.4.4.4.9.s.=., Y X.",
"X.& , f.f.f.f.f.f.f.f.f.f.f.f.f.=., a f.f.f.f.f.f.a , h O , ' $.g , <.4.4.4.4.4.4.4.4.%., , , f.f.f.y.q.9.9.9.9.t.u.f.f.=., Y X.",
"X.& , f.f.f.f.f.f.f.f.f.f.f.f.f.a , >.f.f.f.f.f.f.=., X = , $ ' 8 < 4.4.4.4.4.4.4.4.4.<., , , f.f.f.f.f.f.f.f.f.f.f.f.f.=., Y X.",
"X.& , f.f.f.f.f.f.f.f.f.f.f.f.f.4 , q.f.f.f.f.f.f.4., > H > , , , r y.q.7.4.4.4.4.9.q.u., , , f.f.f.f.f.f.p.%.i i %.p.f.=., Y X.",
"X.& , p.f.f.f.f.f.f.f.f.f.f.f.t., 4 f.f.f.f.f.f.f.f., , H H = + , =.f.f.f.f.f.f.f.f.f.f.w , , f.f.f.f.f.p.w , , , , w p.=., Y X.",
"X.& , 9.f.f.f.f.f.f.f.f.f.f.f.4., i f.f.f.f.f.f.f.f.5 , F m m h , >.f.f.f.f.f.f.f.f.f.f.d , , p.f.f.f.f.i , w 4.4.w , i =., Y X.",
"X.& , 2.y.f.f.f.f.f.f.f.f.f.f.%., %.f.f.f.f.f.f.f.f.i , U m m X , 4.f.f.f.f.f.f.f.f.f.f.=., , 9.f.f.f.3., 4 p.f.f.p.4 , 9 , Y X.",
"X.z , =.4.q.f.f.f.f.f.f.p.%.r 4 , =.f.f.f.f.f.f.f.f.d , z X.X.@ , f.f.f.f.f.f.f.f.f.f.f.3., , 2.y.f.f.w , =.f.f.f.f.=., , , Y X.",
"X.L , w 4.4.4.q.y.p.p.t.q , , , , w p.f.f.f.f.f.f.f.=., & X.X., 4 f.f.f.f.f.f.f.f.f.f.f.t., , =.4.q.7., , p.f.f.f.f.p., , , L X.",
"X.X.7 , >.4.4.4.4.4.4.w , w 4.4.w , i f.f.f.f.f.f.f.=., & X.| , w s.f.f.f.f.f.f.f.f.f.f.y., , w 4.4.d , a f.f.f.f.f.f.a , , | X.",
"X.X.L , < <.4.4.4.4.=., 4 p.f.f.p.4 , 3.f.f.f.f.f.f.3., @ X.^ , p 4.q.p.f.f.f.f.f.f.u.7.4.4 , , >.4.r , >.f.f.f.f.f.f.=., & X.X.",
"X.X.X.z , , %.4.4.4.9 , =.f.f.f.f.=., w f.f.f.f.f.f.4., , X.^ , d 4.4.4.4.9.9.9.9.4.4.4.4.w , , < <.< , q.f.f.f.f.f.f.4., 2 X.X.",
"X.X. .Z A , , y O.] , , p.f.f.f.f.p., , q.f.f.f.f.f.4., , X.Y , d 4.4.4.4.4.4.4.4.4.4.4.4.w , @ , , , 4 f.f.f.f.f.f.f.f., , ( X.",
"X. .m m m S , g $.W , a f.f.f.f.f.f.a , =.f.f.f.f.f.4., , X.Y , =.4.4.4.4.4.4.4.4.4.4.4.4.d , J A , , i f.f.f.f.f.f.f.f.5 , ^ X.",
"X.V m m m F , $ $.x , >.f.f.f.f.f.f.=., a f.f.f.f.f.4., , X.Y , ,.4.4.4.4.4.4.4.4.4.4.4.4.f , F m h , %.f.f.f.f.f.f.f.f.i , Y X.",
"X.m m m m m > , ` 6 , q.f.f.f.f.f.f.4., 4 f.f.f.f.f.4., , X.z , 3.4.4.4.4.4.4.4.4.4.4.4.4.=., S m = , =.f.f.f.f.f.f.f.f.d , l X.",
"X.m m m m m h , , , 4 f.f.f.f.f.f.f.f., , t.f.f.f.f.4., 2 X.& , 4.p.7.4.4.4.4.4.4.4.4.9.s.=., h m o , 4.f.f.f.f.f.f.f.f.=., o X.",
"X.Z m m m m m h , , i f.f.f.f.f.f.f.f.5 , 4.f.f.f.f.=., ; X.& , f.f.f.y.q.9.9.9.9.t.u.f.f.=., h m o , 4.f.f.f.f.f.f.f.f.=., o X.",
"X. .m m m m m m = , %.f.f.f.f.f.f.f.f.i , =.f.f.f.p.4 , ^ X.& , f.f.f.f.f.f.f.f.f.f.f.f.f.=., h m + , q.f.f.f.f.f.f.f.f.3., @ X.",
"X.X. .Z m m m m = , =.f.f.f.f.f.f.f.f.d , %.f.f.<.5 , & X.X.& , f.f.f.f.f.f.f.f.f.f.f.f.f.=., h m , , f.f.f.f.f.f.f.f.f.4., , X.",
"X.X.X.X.X._ V m o , 4.f.f.f.f.f.f.f.f.=., y +.@., ,   H { X.& , f.f.f.f.f.f.f.f.f.f.f.f.f.=., h m , , f.f.f.f.f.f.f.f.f.4., , X.",
"X.X.X.X.X.X.X.X.& , 4.f.f.f.f.f.f.f.f.=., g $.b , + n m m X.& , p.f.f.f.f.f.f.f.f.f.f.f.f.=., Y X., , f.f.f.f.f.f.f.f.f.4., , X.",
"X.X.X.X.X.X.X.X.@ , q.f.f.f.f.f.f.f.f.3., $ [ , , = m m m X.& , 9.f.f.f.f.f.f.f.f.f.f.f.f.%., Y X., , f.f.f.f.f.f.f.f.f.4., , X.",
"X.X.X.X.X.X.X.X., , f.f.f.f.f.f.f.f.f.4., , , ,   H m m m X.& , 2.y.f.f.f.f.f.f.f.f.f.f.q.d , Y X., , f.f.f.f.f.f.f.f.f.4., , X.",
"X.X.X.X.X.X.X.X., , f.f.f.f.f.f.f.f.f.4., , o = n m m m _ X.z , =.4.q.f.f.f.f.f.f.f.s.9.4.w , L X., , t.f.f.f.f.f.f.f.f.4., 2 X.",
"X.X.X.X.X.X.X.X., , f.f.f.f.f.f.f.f.f.4., , m m m m m _ X.X.L , w 4.4.4.q.y.p.p.u.7.4.4.3., , | X.& , =.f.f.f.f.f.f.f.f.=., ; X.",
"X.X.X.X.X.X.X.X., , f.f.f.f.f.f.f.f.f.4., , m m m _  .X.X.X.X.7 , >.4.4.4.4.4.4.4.4.4.4.s , c X.X.E , , q.f.f.f.f.f.f.p.4 , ^ X.",
"X.X.X.X.X.X.X.X., , f.f.f.f.f.f.f.f.f.4., , X.X.X.X.X.X.X.X.X.L , < <.4.4.4.4.4.4.4.4.%., 2 ( X.X.X.@ , 5 3.f.f.f.f.<.5 , & X.X.",
"X.X.X.X.X.X.X.X., , t.f.f.f.f.f.f.f.f.4., 2 X.X.X.X.X.X.X.X.X.X.z , , %.4.4.4.4.4.2.r , , L X.X.X.{ n   , , ] +.+.@., ,   H { X.",
"X.X.X.X.X.X.X.X.& , =.f.f.f.f.f.f.f.f.=., ; X.X.X.X.X.X.X.X.X. .Z A , , y O.O.O.O., , > S _ X.X.X.m m m + , ' $.$.b , + n m m X.",
"X.X.X.X.X.X.X.X.Q , , q.f.f.f.f.f.f.p.4 , ^ X.X.X.X.X.X.X.X. .m m m S , g $.$.$.$., , H m m m  .X.m m m = , $ ' [ , , = m m m X.",
"X.X.X.X.X.X.X.X.X.@ , 5 3.f.f.f.f.<.5 , & X.X.X.{ { { { X.X.V m m m F , $ $.$.$.o., , m m m m Z X.m m m H > , , , ,   H m m m X.",
"X.X.X.X.X.X.X.X.{ n   , , ] +.+.@., ,   H { X.X.{ { { { X.X.m m m m m > , ` $.o.W , X m m m m m X._ m m m H = o o = n m m m _ X.",
"X.X.X.X.X.X.X.X.m m m + , ' $.$.b , + n m m X.X.{ { { { X.X.m m m m m h , , , , , > H m m m m m X.X._ m m m m m m m m m m _ X.X.",
"X.X.X.X.X.X.X.X.m m m = , $ ' [ , , = m m m X.X.{ { { { X.X.Z m m m m m h , , , > S m m m m m Z X.X.X. ._ m m m m m m _  .X.X.X.",
"X.X.X.X.X.X.X.X.m m m H > , , , ,   H m m m X.X.X.X.X.X.X.X. .m m m m m m G F F H m m m m m m  .X.X.X.X.X.X.X.X.X.X.X.X.X.X.X.X.",
"X.X.X.X.X.X.X.X._ m m m H = o o = n m m m _ X.X.X.X.X.X.X.X.X. .Z m m m m m m m m m m m m _ X.X.X.X.X.X.X.X.X.X.X.X.X.X.X.X.X.X.",
"X.X.X.X.X.X.X.X.X._ m m m m m m m m m m _ X.X.X.X.X.X.X.X.X.X.X.X.X._ V m m m m m m V _ X.X.X.X.X.X.X.X.X.X.X.X.X.X.X.X.X.X.X.X.",
"X.X.X.X.X.X.X.X.X.X. ._ m m m m m m _  .X.X.X.X.X.X.X.X.X.X.X.X.X.X.X.X.X.X.X.X.X.X.X.X.X.X.X.X.X.X.X.X.X.X.X.X.X.X.X.X.X.X.X.X."
};
