/* XPM */
static char *_6d6b273b1fc49febf2b9124d428ef40[] = {
/* columns rows colors chars-per-pixel */
"64 64 55 1 ",
"  c None",
". c #6F4C26",
"X c #775229",
"o c #79522A",
"O c #7B532B",
"+ c #7A542A",
"@ c #7B542B",
"# c #613478",
"$ c #613578",
"% c #613479",
"& c #613579",
"* c #623578",
"= c #623479",
"- c #623579",
"; c #64367C",
": c #65367C",
"> c #67377F",
", c #6E4452",
"< c #7D4C68",
"1 c #9F6C39",
"2 c #B37A40",
"3 c #BB8044",
"4 c #683880",
"5 c #693982",
"6 c #6B3A84",
"7 c #6E3B88",
"8 c #713D8B",
"9 c #713D8C",
"0 c #733E8E",
"q c #753F8F",
"w c #784093",
"e c #794194",
"r c #794195",
"t c #7B4297",
"y c #7E449B",
"u c #874D8A",
"i c #80459D",
"p c #81459F",
"a c #81469F",
"s c #8346A0",
"d c #8547A2",
"f c #8548A3",
"g c #8849A6",
"h c #8B4AAA",
"j c #8B4BAA",
"k c #8C4BAB",
"l c #8D4CAD",
"z c #8E4CAE",
"x c #8F4DAF",
"c c #904DB0",
"v c #914EB2",
"b c #924EB3",
"n c #934FB4",
"m c #944FB5",
"M c #9550B6",
/* pixels */
"                                                                ",
"                                                                ",
"                                                                ",
"                                                                ",
"                                                                ",
"                                                                ",
"                                                                ",
"                                                                ",
"                                                                ",
"                                                                ",
"                            ******                              ",
"                         ************                           ",
"                        ***7pgzzgp7***                          ",
"                       **6gMMMMMMMMg6**                         ",
"                      **qMMMMMMMMMMMMq**                        ",
"                     **6MMMMMMMMMMMMMM6**                       ",
"                     *:zMMMMMMMMMMMMMMz:*                       ",
"                    **yMMMMMMMMMMMMMMMMy**                      ",
"                    *:vMMMMMMMMMMMMMMMMv:*                      ",
"                    *wMMMMMMMMMMMMMMMMMMw*                      ",
"                    *eznMMMMMMMMMMMMMMnze**                     ",
"                   **pjjzzvnMMMMMMnvzzjjp**                     ",
"                   **sjjjjjjjjjjjjjjjjjjs**                     ",
"                   **jjjjjjjjjjjjjjjjjjjj**                     ",
"                   **jjjjjjjjjjjjjjjjjjjj**                     ",
"                   **ejjjjjjjjjjjjjjjjjje**                     ",
"                    *:gjjjjjjjjjjjjjjjjg:*                      ",
"                    **:sjjjjjjjjjjjjjjs:**                      ",
"                     ***0fjjjjjjjjjjf0***                       ",
"                      ***:0pjjjjjjp0:******                     ",
"                        *****3333**7dgvgp5**                    ",
"                           ,,3333*0MMMMMMv5*                    ",
"                           @@3333*jMMMMMMMy**                   ",
"                           @@33330MMMMMMMMM:*                   ",
"                           @@3333pMMMMMMMMme*                   ",
"                           @@3333gkzvvvvvzje*                   ",
"                           @@3333jjjjjjjjjjp**                  ",
"                           @@3333fjjjjjjjjje**                  ",
"                           @@33335gjjjjjjjs:*                   ",
"                           @@3333*:efjjju8:**                   ",
"                           @@3333****33@@***                    ",
"                           @@3333***<33@@*                      ",
"                           @@3333333333@@                       ",
"                           @@3333333331@@                       ",
"                           @@3333@@@@@@@                        ",
"                           @@3333@@@@@o                         ",
"                           @@3333@@                             ",
"                           @@3333@@                             ",
"                           @@2333@@                             ",
"                           X@1331@o                             ",
"                            @@@@@@.                             ",
"                            .o@@o                               ",
"                                                                ",
"                                                                ",
"                                                                ",
"                                                                ",
"                                                                ",
"                                                                ",
"                                                                ",
"                                                                ",
"                                                                ",
"                                                                ",
"                                                                ",
"                                                                "
};
