/* XPM */
static char *fd0b9a50d9bf44d2bba5cb8e4222a086[] = {
/* columns rows colors chars-per-pixel */
"64 64 40 1 ",
"  c #A8593C",
". c #A9593C",
"X c #AA5A3D",
"o c #AB5A3D",
"O c #AB5B3D",
"+ c #AC5B3E",
"@ c #AD5C3E",
"# c #AE5C3E",
"$ c #AF5D3F",
"% c #B05D3F",
"& c #B15E3F",
"* c #A75F44",
"= c #B15E40",
"- c #B25F40",
"; c #B35F41",
": c #A7654D",
"> c #B46041",
", c #B56041",
"< c #B66142",
"1 c #B76142",
"2 c #B86142",
"3 c #B86243",
"4 c #B96343",
"5 c #BB6343",
"6 c #BB6444",
"7 c #BE6544",
"8 c #A6715F",
"9 c #A67768",
"0 c #A57E70",
"q c #C26746",
"w c #A58479",
"e c #A58A82",
"r c #A4908B",
"t c #A49694",
"y c #9BB3BE",
"u c #A3A3A5",
"i c #A2AFB7",
"p c #A2B5C0",
"a c #A2BCC9",
"s c #AAC6D4",
/* pixels */
"6666666666666666666666666666666666666666666666666666666666666666",
"6666666666666666666666666666666666666666666666666666666666666666",
"6666666666666666666666666666666666666666666666666666666666666666",
"6666666666666666666666666666666666666666666666666666666666666666",
"666666666666666666666666666666666666666666666666666666666666>>>>",
"666666666666666666666666666666666666666666666666666666666666>>>>",
"666666666666666666666666666666666666666666666666666666666666>>>>",
"666666666666666666666666666666666666666666666666666666666666>>>>",
"6666666666666666666666666666qqqq66666666666666666666666666666666",
"6666666666666666666666666666qqqq66666666666666666666666666666666",
"6666666666666666666666666666qqqq66666666666666666666666666666666",
"6666666666666666666666666666qqqq66666666666666666666666666666666",
"66666666>>>>66666666666666666666666666666666666666666666qqqq6666",
"66666666>>>>66666666666666666666666666666666666666666666qqqq6666",
"66666666>>>>66666666666666666666666666666666666666666666qqqq6666",
"66666666>>>>66666666666666666666666666666666666666666666qqqq6666",
"6666666666666666qqqqqqqq6666666666666666666666666666666666666666",
"666666662;;#++++####&>276666666666666666666666666666666666666666",
"6666>;#                  #;2666666666666666666666666666666666666",
"62;+    :8etuuuuuuuute8:    +;6666666666666666666666666666666666",
"#    0tiaaaaaaaaaaaaaaaait0    #;>>>6666666666666666666666666666",
"  8taaaaaaaaaaaaaaaaaaaaaaaat8   #;>66666666666666666666666662;+",
"0iaaaaaaaaaayyyyaaaaaaaaaaaaaai0   #266666666666666666666662;   ",
"aaaaaaaaaaaayyyyaaaaaaaaaaaaaaaat0   #>666666666666666666>#   0t",
"aaaaaaaaaaaayyyyaaaaaaaaaaaaaaaaaau8    #;266666666662;#    8uaa",
"aaaaaaaaaaaayyyyaaaaaaaaaaaaaaaaaaaape:     ++++++++     :epaaaa",
"aaaaaassssaaaaaaaaaaaaaaaaaaaaaaaaaaaaaie0*          *0eiaaaaaaa",
"aaaaaassssaaaaaaaaaaaaaaaaaaaaaaaaaaaaaaaaapuuuuuuuupaaaaaaaaaaa",
"aaaaaassssaaaaaaaaaaaaaaaaaaaaaaaaaaaaaaaaaaaaaaaaaaaaaaaaaaaaaa",
"aaaaaassssaaaaaaaaaaaaaaaaaaaaaaaaaaaaaaaaaaaaaaaaaaaaaaaaaaaaaa",
"aaaaaaaaaaaaaaaaaaaaaaaaaaaaaaaaaaaaaaaaaaaaaaaaaaaaaaaaaaaaaaaa",
"aaaaaaaaaaaaaaaaaaaaaaaaaaaaaaaaaaaaaaaaaaaaaaaaaaaaaaaaaaaaaaaa",
"aaaaaaaaaaaaaaaaaaaaaaaaaaaaaaaaaaaaaaaaaaaaaaaaaaaaaaaaaaaaaaaa",
"aaaaaaaaaaaaaaaaaaaaaaaaaaaaaaaaaaaaaaaaaaaaaaaaaaaaaaaaaaaaaaaa",
"aaaaaaaaaaaaaaaaaaaaaaaaaaaaaaaaaaaaaaaaaaaaaaaaaaaaaaaaaaaaaaaa",
"aaaaaaaaaaaaaaaaaaaaaaaaaaaaaaaaaaaaaaaaaaaaaaaaaaaaaaaaaaaaaaaa",
"aaaaaaaaaaaaaaaaaaaaaaaaaaaaaaaaaassssaaaaaaaaaaaaaayyyyaaaaaaaa",
"aaaaaaaapue9888888880euiaaaaaaaaaassssaaaaaaaaaaaaaayyyyaaaaaaaa",
"aaaaprw*                :0taaaaaaassssaaaaaaaaaaaaaayyyyaaaaaaaa",
"aapr    +&;>66666666>;;+    0uaaaassssaaaaaaaaaaaaaayyyyaaaaaaaa",
"i0   #>266666666666666666>#   :taaaaaaaaaaaaaaaaaaaaaaaaaaaaaaaa",
"   #>66666666666666666666662;   0taaaaaaaaaaaaaaaaaaaaaaaaaaaat0",
" #2666666666666666666666666666;   :taaaaaaaaaaaaaaaaaaaaaaaat:  ",
"66666666666666666666666666666662;    0taaaaaaaaaaaaaaaaaat0    #",
"666666666666666666666666>>>>666666;+    8euiaaaaaaaaiue8    +>66",
"666666666666666666666666>>>>666666662;+                  +;>6666",
"666666666666666666666666>>>>6666666666622>#          #;;66666666",
"666666666666666666666666>>>>666666666666qqqq66666666666666666666",
"6666qqqq6666666666666666666666666666666666666666>>>>>>>>66666666",
"6666qqqq6666666666666666666666666666666666666666>>>>>>>>66666666",
"6666qqqq6666666666666666666666666666666666666666>>>>>>>>66666666",
"6666qqqq6666666666666666666666666666666666666666>>>>>>>>66666666",
"666666666666666666666666666666666666666666666666>>>>>>>>66666666",
"666666666666666666666666666666666666666666666666>>>>>>>>66666666",
"666666666666666666666666666666666666666666666666>>>>>>>>66666666",
"666666666666666666666666666666666666666666666666>>>>>>>>66666666",
"6666666666666666666666666666666666666666666666666666666666666666",
"6666666666666666666666666666666666666666666666666666666666666666",
"6666666666666666666666666666666666666666666666666666666666666666",
"6666666666666666666666666666666666666666666666666666666666666666",
"666666666666666666666666666666666666>>>>666666666666666666666666",
"666666666666666666666666666666666666>>>>666666666666666666666666",
"666666666666666666666666666666666666>>>>666666666666666666666666",
"666666666666666666666666666666666666>>>>666666666666666666666666"
};
