/* XPM */
static char *dc6af0ae6cbe4842b0b72e96bd28a2eb[] = {
/* columns rows colors chars-per-pixel */
"64 64 41 1 ",
"  c #A8593C",
". c #A9593C",
"X c #AA5A3D",
"o c #AB5B3D",
"O c #AC5B3E",
"+ c #AD5C3E",
"@ c #AE5C3E",
"# c #AF5D3F",
"$ c #B05D3F",
"% c #A75F44",
"& c #B15E40",
"* c #B25F40",
"= c #B35F40",
"- c #B35F41",
"; c #A7654D",
": c #B46041",
"> c #B56041",
", c #B66142",
"< c #B76142",
"1 c #B86142",
"2 c #B86243",
"3 c #B96343",
"4 c #BB6343",
"5 c #BB6444",
"6 c #A66B56",
"7 c #A6715F",
"8 c #A67768",
"9 c #A57E70",
"0 c #C26746",
"q c #A58479",
"w c #A58A82",
"e c #A4908B",
"r c #A49694",
"t c #A39D9C",
"y c #9BB3BE",
"u c #A3A3A5",
"i c #A3A9AE",
"p c #A2AFB7",
"a c #A2B5C0",
"s c #A2BCC9",
"d c #AAC6D4",
/* pixels */
"5555555555555555555555555555555555555555555555555555555555555555",
"5555555555555555555555555555555555555555555555555555555555555555",
"5555555555555555555555555555555555555555555555555555555555555555",
"5555555555555555555555555555555555555555555555555555555555555555",
"555555555555555555555555555555555555555555555555555555555555::::",
"555555555555555555555555555555555555555555555555555555555555::::",
"555555555555555555555555555555555555555555555555555555555555::::",
"555555555555555555555555555555555555555555555555555555555555::::",
"5555555555555555555555555555000055555555555555555555555555555555",
"5555555555555555555555555555000055555555555555555555555555555555",
"5555555555555555555555555555000055555555555555555555555555555555",
"5555555555555555555555555555000055555555555555555555555555555555",
"55555555::::5555555555555555555555555555555555555555555500005555",
"55555555::::5555555555555555555555555555555555555555555500005555",
"55555555::::5555555555555555555555555555555555555555555500005555",
"55555555::::5555555555555555555555555555555555555555555500005555",
"5555555555555555000000005555555555555555555555555555555555555555",
"555555551**@OOOO@@@@@:115555555555555555555555555555555555555555",
"55551*@                  O*1555555555555555555555555555555555555",
"51:O    ;7wruuuuuuuutw86    *15555555555555555555555555555555555",
"@    9rpsssssssssssssssssi9   @1::::5555555555555555555555555555",
"  7rssssssssssssssssssssssspq%  @*::5555555555555555555555555555",
"9psssssssssssssddddssssssssssaw%  $:5555555555555555555555555555",
"sssssssssssssssddddssssssssssssa8  @5555555555555555555555555555",
"sssssssssssssssddddssssssssssssssr  @555555555555555555555555555",
"sssssssssssssssddddsssssssssssssssi% @55555555555555555555555555",
"sssssssssssssssssssssssssssssssssssu  :5555555555555555555555555",
"sssssssssssssssssssssssssssssssssssse  1555555555555555555555555",
"sssssssssssssssssssssssssssssssssssss7 *555555555555555555555555",
"sssssyyyysssssssssssssssssssssssssssst  555555555555555555555555",
"sssssyyyysssssssssssssssssssssssssssss; :55555555555555555555555",
"sssssyyyysssssssssssssssssssssssssssss9 $55555555555555555555555",
"sssssyyyysssssssssssssssssssssssssssssr O55555555555555555555555",
"ssssssssssssssssssssssssssssssssssssssu O55555555555555555555555",
"ssssssssssssssssssssssssssssssssssssssu  55555555555555555555555",
"ssssssssssssssssssssssssssssssssssssssu O55555555555555555555555",
"sssssssssssssssssssssssssssssssssssssst O55555555555555555555555",
"ssssssssurw777777tssssssssssssssssssssw @55555555555555555555555",
"ssssae8           tsssssssssssssssssss7 *55555555555555555555555",
"sat7     @*:::::* ;ssssssssssssssssssa% :55555555555555555555555",
"r;   O*1555555551  isssssssssssssssssu  555555555555555555555555",
"   *1555555555555O usssssssssssssssssw $555555555555555555555555",
" *555555555555555O rsssssssssssssssss8 *555555555555555555555555",
"55555555555555555O tsssssssssssssssss6 :555555555555555555555555",
"55555555555555555O usssssssssssssssss  5000055555555555555555555",
"55555555555555555  psssssssssssssssss  5000055555555555555555555",
"55555555555555555  ssssssssssddddssss  5000055555555555555555555",
"55555555555555555  ssssssssssddddsssp O5000055555555555555555555",
"55550000555555555  ssssssssssddddsssa O555555555::::::::55555555",
"55550000555555555  ssssssssssddddssss  555555555::::::::55555555",
"55550000555555555  ssssssssssssssssss  555555555::::::::55555555",
"55550000555555555  isssssssssssssssss  555555555::::::::55555555",
"55555555555555555O usssssssssssssssss7 :55555555::::::::55555555",
"55555555555555555@ esssssssssssssssss9 :55555555::::::::55555555",
"55555555555555555* qssssyyyyssssssssse *55555555::::::::55555555",
"55555555555555555: 6ssssyyyysssssssssu O55555555::::::::55555555",
"555555555555555555  asssyyyyssssssssss  155555555555555555555555",
"555555555555555555O tsssyyyyssssssssss8 *55555555555555555555555",
"555555555555555555* 9sssssssssssssssssr @55555555555555555555555",
"5555555555555555551 %sssssssssssssssssa  15555555555555555555555",
"5555555555555555555  rsssssssssssssssss9 *5555555555555555555555",
"5555555555555555555* 7sssssssssssssssssu  5555555555555555555555",
"55555555555555555551  isssssssssssssssss; *555555555555555555555",
"55555555555555555555@ 9sssssssssssssssssr  555555555555555555555"
};
