/* XPM */
static char *_e8b4c9e3ba448ba8bae9cdbbfe4ac36[] = {
/* columns rows colors chars-per-pixel */
"64 64 38 1 ",
"  c #A8593C",
". c #A9593C",
"X c #AA5A3D",
"o c #AB5B3D",
"O c #AC5B3E",
"+ c #AD5C3E",
"@ c #AF5D3F",
"# c #B05D3F",
"$ c #A75F44",
"% c #B15E40",
"& c #B25F40",
"* c #B35F41",
"= c #A7654D",
"- c #B46041",
"; c #B56041",
": c #B66142",
"> c #B76142",
", c #B96242",
"< c #B86243",
"1 c #B96343",
"2 c #BB6444",
"3 c #A66B56",
"4 c #A6715F",
"5 c #A67768",
"6 c #A57E70",
"7 c #C26746",
"8 c #A58479",
"9 c #A58A82",
"0 c #A4908B",
"q c #A49694",
"w c #A39D9C",
"e c #9BB3BE",
"r c #A3A3A5",
"t c #A3A9AE",
"y c #A2AFB7",
"u c #A2B5C0",
"i c #A2BCC9",
"p c #AAC6D4",
/* pixels */
"222222222222222222222ooriiiiiiiiiiiiiiiii4o&22222222222222222222",
"222222222222222222222&o6iiiiiiiiiiiiiiiiiroo22222222222222222222",
"222222222222222222222<ooyiiiiiiiiiiiiiiiii=o-2222222222222222222",
"2222222222222222222222@o8iiiiiiiiiiiiiiiiiqo@2222222222222222222",
"2222222222222222222222-o$iiiiiiiiiiiiiiiiiuoo<22222222222222----",
"22222222222222222222222oowiiiiiiiiiiiippppi5o&22222222222222----",
"22222222222222222222222&o6iiiiiiiiiiiippppiqo@22222222222222----",
"22222222222222222222222<o$iiiiiiiiiiiippppiuoo22222222222222----",
"222222222222222222222222ootiiiiiiiiiiippppii3o-22222222222222222",
"222222222222222222222222#o0iiiiiiiiiiiiiiiii8o&22222222222222222",
"222222222222222222222222&o6iiiiiiiiiiiiiiiiiqo@22222222222222222",
"222222222222222222222222-o4iiiiiiiiiiiiiiiiiroO22222222222222222",
"22222222----2222222222222o$iiiiiiiiiiiiiiiiiuoo22222222277772222",
"22222222----2222222222222ooiiiiiiiiiiiiiiiiiioo22222222277772222",
"22222222----2222222222222ooiiiiiiiiiiiiiiiiii  22222222277772222",
"22222222----2222222222222Ootiiiiiiiiiiiiiiiii= -2222222277772222",
"2222222222222222777777772Ooriiiiiiiiiiiiiiiii4o-2222222222222222",
"2222222222222222777777772ooyiiiiiiiiiiiiiiiiioo<2222222222222222",
"2222222222222222777777772ooiiiiiiiiiiiiiiiiiioo22222222222222222",
"2222222222222222777777772ooiiiiiiiiiiiiiiiiitoo22222222222222222",
"222222222222222277777777-o=iiiiiiiiiiiiiiiiiroO22222222222222222",
"222222222222222277777777-o4iiiiiiiiiiiiiiiiiroO22222222222222<&O",
"222222222222222277777777#o9iiiiiiiiiiiiiiiiiroO222222222222<&ooo",
"222222222222222277777777oowiiiiiiiiiiiiiiiiiyoo<222222222-#ooo4r",
"222222222222222222222222oouiiiiiiiiiiiiiiiiii4oo<2222-&Ooooo6rii",
"22222222222222222222222-o3iiiiiiiiiiiiiiiiiiiroooooo    o30yiiii",
"22222222222222222222222&o5iippppiiiiiiiiiiiiiir3oooo$48quiiiiiii",
"22222222222222222222222&o9iippppiiiiiiiiiiiiiiiiiiiiiiiiiiiiiiii",
"22222222222277772222222#o9iippppiiiiiiiiiiiiiiiiiiiiiiiiiiiiiiii",
"22222222222277772222222Oo9iippppiiiiiiiiiiiiiiiiiiiiiiiiiiiiiiii",
"22222222222277772222222@o9iiiiiiiiiiiiiiiiiiiiiiiiiiiiiiieeeeiii",
"22222222222277772222222&o8iiiiiiiiiiiiiiiiiiiiiiiiiiiiiiieeeeiii",
"22222222222222222222222&o4iiiiiiiiiiiiiiiiiiiiiiiiiiiiiiieeeeiii",
"22222222222222222222222-ooiiiiiiiiiiiiiiiiiiiiiiiiiiiiiiieeeeiii",
"222222222222222222222222oowiiiiiiiieeeeiiiiiiiiiiiiiiiiiiiiiiiii",
"222222222222222222222222@o4iiiiiiiieeeeiiiiiiiiiiiiiiiiiiiiiiiii",
"222222222222222222222222-ooriiiiiiieeeeiiiiiiiiiiiiiiiiiiiiiiiii",
"2222222222222222222222222@ =uiiiiiieeeeiiiiiiiiiiiiiiiiiiiiiiiii",
"2222222222222222222222222<o 6iiiiiiiiiiiiiiiiiiiiiiiiiiiiiiiiiii",
"22222222222222222222222222-oo6uiiiiiiiiiiiiiiiiiiiiiiiiiiiiiiiii",
"222222222222222222222222222&oo3tiiiiiiiiiiiiiiiiiiiiiiiiiiiiiiii",
"2222222222222222222222222222-oo$9uiiiiiiiiiiiiiiiiiiiiiiiiiiiiq6",
"22222222222222222222222222222<@oo$8yiiiiiiiiiiiiiiiiiiiiiiiiq=oo",
"2222222222222222222222222222222-Oooo38ryiiiiiiiiiiiiiiiiiq6oooo@",
"222222222222222222222222----22222<&ooooo39quiiiiiiiiyr94ooooO-22",
"222222222222222222222222----22222222-@Ooo   ooooo oooooooO&<2222",
"222222222222222222222222----222222222222<-@ooooo  ooo@&-22222222",
"222222222222222222222222----222222222222777722222222222222222222",
"222277772222222222222222222222222222222222222222--------22222222",
"222277772222222222222222222222222222222222222222--------22222222",
"222277772222222222222222222222222222222222222222--------22222222",
"222277772222222222222222222222222222222222222222--------22222222",
"222222222222222222222222222222222222222222222222--------22222222",
"222222222222222222222222222222222222222222222222--------22222222",
"222222222222222222222222222222222222222222222222--------22222222",
"222222222222222222222222222222222222222222222222--------22222222",
"2222222222222222222222222222222222222222222222222222222222222222",
"2222222222222222222222222222222222222222222222222222222222222222",
"2222222222222222222222222222222222222222222222222222222222222222",
"2222222222222222222222222222222222222222222222222222222222222222",
"222222222222222222222222222222222222----222222222222222222222222",
"222222222222222222222222222222222222----222222222222222222222222",
"222222222222222222222222222222222222----222222222222222222222222",
"222222222222222222222222222222222222----222222222222222222222222"
};
