/* XPM */
static char *_009352963e942ad8500733e6d208c62[] = {
/* columns rows colors chars-per-pixel */
"64 64 37 1 ",
"  c #A8593C",
". c #A9593C",
"X c #AA5A3D",
"o c #AB5B3D",
"O c #AC5B3E",
"+ c #AD5C3E",
"@ c #AF5D3F",
"# c #B05D3F",
"$ c #A75F44",
"% c #B15E40",
"& c #B25F40",
"* c #B35F41",
"= c #A7654D",
"- c #B46041",
"; c #B56041",
": c #B66142",
"> c #B76142",
", c #B86243",
"< c #B96343",
"1 c #BB6444",
"2 c #A66B56",
"3 c #A6715F",
"4 c #A67768",
"5 c #A57E70",
"6 c #C26746",
"7 c #A58479",
"8 c #A58A82",
"9 c #A4908B",
"0 c #A49694",
"q c #A39D9C",
"w c #9BB3BE",
"e c #A3A3A5",
"r c #A3A9AE",
"t c #A2AFB7",
"y c #A2B5C0",
"u c #A2BCC9",
"i c #AAC6D4",
/* pixels */
"111111111111111111111ooeuuuuuuuuuuuuuuuuu=o&11111111111111111111",
"111111111111111111111&o5uuuuuuuuuuuuuuuuu0oo11111111111111111111",
"111111111111111111111,ootuuuuuuuuuuuuuuuuu=o-1111111111111111111",
"1111111111111111111111@o7uuuuuuuuuuuuuuuuu8o@1111111111111111111",
"1111111111111111111111-o$uuuuuuuuuuuuuuuuutoo,11111111111111----",
"11111111111111111111111ooquuuuuuuuuuuuuuuuu2o&11111111111111----",
"11111111111111111111111&o5uuuuuuuuuuuuwwwwu9o@11111111111111----",
"11111111111111111111111,o$uuuuuuuuuuuuwwwwutoo11111111111111----",
"111111111111111111111111ooruuuuuuuuuuuwwwwuu=o-11111111111111111",
"111111111111111111111111@o9uuuuuuuuuuuwwwwuu4o&11111111111111111",
"111111111111111111111111&o5uuuuuuuuuuuuuuuuu8o&11111111111111111",
"111111111111111111111111-o3uuuuuuuuuuuuuuuuueoO11111111111111111",
"11111111----111111111111,oouuuuuuuuuuuuuuuuue o11111111166661111",
"11111111----1111111111111oouuuuuuuiiiiuuuuuuu o11111111166661111",
"11111111----1111111111111ooyuuuuuuiiiiuuuuuuu  11111111166661111",
"11111111----1111111111111Ooeuuuuuuiiiiuuuuuuu  11111111166661111",
"1111111111111111666666661Ooeuuuuuuiiiiuuuuuuuoo11111111111111111",
"1111111111111111666666661ooruuuuuuuuuuuuuuuuuoo11111111111111111",
"1111111111111111666666661oouuuuuuuuuuuuuuuuuuoo11111111111111111",
"1111111111111111666666661oouuuuuuuuuuuuuuuuuroo11111111111111111",
"111111111111111166666666-o=uuuuuuuuuuuuuuuuueoO11111111111111111",
"111111111111111166666666-o3uuuuuuuuuuuuuuuuu9o@11111111111111111",
"111111111111111166666666&o8uuuuuuuuuuuuuuuuu7o&11111111111111111",
"111111111111111166666666Ooquuuuuuuuuuuuuuuuu2o-11111111111111111",
"11111111111111111111111,ooyuuuuuuuuuuuuuuuuyoo111111111111111111",
"11111111111111111111111&o3uuuuuuuuuuuuuuuuuqoO111111111111111111",
"11111111111111111111111@o9uuuuuuuuuuuuuuuuu5o&111111111111111111",
"1111111111111111111111,ootuuuuuuuuuuuuuuuuu$o,111111111111111111",
"1111111111116666111111&o4uuuuuuuuuuuuuuuuu0oo1111111111111111111",
"1111111111116666111111ooquuuuuuuuuuuuuuuuu3o&1111111111111111111",
"111111111111666611111&o=uuuuuuuuuuuuuuuuutoo,1111111111111111111",
"111111111111666611111oo0uuuuuuuuuuuuuuuuu5o@11111111111111111111",
"11111111111111111111&o=uuuuuuuuuuuuuuuuueoo,11111111111111111111",
"11111111111111111111oo0uuuuuuuuuuuuuuuuu5o&111111111111111111111",
"1111111111111111111-o=uuuuuuuuuuuuuuuuutoo,111111111111111111111",
"1111111111111111111@o8uuuuiiiiuuuuuuuuu7o#1111111111111111111111",
"111111111111111111,ootuuuuiiiiuuuuuuuuu$o,1111111111111111111111",
"111111111111111111&o2uuuuuiiiiuuuuuuuuqoo11111111111111111111111",
"111111111111111111@o9uuuuuiiiiuuuuuuuu5o&11111111111111111111111",
"111111111111111111ootuuuuuuuuuuuuuuuuu$o,11111111111111111111111",
"11111111111111111-o=uuuuuuuuuuuuuuuuur o111111111111111111111111",
"11111111111111111&o4uuiiiiuuuuuuuuuuu9 @111111111111111111111111",
"11111111111111111& 8uuiiiiuuuuuuuuuuu5 &111111111111111111111111",
"11111111111111111o euuiiiiuuuuuuuuuuu3o-111111111111111111111111",
"11111111111111111Ooeuuiiiiuuuuuuuuuuuoo1666611111111111111111111",
"11111111111111111oouuuuuuuuuuuuuuuuuuoo1666611111111111111111111",
"11111111111111111oouuuuuuuuuuuuuuuuuyoo1666611111111111111111111",
"11111111111111111oouuuuuuuuuuuuuuuuueoO1666611111111111111111111",
"11116666111111111oouuuuuuuuuuuuuuuuueoO111111111--------11111111",
"11116666111111111oouuuuuuuuuuuuuuuuutoo111111111--------11111111",
"11116666111111111oouuuuuuuuuuuuuuuuuuoo111111111--------11111111",
"11116666111111111ooruuuuwwwwuuuuuuuuuoo111111111--------11111111",
"11111111111111111Ooeuuuuwwwwuuuuuuuuu2o-11111111--------11111111",
"11111111111111111@o9uuuuwwwwuuuuuuuuu4o-11111111--------11111111",
"11111111111111111&o7uuuuwwwwuuuuuuuuu8 &11111111--------11111111",
"11111111111111111-o2uuuuuuuuuuuuuuuuue O11111111--------11111111",
"111111111111111111ooyuuuuuuuuuuuuuuuuuoo,11111111111111111111111",
"111111111111111111Ooquuuuuuuuuuuuuuuuu4o-11111111111111111111111",
"111111111111111111&o5uuuuuuuuuuuuuuuuu0o@11111111111111111111111",
"111111111111111111,o$uuuuuuuuuuuuuuuuuyoo,1111111111111111111111",
"1111111111111111111oo0uuuuuuuuuuuuuuuuu5o&1111111111111111111111",
"1111111111111111111&o3uuuuuuuuuuuuuuuuueoo1111111111111111111111",
"1111111111111111111,ootuuuuuuuuuuuuuuuuu2o&111111111111111111111",
"11111111111111111111@o5uuuuuuuuuuuuuuuuuqoo111111111111111111111"
};
