/* XPM */
static char *cc8f6045b5a346a8a6bdb7bf90f8dbc3[] = {
/* columns rows colors chars-per-pixel */
"64 64 159 2 ",
"   c #7B542B",
".  c #7D542C",
"X  c #764E39",
"o  c #775034",
"O  c #683C65",
"+  c #663A6A",
"@  c #743E6A",
"#  c #763F6B",
"$  c #713D6E",
"%  c #723D6F",
"&  c #743E6F",
"*  c #633674",
"=  c #663775",
"-  c #673775",
";  c #673975",
":  c #6A3971",
">  c #6D3A72",
",  c #6E3B72",
"<  c #623579",
"1  c #64367C",
"2  c #65367C",
"3  c #67377F",
"4  c #734A43",
"5  c #714848",
"6  c #6E4452",
"7  c #714553",
"8  c #754554",
"9  c #764655",
"0  c #774655",
"q  c #78455B",
"w  c #78406B",
"e  c #7D4368",
"r  c #78476B",
"t  c #7A416C",
"y  c #80542D",
"u  c #86552F",
"i  c #83592E",
"p  c #895530",
"a  c #8B5531",
"s  c #885630",
"d  c #855A34",
"f  c #8B5831",
"g  c #8C5831",
"h  c #8F5932",
"j  c #8B5F31",
"k  c #915634",
"l  c #975736",
"z  c #965935",
"x  c #9C5738",
"c  c #9F5839",
"v  c #A1563A",
"b  c #A5583B",
"n  c #A55D3B",
"m  c #A65D3C",
"M  c #A8593D",
"N  c #A9593D",
"B  c #A95A3D",
"V  c #AA5A3D",
"C  c #AA5B3D",
"Z  c #AC5B3E",
"A  c #AE5C3E",
"S  c #8F6132",
"D  c #9B6A37",
"F  c #AB603D",
"G  c #A36F3A",
"H  c #AB753D",
"J  c #AF773F",
"K  c #81534E",
"L  c #96504C",
"P  c #9F554F",
"I  c #894957",
"U  c #83495A",
"Y  c #864A5B",
"T  c #8B4A5D",
"R  c #8E4C5E",
"E  c #964F50",
"W  c #944F5B",
"Q  c #8E5A5E",
"!  c #9A5252",
"~  c #995257",
"^  c #9F5554",
"/  c #98515C",
"(  c #A35640",
")  c #A15549",
"_  c #A95A48",
"`  c #AF5E4A",
"'  c #AA5B4D",
"]  c #B05D40",
"[  c #B15E40",
"{  c #B25F40",
"}  c #B35F41",
"|  c #A45755",
" . c #A45851",
".. c #9F6854",
"X. c #B46041",
"o. c #B56041",
"O. c #B66142",
"+. c #B76142",
"@. c #B76342",
"#. c #B56147",
"$. c #B86243",
"%. c #B96343",
"&. c #BB6343",
"*. c #BB6444",
"=. c #B6604C",
"-. c #BC6349",
";. c #A77147",
":. c #B77D42",
">. c #B57B47",
",. c #A46D51",
"<. c #A97057",
"1. c #AF725D",
"2. c #804564",
"3. c #814564",
"4. c #834665",
"5. c #864765",
"6. c #884961",
"7. c #885561",
"8. c #C26746",
"9. c #BB8044",
"0. c #683880",
"q. c #693982",
"w. c #6B3A84",
"e. c #6C3A85",
"r. c #6E3B88",
"t. c #713D8B",
"y. c #713D8C",
"u. c #723D8C",
"i. c #733E8E",
"p. c #753F8F",
"a. c #7A438F",
"s. c #764091",
"d. c #784093",
"f. c #794194",
"g. c #7B4297",
"h. c #7E449A",
"j. c #7E449B",
"k. c #80459D",
"l. c #81459F",
"z. c #8346A0",
"x. c #8547A2",
"c. c #8548A3",
"v. c #8648A4",
"b. c #8849A6",
"n. c #8B4AAA",
"m. c #8B4BAA",
"M. c #8C4BAB",
"N. c #8C4BAC",
"B. c #8D4CAD",
"V. c #8E4CAD",
"C. c #8E4CAE",
"Z. c #8F4DAF",
"A. c #904DB0",
"S. c #914EB1",
"D. c #914EB2",
"F. c #924EB3",
"G. c #934FB3",
"H. c #944FB5",
"J. c #9550B6",
/* pixels */
"*.*.*.*.*.*.*.*.*.*.*.*.*.*.*.*.*.*.*.*.*.*.*.*.*.*.*.*.*.*.*.*.*.*.*.*.*.*.*.*.*.*.*.*.*.*.*.*.*.*.*.*.*.*.*.*.*.*.*.*.*.*.*.*.",
"*.*.*.*.*.*.*.*.*.*.*.*.*.*.*.*.*.*.*.*.*.*.*.*.*.*.*.*.*.*.*.*.*.*.*.*.*.*.*.*.*.*.*.*.*.*.*.*.*.*.*.*.*.*.*.*.*.*.*.*.*.*.*.*.",
"*.*.*.*.*.*.*.*.*.*.*.*.*.*.*.*.*.*.*.*.*.*.*.*.*.*.*.*.*.*.*.*.*.*.*.*.*.*.*.*.*.*.*.*.*.*.*.*.*.*.*.*.*.*.*.*.*.*.*.*.*.*.*.*.",
"*.*.*.*.*.*.*.*.*.*.*.*.*.*.*.*.*.*.*.*.*.*.*.*.*.*.*.*.*.*.*.*.*.*.*.*.*.*.*.*.*.*.*.*.#.W w % > w 6.` *.*.*.*.*.*.*.*.*.*.*.*.",
"*.*.*.*.*.*.*.*.*.*.*.*.8.8.8.8.*.*.*.*.*.*.*.*.*.*.*.*.*.*.*.*.*.*.*.*.*.*.*.*.*.*.*. .- < < < < < < <  .*.*.*.*.*.*.*.*.*.*.*.",
"*.*.*.*.*.*.*.*.*.' R w t < & t 6.^ *.*.*.*.*.*.*.*.*.*.*.*.*.*.*.*.*.*.*.*.*.*.*.*.*.- < r.x.n.n.b.p.< - #.*.*.*.*.*.*.*.*.*.*.",
"*.*.*.*.*.*.*.' w < < < < < < < < < > ^ *.*.*.*.*.*.*.*.*.*.*.*.*.*.*.*.*.*.*.*.*.*.~ < p.J.J.J.J.J.J.j.< w *.*.*.*.*.*.*.*.*.*.",
"*.*.*.*.*.*.^ - < < p.x.b.D.n.b.j.0.< < R *.*.*.*.*.*.*.*.*.*.*.*.*.*.*.*.*.*.*.*.*.> < n.J.J.J.J.J.J.D.2 <  .*.*.*.*.*.*.*.*.*.",
"*.*.*.*.*.W < < y.Z.J.J.J.J.J.J.J.J.l.< < e *.*.*.*.*.*.*.*.*.*.*.*.*.*.*.*.*.*.*.~ < y.J.J.J.J.J.J.J.J.p.< e *.*.*.*.*.*.*.*.*.",
"*.*.*.*.` - < l.J.J.J.J.J.J.J.J.J.J.J.n.2 < ~ *.*.*.*.*.*.*.*.*.*.*.*.*.*.*.*.*.*.% < z.J.J.J.J.J.J.J.J.v.< w *.*.*.*.*.*.*.*.*.",
"*.*.*.*.w < d.J.J.J.J.J.J.J.J.J.J.J.J.J.x.< - ` *.*.*.*.*.*.*.*.*.*.*.*.*.*.*.*.*.< < b.M.Z.D.D.D.D.D.N.c.< - *.*.*.*.*.*.*.*.*.",
"*.*.*.~ < 2 D.J.J.J.J.J.J.J.J.J.J.J.J.J.J.d.< w *.*.*.*.*.*.*.*.*.*.*.*.*.*.*.*.*.< < n.n.n.n.n.n.n.n.n.n.< < *.*.*.*.*.*.*.*.*.",
"X.X.X.# < l.J.J.J.J.J.J.J.J.J.J.J.J.J.J.J.D.0.< ' *.*.*.*.*.*.*.*.*.*.*.*.*.*.*.*.< < c.n.n.n.n.n.n.n.n.c.< < *.*.*.*.*.X.X.X.X.",
"X.X._ < 2 D.J.J.J.J.J.J.J.J.J.J.J.J.J.J.J.J.f.< 4.*.*.*.*.*.*.*.*.*.*.*.*.*.*.*.*.4.< 0.b.n.n.n.n.n.n.n.r.< w *.*.*.*.*.X.X.X.X.",
"X.X.! < d.J.J.J.J.J.J.J.J.J.J.J.J.J.J.J.J.J.D.< > *.*.*.*.*.*.*.*.*.*.*.*.*.*.*.*.#.> < 2 f.b.n.n.c.f.0.< - #.*.*.*.*.*.X.X.X.X.",
"X.X.T < f.Z.H.J.J.J.J.J.J.J.J.J.J.J.J.J.J.D.M.2 < ` *.*.*.' R w w < % w 6.^ *.*.*.*.' % < < < 9.,.< < < > ` *.*.*.*.*.*.X.X.X.X.",
"X.X.4.< l.n.n.Z.D.D.H.J.J.J.J.J.J.D.D.Z.M.n.n.e.< ^ *.#.e < < < < < < < < < > ^ *.*.*.*.~ 6 6 9.;.6 8 / #.*.*.*.*.*.*.*.X.X.X.X.",
"X.X.% < z.n.n.n.n.n.n.n.n.n.n.n.n.n.n.n.n.n.n.r.< R ' - < < p.x.b.D.n.b.j.0.< < R *.*.*.*.    9.H   h 8.*.*.*.*.*.*.*.*.X.X.X.X.",
"X.X.< < n.n.n.n.n.n.n.n.n.n.n.n.n.n.n.n.n.n.n.s.< w - < y.Z.J.J.J.J.J.J.J.J.l.< < e *.*.*.    9.H   h 8.*.*.*.*.*.*.*.*.X.X.X.X.",
"X.X.< < n.n.n.n.n.n.n.n.n.n.n.n.n.n.n.n.n.n.n.t.< < < l.J.J.J.J.J.J.J.J.J.J.J.n.2 < ~ *.*.    9.H   h 8.*.*.*.*.*.*.*.*.X.X.X.X.",
"*.*.4.< f.n.n.n.n.n.n.n.n.n.n.n.n.n.n.n.n.n.b.2 < < d.J.J.J.J.J.J.J.J.J.J.J.J.J.x.< - ` *.    9.H   f *.*.*.*.*.*.*.*.*.*.*.*.*.",
"*.*.~ < 2 b.n.n.n.n.n.n.n.n.n.n.n.n.n.n.n.n.s.< < 2 D.J.J.J.J.J.J.J.J.J.J.J.J.J.J.d.< w *.    9.H   f *.*.*.*.*.*.*.*.*.*.*.*.*.",
"*.*.*.w < 0.c.n.n.n.n.n.n.n.n.n.n.n.n.n.n.t.< < < l.J.J.J.J.J.J.J.J.J.J.J.J.J.J.J.D.0.< '     9.H   f *.*.*.*.*.*.*.*.*.*.*.*.*.",
"*.*.*.#.% < 2 f.b.n.m.n.n.n.n.n.n.n.n.l.2 < < < 2 D.J.J.J.J.J.J.J.J.J.J.J.J.J.J.J.J.f.< 4.    9.H   a [ $.*.*.*.*.*.*.*.*.*.*.*.",
"*.*.*.*.#.e < < 2 f.z.n.n.n.n.n.b.j.r.< < < < < d.J.J.J.J.J.J.J.J.J.J.J.J.J.J.J.J.J.D.< :     9.H   u V V X.*.*.*.*.*.*.*.*.*.*.",
"*.*.*.*.*.*.^ > < < < r 9.9.9.,.< < p.b.Z.n.p.< f.Z.H.J.J.J.J.J.J.J.J.J.J.J.J.J.J.D.M.2 < o   9.H   u V V V $.*.*.*.*.*.*.*.*.*.",
"*.*.*.*.*.*.*.*.P U 6 K 9.9.9.,.< l.J.J.J.J.p.< l.n.n.Z.D.D.H.J.J.J.J.J.J.D.D.Z.M.n.n.e.< 4   9.H   u V V V [ *.*.*.*.*.*.*.*.*.",
"*.*.*.*.*.*.*.*.X.n   j 9.9.9.,.2 J.J.J.J.J.w.< z.n.n.n.n.n.n.n.n.n.n.n.n.n.n.n.n.n.n.r.< 6         a V V V [ *.*.*.*.*.*.*.*.*.",
"*.*.*.*.*.*.*.*.*.F   j 9.9.9.,.j.J.J.J.J.J.< < n.n.n.n.n.n.n.n.n.m.m.n.n.n.n.n.n.n.n.s.< 7         x V V V $.*.*.*.*.*.*.*.*.*.",
"*.*.*.*.*.*.*.*.*.F   j 9.9.9.,.D.J.J.J.J.J.< < n.n.n.n.n.n.n.n.n.n.m.n.n.n.n.n.n.n.n.t.< E A A V V V ( I # % % w 6.` *.*.*.*.*.",
"*.*.*.*.*.*.*.*.*.F   j 9.9.9.<.n.N.D.D.D.D.y.< f.n.n.n.n.n.n.n.n.n.n.n.n.n.n.n.n.n.b.2 < ) A A V V L - < < < < < < <  .*.*.*.*.",
"*.*.*.*.*.*.*.*.*.F   j 9.9.9.1.n.n.n.n.n.n.f.< 2 b.n.n.n.n.n.n.n.n.n.n.n.n.n.n.n.n.s.< > 8.8.8.*.#.- < r.x.n.n.x.r.< < #.*.*.*.",
"*.*.*.*.*.*.*.*.*.F   j 9.9.9.<.n.n.n.n.n.n.n.e.< 0.c.n.n.n.n.n.n.n.n.n.n.n.n.n.n.t.< < | 8.8.8.*.R < p.J.J.J.J.J.J.p.< w *.*.*.",
"*.*.*.*.*.*.*.*.*.F   j 9.9.>.7.0.0.0.e.y.c.n.b.0.< 2 f.b.n.n.n.n.n.n.n.n.n.n.l.2 < < 5.8.8.8.8.#.- < n.J.J.J.J.J.J.D.2 <  .*.*.",
"*.*.*.*.*.*.*.*.*.F   j 9.,.; < < < < < < < l.a.2 < < < 2 f.z.n.n.n.n.n.b.j.r.< < < < < & =.8.8.R < y.J.J.J.J.J.J.J.J.f.< e *.*.",
"*.*.*.*.*.*.*.*.*.F   j >.; < r.x.n.n.x.r.< < + < % ~ > < < < r 9.9.9.,.< < p.b.Z.n.x.r.< > -.8.w < z.J.J.J.J.J.J.J.J.v.< w *.*.",
"*.*.*.*.*.*.*.*.*.F   j Q < p.J.J.J.J.J.J.p.< - ~ *.*.*. .Y 6 K 9.9.9.,.< j.J.J.J.J.J.J.p.< w *.< < b.M.Z.D.D.D.D.D.M.c.< - *.*.",
"*.*.*.*.*.*.*.*.*.F   d ; < n.J.J.J.J.J.J.D.2 <  .*.*.*.*.F   j 9.9.9.,.2 J.J.J.J.J.J.J.D.2 <  .< < n.n.n.n.n.n.n.n.n.n.< < *.*.",
"*.*.*.*.*.*.*.*.*.F   6 < y.J.J.J.J.J.J.J.J.f.< e *.*.*.*.F   j 9.9.9.,.j.J.J.J.J.J.J.J.J.f.< e < < c.n.n.n.n.n.n.n.n.c.< > *.*.",
"*.*.*.*.*.*.*.*.*.F   O < z.J.J.J.J.J.J.J.J.v.< w *.*.*.*.F   j 9.9.9.,.D.J.J.J.J.J.J.J.J.v.< w w < 0.b.n.n.n.n.n.n.b.0.< 6.*.*.",
"*.*.*.*.*.*.*.*.*.F   < < b.M.Z.D.D.D.D.D.M.c.< - *.*.*.*.F   j 9.9.9.<.n.N.D.D.D.D.D.D.M.c.< - ' - < 2 f.b.n.n.c.f.2 < > #.*.*.",
"*.*.*.*.*.*.*.*.$.m   < < n.n.n.n.n.n.n.n.n.n.< < *.*.*.*.F   j 9.9.9.1.n.n.n.n.n.n.n.n.n.n.< < *.^ - < < < 9.,.< < < > ` *.*.*.",
"*.*.*.*.*.*.*.X.V x   < < c.n.n.n.n.n.n.n.n.c.< > *.*.*.*.F   j 9.9.9.<.n.n.n.n.n.n.n.n.n.c.< < *.*.*.~ 6 6 9.;.6 8 W #.*.*.*.*.",
"*.*.*.*.*.*.[ V V x   O < 0.b.n.n.n.n.n.n.b.0.< 6.*.*.*.*.F   j 9.9.9.,.t.n.n.n.n.n.n.n.b.0.< w *.*.*.*.    9.H   f *.*.*.*.*.*.",
"*.*.*.*.*.*.M V V b   X * < 2 f.b.n.n.c.f.2 < > #.*.*.*.*.F   j 9.9.9.,.< e.f.n.n.n.n.a.2 < - #.*.*.*.*.    9.H   f *.*.*.*.*.*.",
"*.*.*.*.*.*.V V V V a   4 * < < < 9.,.< < < > ` *.*.*.*.*.F   j 9.9.9.,.< < < Q 9.D   O < > ` *.*.*.*.*.    9.H   f *.*.*.*.*.*.",
"*.*.*.*.*.*.[ V V V b a .   5 6 6 9.;.6 8 W #.*.*.*.*.*.*.F   j 9.9.9.,.< < ; ..9.D   q ~ *.*.*.*.*.*.*.    9.H   f *.*.*.*.*.*.",
"*.*.*.*.*.*.*.[ V V V V V V V     9.H   f *.*.*.*.*.*.*.*.F   j 9.9.9.9.9.9.9.9.9.D   F *.*.*.*.*.*.*.*.    9.H   f *.*.*.*.*.*.",
"*.*.*.*.*.*.*.*.$.X.Z V V V V     9.H   f *.*.*.*.*.*.*.*.F   j 9.9.9.9.9.9.9.9.:.i   X.*.*.*.*.*.*.*.*.    9.H   f *.*.*.*.*.*.",
"*.*.*.*.*.*.*.*.*.*.*.*.*.*.*.    9.H   f *.*.*.*.*.*.*.*.F   j 9.9.9.H             f *.*.*.*.*.*.*.$.[     9.H   a [ $.*.*.*.*.",
"*.*.*.*.*.*.*.*.*.*.*.*.*.*.*.    9.H   f *.*.*.*.*.*.*.*.F   j 9.9.9.H           h X.*.*.*.*.*.*.X.V V     9.H   u M V $.*.*.*.",
"*.*.*.*.*.*.*.*.*.*.*.*.*.*.*.    9.H   f *.*.*.*.*.*.*.$.m   j 9.9.9.H   z X.*.*.*.*.*.*.*.*.*.X.V V V     9.H   u V V V $.*.*.",
"*.*.*.*.*.*.*.*.8.8.8.8.*.*.*.    9.H   f *.*.*.*.*.*.X.V x   j 9.9.9.H   k V [ $.*.*.*.*.*.*.*.V V V V     9.H   u V V V [ *.*.",
"*.*.*.*.*.*.*.*.8.8.8.8.*.X.[     9.H   a [ $.*.*.*.[ M V x   i 9.9.9.G   k V V V $.*.*.*.*.*.*.V V V V y         a V V V [ *.*.",
"*.*.*.*.*.*.*.*.8.8.8.8.X.V M     9.H   u V Z $.*.*.V V V b     J 9.9.S   l V V V [ *.*.*.*.*.*.X.V V V k       y x V V V $.*.*.",
"*.*.*.*.*.*.*.*.8.8.8.$.V V V     9.H   u V V V $.*.V V V V a           . b V V V [ *.*.*.*.*.*.*.[ V V V V V V V V V V X.*.*.*.",
"*.*.*.*.*.*.*.*.*.*.*.Z V V V     9.H   u V V V V X.V v V V b a .     a c V V V V $.*.*.*.*.*.*.*.*.X.[ V V V V V V [ $.*.*.*.*.",
"*.*.*.*.*.*.*.*.*.*.*.Z V V V y         a V V V V X.X.V V V V V V V V V V V V Z X.*.*.*.*.*.*.*.*.*.*.*.*.*.*.*.*.*.*.*.*.*.*.*.",
"*.*.*.*.*.*.*.*.*.*.*.X.V V V k       y x V V V [ X.X.X.$.X.Z V V V V V V [ X.*.*.*.*.*.*.*.*.*.*.*.*.*.*.*.*.*.*.*.*.*.*.*.*.*.",
"*.*.*.*.*.*.*.*.*.*.*.*.[ V V V V V V V V V V X.X.X.X.X.*.*.*.*.*.*.*.*.*.*.*.*.*.*.*.*.*.*.*.*.*.*.*.*.*.*.*.*.*.*.*.*.*.*.*.*.",
"*.*.*.*.*.*.*.*.*.*.*.*.*.$.[ V V V V V V [ $.*.*.*.*.*.*.*.*.*.*.*.*.*.*.*.*.*.*.*.*.*.*.*.*.*.*.*.*.*.*.*.*.*.*.*.*.*.*.*.*.*.",
"*.*.*.*.*.*.*.*.*.*.*.*.*.*.*.*.*.*.*.*.*.*.*.*.*.*.*.*.*.*.*.*.*.*.*.*.*.*.*.*.*.*.*.*.*.*.*.*.*.*.*.*.*.*.*.*.*.*.*.*.*.*.*.*.",
"*.*.*.*.*.*.*.*.*.*.*.*.*.*.*.*.*.*.*.*.*.*.*.*.*.*.*.*.*.*.*.*.*.*.*.*.*.*.*.*.*.*.*.*.*.*.*.*.*.*.*.*.*.*.*.*.*.*.*.*.*.*.*.*.",
"*.*.*.*.*.*.*.*.*.*.*.*.*.*.*.*.*.*.*.*.*.*.*.*.*.*.*.*.*.*.*.*.*.*.*.*.*.*.*.*.*.*.*.*.*.*.*.*.*.*.*.*.*.*.*.*.*.*.*.*.*.*.*.*."
};
